<?xml version="1.0" encoding="UTF-8"?>
<svg id="Layer_2" data-name="Layer 2" xmlns="http://www.w3.org/2000/svg" viewBox="0 0 1814.17 907.09">
  <defs>
    <style>
      .cls-1, .cls-2, .cls-3, .cls-4, .cls-5, .cls-6, .cls-7, .cls-8, .cls-9, .cls-10, .cls-11, .cls-12, .cls-13, .cls-14, .cls-15, .cls-16, .cls-17, .cls-18, .cls-19, .cls-20, .cls-21, .cls-22, .cls-23, .cls-24, .cls-25, .cls-26, .cls-27, .cls-28, .cls-29, .cls-30 {
        stroke-miterlimit: 10;
      }

      .cls-1, .cls-2, .cls-3, .cls-14, .cls-15, .cls-16, .cls-17, .cls-20, .cls-21, .cls-22, .cls-23, .cls-26 {
        fill: none;
      }

      .cls-1, .cls-17 {
        stroke-width: 10px;
      }

      .cls-1, .cls-17, .cls-26 {
        stroke: #3958a2;
      }

      .cls-1, .cls-31 {
        opacity: .75;
      }

      .cls-2 {
        stroke-width: 3px;
      }

      .cls-2, .cls-6, .cls-32, .cls-20, .cls-22, .cls-25, .cls-27, .cls-29, .cls-30 {
        stroke: #000;
      }

      .cls-3 {
        stroke: #ef4358;
        stroke-width: 6px;
      }

      .cls-4 {
        fill: #f9c7d8;
        stroke: #f0609f;
      }

      .cls-4, .cls-14, .cls-15, .cls-16, .cls-23 {
        stroke-width: 5px;
      }

      .cls-5, .cls-6, .cls-7, .cls-8, .cls-9, .cls-12, .cls-13, .cls-20, .cls-24, .cls-25, .cls-27, .cls-28, .cls-29, .cls-30 {
        stroke-width: 2px;
      }

      .cls-5, .cls-6, .cls-7, .cls-27, .cls-28, .cls-29, .cls-30 {
        font-family: ArialMT, Arial;
      }

      .cls-5, .cls-13, .cls-33 {
        fill: #8dc63f;
        stroke: #8dc63f;
      }

      .cls-5, .cls-27 {
        font-size: 34.03px;
      }

      .cls-34 {
        fill: #f15a29;
      }

      .cls-35, .cls-8, .cls-11, .cls-36 {
        fill: #ee2a7b;
      }

      .cls-37, .cls-19 {
        fill: #fff;
      }

      .cls-38, .cls-39 {
        fill: #89c540;
      }

      .cls-40 {
        fill: #a7a9ac;
      }

      .cls-41, .cls-12, .cls-42, .cls-43, .cls-44 {
        fill: #231f20;
      }

      .cls-45, .cls-31 {
        fill: #27aae1;
      }

      .cls-46, .cls-47 {
        fill: #2a5661;
      }

      .cls-48 {
        fill: #3958a2;
      }

      .cls-6 {
        font-size: 32.13px;
      }

      .cls-7, .cls-29 {
        font-size: 32.59px;
      }

      .cls-49 {
        letter-spacing: -.02em;
      }

      .cls-50 {
        letter-spacing: -.02em;
      }

      .cls-8, .cls-9, .cls-10, .cls-11, .cls-14 {
        stroke: #ee2a7b;
      }

      .cls-9, .cls-10 {
        fill: #f0609f;
      }

      .cls-10, .cls-11, .cls-21, .cls-22 {
        stroke-width: 4px;
      }

      .cls-12, .cls-15, .cls-24, .cls-28 {
        stroke: #231f20;
      }

      .cls-33 {
        letter-spacing: 0em;
      }

      .cls-16, .cls-23 {
        stroke: #a7a9ac;
      }

      .cls-51 {
        fill: #00aeef;
      }

      .cls-51, .cls-42, .cls-36, .cls-43, .cls-44, .cls-52 {
        font-weight: 800;
      }

      .cls-51, .cls-36 {
        font-size: 40px;
      }

      .cls-51, .cls-36, .cls-43, .cls-52 {
        font-family: Avenir-Heavy, Avenir;
      }

      .cls-42 {
        font-size: 42.84px;
        text-decoration: underline;
      }

      .cls-42, .cls-44 {
        font-family: Avenir-Black, Avenir;
      }

      .cls-53 {
        letter-spacing: 0em;
      }

      .cls-53, .cls-54 {
        fill: #448660;
      }

      .cls-18 {
        fill: #febe23;
        stroke: #febe23;
      }

      .cls-19 {
        stroke: #fff;
      }

      .cls-21 {
        stroke: #89c540;
      }

      .cls-23 {
        stroke-dasharray: 0 0 11.84 11.84;
      }

      .cls-26 {
        stroke-width: 11px;
      }

      .cls-55 {
        letter-spacing: 0em;
      }

      .cls-43, .cls-52 {
        font-size: 50.36px;
      }

      .cls-44 {
        font-size: 45.6px;
      }

      .cls-28 {
        font-size: 35.13px;
      }

      .cls-30 {
        font-size: 34.87px;
      }

      .cls-56 {
        letter-spacing: 0em;
      }

      .cls-57 {
        letter-spacing: 0em;
      }

      .cls-39, .cls-58 {
        opacity: .5;
      }

      .cls-58 {
        fill: #ef4358;
      }

      .cls-47, .cls-54 {
        opacity: .9;
      }
    </style>
  </defs>
  <g id="Layer_1-2" data-name="Layer 1">
    <rect class="cls-37" width="1814.17" height="907.09"/>
    <g id="Layer_5" data-name="Layer 5">
      <g>
        <path class="cls-58" d="m1384.27,501.43c-6.89.13-75.5-2.06-80.34,20.68-.51,2.39-.21,4.29,0,5.51,3.13,18.61,40.38,35.77,68.19,32.61,5.78-.66,16.25-2.77,29.23.42,3.73.92,5.65,1.78,11.01,2.96,10.56,2.33,18.75,2.45,22.45,2.54,19.87.47,40.27,3.12,52.1,4.66,24.82,3.23,20.06,5.15,32.61,5.51,3.28.09,37.82.79,52.1-12.71,1.16-1.1,3.55-3.58,7.62-5.51,6.83-3.23,10.12-1.01,16.94-2.96,8.33-2.38,16.65-9.48,16.1-15.25-.38-3.97-4.78-5.24-4.24-8.05.65-3.33,7.22-3.54,13.98-5.93,11.08-3.91,24.37-14.27,24.99-24.99.24-4.12-1.19-11.82-2.54-16.94-.59-2.25-1.43-4.99-.42-8.05,1.28-3.9,4.78-5.93,5.79-6.57,14.12-8.88,49.96-64.36,64.1-62.47.68.09,3.43.6,5.93-.85,1.81-1.05,4.23-3.53,3.81-6.78-.38-2.96-2.91-4.86-5.08-5.51-3.69-1.1-6.73,1.32-7.2,1.69-1.89,1.51-2.05,3.05-3.39,5.51-2.29,4.2-7.72,5.09-9.63,6.5-3.36,2.46-2.76,2.21-10.85,7.52-11.03,7.24-8.13,7.81-43.9,34.7-11.15,8.38-13.5,9.58-16.1,10.59-14,5.44-33.21,1.5-42.07-1.42-2.93-2.27-6.87-5.87-10.11-11.18-5.01-8.21-5.34-15.55-6.39-21.29-2.2-12.01-8.12-19.96-17.03-31.93-22.62-30.38-60.63-38.52-62.27-38.85-36.58-7.33-65.44,7.51-76.64,14.37-7.46,4.57-29.72,18.63-41.51,46.84-3.37,8.06-10.14,24.86-6.39,46.3,1.08,6.2,4.35,23.45,19.16,38.32Z"/>
        <g>
          <path class="cls-3" d="m1583.74,460.83c.07,1.5-.02,3.86-1.06,6.39-2,4.82-6.19,7.04-13.31,11.18-4.47,2.6-8.79,5.47-13.31,7.98-16.03,8.93-15.46,9.55-21.82,12.77-7.84,3.98-13.68,5.81-23.95,9.05-11.42,3.6-39.99,12.59-50.03,7.98-.73-.34-3.32-1.64-6.39-1.06-3.5.66-5.62,3.4-6.39,4.26-5.44,6.12-19.61,4.16-26.61,3.19-21.86-3.02-36.25-17.09-38.32-19.16-14.81-14.87-18.08-32.12-19.16-38.32-3.75-21.44,3.02-38.25,6.39-46.3,11.79-28.21,34.05-42.27,41.51-46.84,11.2-6.86,40.06-21.7,76.64-14.37,1.64.33,39.65,8.48,62.27,38.85,8.91,11.97,14.83,19.92,17.03,31.93,1.05,5.74,1.37,13.08,6.39,21.29,3.24,5.31,7.18,8.91,10.11,11.18Z"/>
          <path class="cls-3" d="m1453.87,515.12c9.05-4.26,30.66-25.91,39.92-39.38,10.71-15.59,16.15-23.59,18.63-34.59,1.25-5.57,4.57-20.29-2.66-35.66-6.06-12.88-16.25-19.26-22.89-23.42-4.51-2.83-18.52-11.34-38.32-11.18-22.55.19-38.45,10.71-45.24,17.03-9.44,8.79-11.96,12.56-18.24,29.53-4,10.81-3.77,14.45,1.21,29.02,6.16,18.01,35.29,7.03,37.26,6.39,18.43-6.04,25.38-23.04,26.61-26.08,1.64-4.05,4.15-10.5,2.66-18.63-.46-2.52-2.2-11.24-10.11-17.03-6.58-4.82-13.12-4.68-20.02-1.99-10.24,4.01-17.8,10.68-11.57,21.81"/>
          <path class="cls-3" d="m1583.74,460.83c8.86,2.92,28.07,6.85,42.07,1.42,2.59-1.01,4.94-2.21,16.1-10.59,35.77-26.89,32.87-27.45,43.9-34.7,8.08-5.31,7.48-5.05,10.85-7.52,1.92-1.4,7.35-2.3,9.63-6.5,1.34-2.45,1.5-4,3.39-5.51.47-.38,3.51-2.79,7.2-1.69,2.17.65,4.7,2.54,5.08,5.51.42,3.24-2,5.73-3.81,6.78-2.5,1.44-5.25.94-5.93.85-14.14-1.89-49.97,53.59-64.1,62.47-1.01.63-4.51,2.67-5.79,6.57-1.01,3.06-.17,5.8.42,8.05,1.35,5.12,2.78,12.82,2.54,16.94-.62,10.72-13.91,21.08-24.99,24.99-6.76,2.39-13.33,2.6-13.98,5.93-.55,2.81,3.85,4.07,4.24,8.05.55,5.76-7.76,12.86-16.1,15.25-6.82,1.95-10.12-.27-16.94,2.96-4.07,1.93-6.47,4.41-7.62,5.51-14.27,13.49-48.82,12.8-52.1,12.71-12.55-.36-7.79-2.28-32.61-5.51-11.83-1.54-32.23-4.19-52.1-4.66-3.7-.09-11.89-.21-22.45-2.54-5.36-1.19-7.28-2.05-11.01-2.96-12.97-3.19-23.45-1.08-29.23-.42-27.82,3.16-65.06-14-68.19-32.61-.21-1.22-.51-3.12,0-5.51,4.84-22.74,71.05-24.44,77.93-24.57"/>
        </g>
      </g>
    </g>
    <g id="Layer_3" data-name="Layer 3">
      <path class="cls-39" d="m333.72,520.11c-8.9-6.05-12.94-12.72-13.77-16.97-.71-3.67.04-6.1-1.79-7.74-3.18-2.85-8.68,1.59-17.86,2.98-.82.12-19.56,2.69-30.36-8.93-3.87-4.17-5.31-8.64-5.95-10.71-1.94-6.24-1.45-11.99,2.38-26.19,4.6-17.06,6.9-25.59,11.31-32.14,3.21-4.77,10.22-11.32,20.62-16.54,7.33-3.68,12.53-4.42,16.81-4.62,2-4.06,7.14-13.45,10.95-19.4,3.52-5.5,10.85-16.79,23.17-28.28,15.25-14.23,20.81-12.59,31.03-22.39.56-.54,4.15-3.99,9.82-5.89,2.5-.84,6.33-2.12,9.03-.39,1.07.68,3.28,2.67,3.14,10.21-.16,8.3-3.04,16.72-14.14,34.17-5.33,8.39-8,12.58-11,16.1-5.41,6.35-14.81,15.51-29.85,22.78,5.25,2.56,8.57,13.8,9.82,17.28l-.15-.16c.39.6,1.03,1.4,2.03,2.03,2.97,1.88,6.76.77,10.14-.37,8.92-3.01,11.29-4.98,19.01-7.78.37-.13,3.66-1.19,10.25-3.3,5.22-1.67,9.89-3.16,10.57-3.38,11.99-3.8,32.07-6.68,37.71-7.46,19.41-2.68,34.32-3.35,39.28-3.53,13.06-.5,21.54-.82,33.39.39,12.63,1.3,22.88,2.44,34.96,8.25,10.23,4.92,16.98,10.87,19.64,13.35,7.18,6.71,11.28,13.13,14.14,17.67,2.22,3.53,6.22,9.97,9.43,19.25,1.99,5.75,4.28,14.35,4.71,25.14,3.32-.94,8.23-1.79,11.39.79,3.21,2.61,3.11,7.54,3.14,9.43.33,16.95,16.81,39.36,29.85,50.27,4.91,4.11,11.22,8.18,15.71,16.89,1.56,3.02,4.34,8.59,1.96,12.18-2.17,3.27-7.49,3.18-9.43,3.14-2.8-.05-9.46-.7-21.21-10.6-5.74-4.84-14.99-13.82-22.78-28.28-2.58-4.78-4.37-13.23-5.56-17.08-.12-.38-.23-.71-.33-.99l-4.04-3.04c-9.86,4.87-11.9,5.95-11.9,5.95-13.46,7.08-13.52,8.31-19.05,10.71-3.01,1.31-17.88,7.77-33.93,2.38-6.63-2.22-16.15-10.53-19.05-13.09l-55.95-6.55c-7.22,1.49-13,2.76-16.67,3.57-28.05,6.22-31.09,7.98-37.5,7.74-1.35-.05-5.3-.29-10.12,1.19-3.41,1.05-5.74,2.48-6.55,2.98-7.25,4.39-18.77,8.96-24.4,10.71-9.95,3.1-9.87,0-30.95,2.98-8.08,1.14-12.12,1.71-16.67,2.98-14.39,4-19.96,9.49-25.59,6.55-3.38-1.77-5.2-5.74-5.36-8.93-.27-5.51,4.4-9.58,7.14-11.9,8.12-6.88,17.14-8.24,23.81-9.52,8.97-1.73.58,2.06,15.55-3.86"/>
      <polygon class="cls-38" points="637.5 518.67 688.17 487.13 642.18 525.16 637.5 518.67 637.5 518.67"/>
      <polygon class="cls-38" points="629.34 506.23 668.79 485.24 633.71 512.93 629.34 506.23 629.34 506.23"/>
      <polygon class="cls-38" points="621.48 494.28 646.97 482.41 625.86 500.98 621.48 494.28 621.48 494.28"/>
      <g>
        <path class="cls-21" d="m316.22,400.15c-4.21.2-9.34.93-16.57,4.56-10.25,5.15-17.16,11.6-20.33,16.31-4.35,6.46-6.62,14.87-11.15,31.69-3.77,14-4.26,19.66-2.35,25.82.64,2.05,2.05,6.46,5.87,10.56,10.65,11.46,29.12,8.93,29.93,8.8,9.04-1.37,14.47-5.75,17.61-2.93,1.8,1.62,1.06,4.01,1.76,7.63.81,4.2,4.79,10.77,13.57,16.74"/>
        <path class="cls-21" d="m355.02,512.57c-14.76,5.83-26.95,8.86-35.8,10.56-6.58,1.27-15.47,2.61-23.47,9.39-2.71,2.29-7.31,6.31-7.04,11.74.15,3.14,1.95,7.06,5.28,8.8,5.56,2.9,11.05-2.51,25.24-6.46,4.49-1.25,8.47-1.81,16.43-2.93,20.78-2.94,20.71.12,30.52-2.93,5.56-1.73,16.92-6.24,24.06-10.56.8-.48,3.09-1.9,6.46-2.93,4.75-1.46,8.65-1.22,9.98-1.17,6.32.24,9.32-1.49,36.97-7.63,3.61-.8,9.32-2.05,16.43-3.52l55.16,6.46"/>
        <path class="cls-21" d="m515.24,521.37c2.86,2.52,12.24,10.72,18.78,12.91,15.82,5.31,30.48-1.06,33.45-2.35,5.45-2.37,5.51-3.59,18.78-10.56,0,0,2.02-1.06,11.74-5.87l3.99,3c.1.28.21.61.33.98,1.17,3.79,2.94,12.12,5.48,16.84,7.68,14.25,16.8,23.11,22.46,27.88,11.58,9.77,18.15,10.41,20.91,10.46,1.91.03,7.16.13,9.29-3.1,2.35-3.54-.4-9.02-1.94-12-4.43-8.59-10.65-12.6-15.49-16.65-12.85-10.76-29.11-32.86-29.43-49.57-.04-1.86.07-6.72-3.1-9.29-3.11-2.54-7.96-1.7-11.23-.77"/>
        <path class="cls-21" d="m357.47,423.85c.39.59,1.02,1.38,2,2,2.92,1.86,6.66.76,9.99-.36,8.8-2.97,11.13-4.91,18.75-7.67.36-.13,3.61-1.17,10.1-3.25,5.14-1.65,9.76-3.12,10.42-3.33,11.83-3.74,31.62-6.59,37.18-7.36,19.14-2.64,33.84-3.3,38.73-3.49,12.88-.49,21.24-.81,32.92.39,12.45,1.28,22.56,2.41,34.47,8.13,10.08,4.85,16.74,10.72,19.36,13.17,7.08,6.61,11.12,12.94,13.94,17.43,2.19,3.48,6.13,9.83,9.29,18.98,1.96,5.67,4.22,14.15,4.65,24.78"/>
        <path class="cls-21" d="m316.22,400.15c1.97-4,7.04-13.26,10.8-19.13,3.48-5.43,10.7-16.55,22.85-27.88,15.04-14.03,20.52-12.41,30.59-22.07.55-.53,4.09-3.94,9.68-5.81,2.46-.82,6.24-2.09,8.91-.39,1.06.67,3.24,2.64,3.1,10.07-.15,8.18-3,16.48-13.94,33.69-5.26,8.27-7.89,12.41-10.84,15.88-5.34,6.26-14.6,15.3-29.43,22.46"/>
        <path class="cls-21" d="m357.61,424.01c-1.24-3.43-4.51-14.52-9.68-17.04"/>
      </g>
    </g>
    <circle class="cls-26" cx="1261.26" cy="838.97" r="30.37"/>
    <circle class="cls-26" cx="985.79" cy="819.52" r="30.37"/>
    <rect class="cls-54" x="1219.71" y="819.6" width="82.64" height="39.25" rx="15.59" ry="15.59"/>
    <rect class="cls-47" x="946.9" y="800.03" width="80.91" height="39.25" rx="15.59" ry="15.59" transform="translate(542.11 -383.87) rotate(30)"/>
    <g>
      <path class="cls-34" d="m1493.9,762.13c-6.73-8.16-4.47-21.15,5.55-25.76,9.18-4.32,20.77.31,24.36,9.71-5.09.72-10.78.65-15.54,1.93-7.58,1.75-9.92,8.42-14.38,14.13h0Z"/>
      <path class="cls-48" d="m1492.67,759.32c-6.73-8.16-4.47-21.15,5.55-25.76,9.18-4.32,20.77.31,24.36,9.71-5.09.72-10.78.65-15.54,1.93-7.58,1.75-9.92,8.42-14.38,14.13h0Z"/>
    </g>
    <g>
      <path class="cls-18" d="m157.39,395.04c-7.03,16.39-23,28.15-42,28.9-26.34,1.04-48.53-19.47-49.56-45.81-1.04-26.34,19.47-48.53,45.81-49.56,18.42-.73,34.81,9.09,43.35,24.06"/>
      <circle class="cls-19" cx="133.62" cy="375.64" r="37.64" transform="translate(-86.42 43.16) rotate(-13.92)"/>
      <text class="cls-7" transform="translate(74.27 387.25)"><tspan class="cls-32" x="0" y="0">S</tspan><tspan class="cls-33" x="21.74" y="0">H</tspan></text>
      <text class="cls-29" transform="translate(32.72 410.52)"><tspan x="0" y="0">R</tspan></text>
      <rect class="cls-25" x="58.32" y="386.16" width="13.22" height="1.96" transform="translate(-184.87 84.33) rotate(-30)"/>
    </g>
    <g>
      <path class="cls-15" d="m153.47,374.45c57.49,27.47,85.68,81.16,76.56,143.65-4.62,31.65-19.7,59.19-41.22,79.63"/>
      <polygon class="cls-41" points="175.26 609.04 187.65 585.2 189.73 596.77 200.8 600.7 175.26 609.04"/>
    </g>
    <path class="cls-15" d="m604.4,295.98c54.2,42.63,88.68,109.1,87.8,183.38-1.29,108.92-78.17,199.24-180.18,221.66"/>
    <path class="cls-15" d="m386.97,693.66c-90.74-31.57-155.37-118.37-154.18-219.73.85-72.15,34.87-136.13,87.39-177.63"/>
    <g>
      <path class="cls-15" d="m1419.46,704.21c-75.55-37.62-127.45-115.63-127.45-205.76,0-95.33,58.06-177.09,140.76-211.86"/>
      <polygon class="cls-41" points="1417.03 692.78 1416.69 702.84 1409.23 709.57 1433.03 710.42 1417.03 692.78"/>
    </g>
    <g>
      <path class="cls-15" d="m1654.92,311.25c58.44,41.65,96.55,109.98,96.55,187.2,0,89.84-51.57,167.63-126.72,205.39"/>
      <polygon class="cls-41" points="1655.46 322.97 1657.4 313.1 1665.85 307.64 1642.49 302.99 1655.46 322.97"/>
    </g>
    <g>
      <circle class="cls-31" cx="806.71" cy="487.56" r="29.77"/>
      <circle class="cls-31" cx="1207.27" cy="480.4" r="29.77"/>
      <circle class="cls-26" cx="1008.72" cy="479.05" r="20.62"/>
      <g>
        <text class="cls-6" transform="translate(934.04 551.17)"><tspan x="0" y="0">O</tspan></text>
        <text class="cls-6" transform="translate(893.96 481.76)"><tspan x="0" y="0">O</tspan></text>
        <text class="cls-6" transform="translate(1054.25 435.49)"><tspan x="0" y="0">O</tspan></text>
        <text class="cls-6" transform="translate(1094.32 504.89)"><tspan x="0" y="0">O</tspan></text>
        <polygon class="cls-25" points="946.52 494.42 946.51 492.19 986.6 468.99 986.6 471.22 946.52 494.42"/>
        <polygon class="cls-25" points="986.6 471.22 986.6 468.99 1027.15 492.43 1026.19 494.1 986.6 471.22"/>
        <rect class="cls-25" x="1007.75" y="452.55" width="1.93" height="41.46" transform="translate(94.48 1110.21) rotate(-60)"/>
        <path class="cls-22" d="m1026.67,493.27c.89,1.54,2.77,2.11,4.21,1.28,1.44-.83,1.88-2.75,1-4.29-.89-1.54-.44-3.46,1-4.29,1.44-.83,3.32-.26,4.21,1.28.89,1.54,2.77,2.11,4.21,1.28,1.44-.83,1.88-2.75,1-4.29-.89-1.54-.44-3.46,1-4.29,1.44-.83,3.32-.26,4.21,1.28.89,1.54,2.77,2.11,4.21,1.28,1.44-.83,1.88-2.75,1-4.29-.89-1.54-.44-3.46,1-4.29,1.44-.83,3.32-.26,4.21,1.28.89,1.54,2.77,2.11,4.21,1.28,1.44-.83,1.88-2.75,1-4.29-.89-1.54-.44-3.46,1-4.29"/>
        <rect class="cls-25" x="949.73" y="490.86" width="1.93" height="31.83"/>
        <rect class="cls-25" x="941.4" y="490.86" width="1.93" height="31.83"/>
        <polygon class="cls-25" points="946.51 492.19 946.52 494.42 920.52 479.37 921.49 477.7 946.51 492.19"/>
        <rect class="cls-25" x="1061.62" y="441.24" width="1.93" height="31.3"/>
        <rect class="cls-25" x="1069.95" y="441.24" width="1.93" height="31.3"/>
        <rect class="cls-25" x="1078.6" y="462.73" width="1.93" height="29.6" transform="translate(126.22 1173.69) rotate(-60)"/>
        <polygon class="cls-25" points="866.4 492.19 866.4 494.42 826.31 471.22 826.31 468.99 866.4 492.19"/>
        <polygon class="cls-25" points="826.31 468.99 826.31 471.22 786.72 494.1 785.76 492.43 826.31 468.99"/>
        <rect class="cls-25" x="787.63" y="489.15" width="41.46" height="1.93" transform="translate(-136.76 469.85) rotate(-30)"/>
        <polygon class="cls-25" points="891.33 477.75 892.29 479.42 866.4 494.42 866.4 492.19 891.33 477.75"/>
        <polygon class="cls-25" points="1146.88 471.21 1146.88 468.98 1186.96 492.18 1186.96 494.41 1146.88 471.21"/>
        <polygon class="cls-25" points="1186.96 494.41 1186.96 492.18 1226.55 469.3 1227.52 470.97 1186.96 494.41"/>
        <rect class="cls-25" x="1184.18" y="472.32" width="41.46" height="1.93" transform="translate(-75.21 665.89) rotate(-30)"/>
        <polygon class="cls-25" points="1121.61 485.84 1120.64 484.17 1146.88 468.98 1146.88 471.21 1121.61 485.84"/>
      </g>
    </g>
    <g>
      <path class="cls-15" d="m779.31,603.39c-36.61,4.21-81.68-38.52-88.4-96.85,0-.06-.01-.12-.02-.18"/>
      <polygon class="cls-41" points="689.94 488.73 701.63 512.92 691.12 507.67 681.35 514.19 689.94 488.73"/>
    </g>
    <text class="cls-42" transform="translate(425.14 160.26)"><tspan x="0" y="0">or</tspan></text>
    <g>
      <path class="cls-15" d="m235.02,508.61c1.99,16.04,5.58,31.49,10.61,46.2"/>
      <polygon class="cls-41" points="232.39 550.8 244.45 551.3 253.18 542.97 252.07 571.53 232.39 550.8"/>
    </g>
    <g>
      <g>
        <path class="cls-18" d="m362.13,221.95c-7.03,16.39-23,28.15-42,28.9-26.34,1.04-48.53-19.47-49.56-45.81-1.04-26.34,19.47-48.53,45.81-49.56,18.42-.73,34.81,9.09,43.35,24.06"/>
        <circle class="cls-19" cx="338.35" cy="202.55" r="37.64" transform="translate(-38.78 87.32) rotate(-13.92)"/>
      </g>
      <circle class="cls-45" cx="338.55" cy="203.38" r="38.9"/>
      <g>
        <polygon class="cls-12" points="404.18 222.51 404.17 224.77 363.52 201.25 363.52 198.99 404.18 222.51"/>
        <polygon class="cls-8" points="363.52 198.99 363.52 201.25 322.87 224.77 322.87 222.51 363.52 198.99"/>
        <text class="cls-29" transform="translate(271.38 211.92)"><tspan x="0" y="0">S</tspan></text>
        <polygon class="cls-25" points="322.87 222.51 322.87 224.77 296.17 209.31 297.15 207.62 322.87 222.51"/>
        <text class="cls-29" transform="translate(229.84 235.19)"><tspan x="0" y="0">R</tspan></text>
        <rect class="cls-25" x="255.43" y="210.83" width="13.22" height="1.96" transform="translate(-70.8 159.4) rotate(-30)"/>
        <circle class="cls-11" cx="363.44" cy="191.1" r="2.72" transform="translate(-4.1 374.2) rotate(-54.22)"/>
      </g>
      <path class="cls-2" d="m420.95,203.47c-1.87-1.65-4.65-1.57-6.19.19s-1.27,4.51.6,6.16,2.14,4.41.6,6.16-4.32,1.84-6.19.19-4.65-1.57-6.19.19-1.27,4.51.6,6.16,2.14,4.41.6,6.16-4.32,1.83-6.19.19-4.65-1.57-6.19.19c-1.54,1.75-1.27,4.51.6,6.16s2.14,4.41.6,6.16-4.32,1.84-6.19.19-4.65-1.57-6.19.19-1.27,4.51.6,6.16,2.14,4.41.6,6.16"/>
    </g>
    <g>
      <g>
        <path class="cls-18" d="m83.58,690.34c7.03,16.39,23,28.15,42,28.9,26.34,1.04,48.53-19.47,49.56-45.81,1.04-26.34-19.47-48.53-45.81-49.56-18.42-.73-34.81,9.09-43.35,24.06"/>
        <circle class="cls-19" cx="107.35" cy="670.95" r="37.64" transform="translate(-569.72 613.79) rotate(-76.08)"/>
      </g>
      <circle class="cls-45" cx="107.71" cy="670.08" r="38.9"/>
      <circle class="cls-1" cx="106.72" cy="669.51" r="34.85"/>
      <g>
        <text class="cls-27" transform="translate(148.05 678.18)"><tspan x="0" y="0">S</tspan></text>
        <polygon class="cls-25" points="117.96 690.93 116.96 690.37 116.97 689.23 143.76 673.72 144.78 675.49 117.96 690.93"/>
        <text class="cls-27" transform="translate(189.54 702.47)"><tspan x="0" y="0">R</tspan></text>
        <rect class="cls-25" x="178.41" y="671.68" width="2.04" height="11.53" transform="translate(-496.97 494.12) rotate(-60)"/>
        <polygon class="cls-8" points="116.97 689.23 116.96 690.37 115.96 690.95 74.53 667.03 74.53 665.87 75.51 665.29 116.97 689.23"/>
        <polygon class="cls-25" points="73.54 665.29 74.53 665.87 74.53 667.03 44.31 684.49 43.3 682.73 73.54 665.29"/>
        <text class="cls-5" transform="translate(62.24 628.98)"><tspan x="0" y="0">H</tspan></text>
        <polygon class="cls-13" points="75.51 665.29 74.53 665.87 73.54 665.29 73.51 634.3 75.55 634.3 75.51 665.29"/>
        <polygon class="cls-25" points="115.96 690.95 116.96 690.37 117.96 690.93 117.98 734.82 115.94 734.82 115.96 690.95"/>
        <path class="cls-20" d="m46.25,705.53c1.63-.94,2.23-2.94,1.36-4.46-.88-1.52-2.91-1.99-4.54-1.05-1.63.94-3.66.47-4.54-1.05-.88-1.52-.27-3.52,1.36-4.46,1.63-.94,2.23-2.94,1.36-4.46-.88-1.52-2.91-1.99-4.54-1.05s-3.66.47-4.54-1.05c-.88-1.52-.27-3.52,1.36-4.46,1.63-.94,2.23-2.94,1.36-4.46-.88-1.52-2.91-1.99-4.54-1.05-1.63.94-3.66.47-4.54-1.05-.88-1.52-.27-3.52,1.36-4.46,1.63-.94,2.23-2.94,1.36-4.46-.88-1.52-2.91-1.99-4.54-1.05-1.63.94-3.66.47-4.54-1.05"/>
        <path class="cls-20" d="m142.04,743.67c0-1.88-1.43-3.4-3.18-3.4s-3.18,1.52-3.18,3.4-1.43,3.4-3.18,3.4-3.18-1.52-3.18-3.4-1.43-3.4-3.18-3.4-3.18,1.52-3.18,3.4-1.43,3.4-3.18,3.4-3.18-1.52-3.18-3.4-1.43-3.4-3.18-3.4-3.18,1.52-3.18,3.4-1.43,3.4-3.18,3.4-3.18-1.52-3.18-3.4-1.43-3.4-3.18-3.4-3.18,1.52-3.18,3.4-1.43,3.4-3.18,3.4"/>
      </g>
    </g>
    <text class="cls-44" transform="translate(312.34 478.79)"><tspan x="0" y="0">Step G</tspan><tspan class="cls-50" x="148.61" y="0">r</tspan><tspan x="166.35" y="0">owth</tspan></text>
    <text class="cls-44" transform="translate(1389.56 495.94)"><tspan x="0" y="0">Chain G</tspan><tspan class="cls-50" x="168.91" y="0">r</tspan><tspan x="186.65" y="0">owth</tspan></text>
    <g>
      <circle class="cls-17" cx="1545.98" cy="725.39" r="33.29"/>
      <circle class="cls-17" cx="1480.23" cy="786.79" r="33.29" transform="translate(466.49 2121.88) rotate(-80.78)"/>
      <g>
        <text class="cls-28" transform="translate(1381.26 790.19) rotate(-9.25)"><tspan x="0" y="0">O</tspan></text>
        <text class="cls-28" transform="translate(1561.72 811.87) rotate(-9.25)"><tspan x="0" y="0">O</tspan></text>
        <polygon class="cls-25" points="1430.73 744.39 1432.62 742.85 1478.68 760.29 1478.87 761.47 1477.95 762.22 1430.73 744.39"/>
        <polygon class="cls-25" points="1477.95 762.22 1478.87 761.47 1479.98 761.89 1487.89 810.47 1486.97 811.22 1485.86 810.81 1477.95 762.22"/>
        <polygon class="cls-25" points="1487.16 812.39 1486.97 811.22 1487.89 810.47 1535.1 828.29 1533.21 829.84 1487.16 812.39"/>
        <rect class="cls-25" x="1405.68" y="755.45" width="34.88" height="2.11" transform="translate(-157.56 1071.19) rotate(-39.25)"/>
        <rect class="cls-25" x="1399.94" y="748.42" width="34.88" height="2.11" transform="translate(-154.41 1065.97) rotate(-39.25)"/>
        <polygon class="cls-25" points="1432.62 742.85 1430.73 744.39 1426.69 719.24 1428.77 718.9 1432.62 742.85"/>
        <rect class="cls-25" x="1525.31" y="815.21" width="34.63" height="2.11" transform="translate(-168.41 1160.3) rotate(-39.25)"/>
        <rect class="cls-25" x="1531.05" y="822.24" width="34.63" height="2.11" transform="translate(-171.55 1165.53) rotate(-39.25)"/>
        <polygon class="cls-25" points="1533.21 829.84 1535.1 828.29 1540.34 860.71 1538.26 861.05 1533.21 829.84"/>
        <text class="cls-28" transform="translate(1421.61 860.01) rotate(-9.25)"><tspan x="0" y="0">R&apos;</tspan></text>
        <polygon class="cls-25" points="1485.86 810.81 1486.97 811.22 1487.16 812.39 1457.35 836.79 1456.01 835.16 1485.86 810.81"/>
        <text class="cls-28" transform="translate(1584.54 680.47) rotate(-9.25)"><tspan x="0" y="0">O</tspan></text>
        <text class="cls-28" transform="translate(1537.4 662.6) rotate(-9.25)"><tspan x="0" y="0">O</tspan></text>
        <polygon class="cls-25" points="1603.89 714.29 1604.29 716.69 1565.25 748.66 1564.85 746.25 1603.89 714.29"/>
        <polygon class="cls-25" points="1564.85 746.25 1565.25 748.66 1518.09 730.74 1517.9 729.57 1518.82 728.82 1564.85 746.25"/>
        <polygon class="cls-25" points="1518.82 728.82 1517.9 729.57 1516.79 729.15 1508.87 680.55 1510.76 679.01 1518.82 728.82"/>
        <rect class="cls-25" x="1596.22" y="684.86" width="2.11" height="34.21" transform="translate(-92.1 266.01) rotate(-9.25)"/>
        <rect class="cls-25" x="1605.18" y="683.4" width="2.11" height="34.21" transform="translate(-91.75 267.43) rotate(-9.25)"/>
        <polygon class="cls-25" points="1604.29 716.69 1603.89 714.29 1634.47 725.91 1633.72 727.88 1604.29 716.69"/>
        <rect class="cls-25" x="1500.99" y="665.95" width="34.63" height="2.11" transform="translate(-79.45 1111.23) rotate(-39.25)"/>
        <rect class="cls-25" x="1506.73" y="672.98" width="34.63" height="2.11" transform="translate(-82.59 1116.46) rotate(-39.25)"/>
        <polygon class="cls-25" points="1510.76 679.01 1508.87 680.55 1479.38 669.42 1480.12 667.45 1510.76 679.01"/>
        <polygon class="cls-9" points="1516.79 729.15 1517.9 729.57 1518.09 730.74 1479.98 761.89 1478.87 761.47 1478.68 760.29 1516.79 729.15"/>
        <circle class="cls-10" cx="1566.53" cy="757.06" r="2.93" transform="translate(-44.44 99.84) rotate(-3.6)"/>
      </g>
      <path class="cls-22" d="m1509.29,867.58c-.4-2.2.94-4.28,3-4.66,2.05-.37,4.05,1.1,4.45,3.3.4,2.2,2.39,3.68,4.45,3.3,2.05-.37,3.4-2.46,3-4.66-.4-2.2.94-4.28,3-4.66,2.05-.37,4.05,1.1,4.45,3.3.4,2.2,2.39,3.68,4.45,3.3,2.05-.37,3.4-2.46,3-4.66-.4-2.2.94-4.28,3-4.66,2.05-.37,4.05,1.1,4.45,3.3.4,2.2,2.39,3.68,4.45,3.3,2.05-.37,3.4-2.46,3-4.66-.4-2.2.94-4.28,3-4.66,2.05-.37,4.05,1.1,4.45,3.3.4,2.2,2.39,3.68,4.45,3.3"/>
      <path class="cls-22" d="m1456.36,717.87c.27,2.22-1.19,4.22-3.26,4.47-2.07.25-3.97-1.34-4.25-3.56-.27-2.22-2.17-3.81-4.25-3.56-2.07.25-3.53,2.26-3.26,4.47.27,2.22-1.19,4.22-3.26,4.47-2.07.25-3.97-1.34-4.25-3.56-.27-2.22-2.17-3.81-4.25-3.56-2.07.25-3.53,2.26-3.26,4.47.27,2.22-1.19,4.22-3.26,4.47-2.07.25-3.97-1.34-4.25-3.56-.27-2.22-2.17-3.81-4.25-3.56-2.07.25-3.53,2.26-3.26,4.47.27,2.22-1.19,4.22-3.26,4.47-2.07.25-3.97-1.34-4.25-3.56-.27-2.22-2.17-3.81-4.25-3.56"/>
      <path class="cls-22" d="m1623.82,758.62c-1.96-1.08-2.73-3.43-1.72-5.26,1.01-1.83,3.41-2.44,5.37-1.37,1.96,1.08,4.36.46,5.37-1.37,1.01-1.83.23-4.19-1.72-5.26-1.96-1.08-2.73-3.43-1.72-5.26,1.01-1.83,3.41-2.44,5.37-1.37,1.96,1.08,4.36.46,5.37-1.37,1.01-1.83.23-4.19-1.72-5.26-1.96-1.08-2.73-3.43-1.72-5.26,1.01-1.83,3.41-2.44,5.37-1.37,1.96,1.08,4.36.46,5.37-1.37,1.01-1.83.23-4.19-1.72-5.26-1.96-1.08-2.73-3.43-1.72-5.26,1.01-1.83,3.41-2.44,5.37-1.37,1.96,1.08,4.36.46,5.37-1.37"/>
      <path class="cls-22" d="m1465.1,692.7c-2.07-.83-3.12-3.08-2.34-5.02.78-1.94,3.09-2.83,5.17-2,2.07.83,4.39-.06,5.17-2,.78-1.94-.27-4.19-2.34-5.02-2.07-.83-3.12-3.08-2.34-5.02.78-1.94,3.09-2.83,5.17-2,2.07.83,4.39-.06,5.17-2,.78-1.94-.27-4.19-2.34-5.02-2.07-.83-3.12-3.08-2.34-5.02.78-1.94,3.09-2.83,5.17-2,2.07.83,4.39-.06,5.17-2,.78-1.94-.27-4.19-2.34-5.02-2.07-.83-3.12-3.08-2.34-5.02.78-1.94,3.09-2.83,5.17-2,2.07.83,4.39-.06,5.17-2"/>
    </g>
    <g>
      <circle class="cls-17" cx="1534.94" cy="259.21" r="33.29"/>
      <g>
        <text class="cls-30" transform="translate(1459.46 324.94)"><tspan x="0" y="0">O</tspan></text>
        <text class="cls-30" transform="translate(1589.91 199.41)"><tspan x="0" y="0">O</tspan></text>
        <polygon class="cls-25" points="1473.01 263.35 1473.01 260.94 1516.5 235.77 1516.5 238.18 1473.01 263.35"/>
        <polygon class="cls-8" points="1516.5 238.18 1516.5 235.77 1559.99 260.93 1559.99 262.11 1558.98 262.71 1516.5 238.18"/>
        <polygon class="cls-25" points="1560.99 262.71 1559.99 262.11 1559.99 260.93 1603.48 235.76 1603.48 238.18 1560.99 262.71"/>
        <rect class="cls-25" x="1476.49" y="259.5" width="2.09" height="34.36"/>
        <rect class="cls-25" x="1467.46" y="259.5" width="2.09" height="34.36"/>
        <polygon class="cls-25" points="1473.01 260.94 1473.01 263.35 1444.73 246.98 1445.77 245.17 1473.01 260.94"/>
        <rect class="cls-25" x="1597.9" y="205.48" width="2.09" height="34.14"/>
        <rect class="cls-25" x="1606.94" y="205.48" width="2.09" height="34.14"/>
        <polygon class="cls-25" points="1603.48 238.18 1603.48 235.76 1631.73 252.11 1630.69 253.93 1603.48 238.18"/>
        <text class="cls-30" transform="translate(1548.36 324.93)"><tspan x="0" y="0">R’</tspan></text>
        <polygon class="cls-25" points="1558.98 262.71 1559.99 262.11 1560.99 262.71 1561.03 293.87 1558.94 293.87 1558.98 262.71"/>
        <path class="cls-11" d="m1519.32,227.33c0,1.6-1.3,2.91-2.91,2.91s-2.91-1.3-2.91-2.91,1.3-2.91,2.91-2.91,2.91,1.3,2.91,2.91Z"/>
      </g>
      <path class="cls-2" d="m1648.93,228.15c-1.87-1.65-4.65-1.57-6.19.19s-1.27,4.51.6,6.16,2.14,4.41.6,6.16c-1.54,1.75-4.32,1.84-6.19.19s-4.65-1.57-6.19.19c-1.54,1.75-1.27,4.51.6,6.16s2.14,4.41.6,6.16c-1.54,1.75-4.32,1.83-6.19.19-1.87-1.65-4.65-1.57-6.19.19-1.54,1.75-1.27,4.51.6,6.16,1.87,1.65,2.14,4.41.6,6.16-1.54,1.75-4.32,1.84-6.19.19s-4.65-1.57-6.19.19-1.27,4.51.6,6.16c1.87,1.65,2.14,4.41.6,6.16"/>
      <path class="cls-2" d="m1420.05,269.56c1.87,1.65,4.65,1.57,6.19-.19,1.54-1.75,1.27-4.51-.6-6.16s-2.14-4.41-.6-6.16c1.54-1.75,4.32-1.84,6.19-.19,1.87,1.65,4.65,1.57,6.19-.19s1.27-4.51-.6-6.16c-1.87-1.65-2.14-4.41-.6-6.16s4.32-1.83,6.19-.19,4.65,1.57,6.19-.19,1.27-4.51-.6-6.16-2.14-4.41-.6-6.16c1.54-1.75,4.32-1.84,6.19-.19,1.87,1.65,4.65,1.57,6.19-.19,1.54-1.75,1.27-4.51-.6-6.16s-2.14-4.41-.6-6.16"/>
    </g>
    <g>
      <path class="cls-16" d="m1503.3,215.79c-1.17-1.59-2.38-3.18-3.65-4.76"/>
      <path class="cls-23" d="m1491.92,202.06c-63.22-68.32-217.49-127.55-402.17-146.84-169.5-17.7-320.89,2.81-403.37,47.87"/>
      <path class="cls-16" d="m681.21,106.01c-1.75,1.01-3.47,2.04-5.15,3.08"/>
      <polygon class="cls-40" points="1507.03 204.91 1501.47 213.29 1491.58 215.11 1511.4 228.32 1507.03 204.91"/>
    </g>
    <text class="cls-36" transform="translate(198.37 829.28)"><tspan x="0" y="0">Ini</tspan><tspan class="cls-57" x="44.48" y="0">t</tspan><tspan x="60.08" y="0">ia</tspan><tspan class="cls-56" x="91.96" y="0">t</tspan><tspan class="cls-55" x="107.56" y="0">ion</tspan></text>
    <g>
      <path class="cls-14" d="m1657.57,284.83c11.83,3.16,29.92,5.49,49.77.17,36.28-9.72,47.93-44.74,48.66-47.07"/>
      <polygon class="cls-35" points="1661.13 295.63 1660.58 285.59 1667.43 278.22 1643.65 279.45 1661.13 295.63"/>
    </g>
    <text class="cls-36" transform="translate(1634.64 208.87)"><tspan x="0" y="0">Ini</tspan><tspan class="cls-56" x="44.48" y="0">t</tspan><tspan x="60.08" y="0">ia</tspan><tspan class="cls-56" x="91.96" y="0">t</tspan><tspan x="107.56" y="0">ion</tspan></text>
    <g>
      <path class="cls-15" d="m1205.03,385.12c36.67-3.6,81.07,40.39,86.86,99.45.01.12.02.24.04.37"/>
      <polygon class="cls-41" points="1292.58 502.57 1281.3 478.18 1291.72 483.62 1301.6 477.26 1292.58 502.57"/>
    </g>
    <g>
      <path class="cls-14" d="m366.48,716.98c-12.25,0-30.32,2.44-48.12,12.71-32.53,18.78-34.72,55.62-34.82,58.06"/>
      <polygon class="cls-35" points="360.25 707.47 363.38 717.03 358.66 725.91 381.32 718.57 360.25 707.47"/>
    </g>
    <g>
      <g>
        <path class="cls-18" d="m602.48,165.44c17.83-.11,35,9.82,43.28,26.94,11.48,23.72,1.56,52.26-22.16,63.75-23.72,11.48-52.26,1.56-63.75-22.16-8.03-16.59-5.59-35.54,4.72-49.36"/>
        <circle class="cls-19" cx="594.21" cy="194.98" r="37.64" transform="translate(4.06 401.92) rotate(-37.49)"/>
      </g>
      <circle class="cls-17" cx="593.82" cy="195.14" r="33.29"/>
      <g>
        <text class="cls-30" transform="translate(518.34 260.86)"><tspan x="0" y="0">O</tspan></text>
        <text class="cls-30" transform="translate(648.79 135.34)"><tspan x="0" y="0">O</tspan></text>
        <polygon class="cls-25" points="531.89 199.28 531.88 196.86 575.38 171.69 575.38 174.11 531.89 199.28"/>
        <polygon class="cls-8" points="575.38 174.11 575.38 171.69 618.86 196.86 618.86 198.03 617.86 198.63 575.38 174.11"/>
        <polygon class="cls-25" points="619.87 198.63 618.86 198.03 618.86 196.86 662.36 171.68 662.36 174.1 619.87 198.63"/>
        <rect class="cls-25" x="535.37" y="195.43" width="2.09" height="34.36"/>
        <rect class="cls-25" x="526.34" y="195.43" width="2.09" height="34.36"/>
        <polygon class="cls-25" points="531.88 196.86 531.89 199.28 503.61 182.91 504.65 181.1 531.88 196.86"/>
        <rect class="cls-25" x="656.78" y="141.4" width="2.09" height="34.14"/>
        <rect class="cls-25" x="665.82" y="141.4" width="2.09" height="34.14"/>
        <polygon class="cls-25" points="662.36 174.1 662.36 171.68 690.61 188.04 689.56 189.85 662.36 174.1"/>
        <text class="cls-30" transform="translate(607.24 260.85)"><tspan x="0" y="0">S</tspan></text>
        <polygon class="cls-25" points="617.86 198.63 618.86 198.03 619.87 198.63 619.91 229.8 617.82 229.8 617.86 198.63"/>
        <text class="cls-30" transform="translate(631.38 304.12)"><tspan x="0" y="0">R</tspan></text>
        <rect class="cls-25" x="629.7" y="263.95" width="2.09" height="9.77" transform="translate(-49.91 351.4) rotate(-30)"/>
        <path class="cls-11" d="m578.2,163.25c0,1.6-1.3,2.91-2.91,2.91s-2.91-1.3-2.91-2.91,1.3-2.91,2.91-2.91,2.91,1.3,2.91,2.91Z"/>
      </g>
      <path class="cls-2" d="m707.81,164.07c-1.87-1.65-4.65-1.57-6.19.19s-1.27,4.51.6,6.16,2.14,4.41.6,6.16-4.32,1.84-6.19.19c-1.87-1.65-4.65-1.57-6.19.19s-1.27,4.51.6,6.16,2.14,4.41.6,6.16-4.32,1.83-6.19.19-4.65-1.57-6.19.19-1.27,4.51.6,6.16,2.14,4.41.6,6.16-4.32,1.84-6.19.19-4.65-1.57-6.19.19-1.27,4.51.6,6.16,2.14,4.41.6,6.16"/>
      <path class="cls-2" d="m478.93,205.48c1.87,1.65,4.65,1.57,6.19-.19s1.27-4.51-.6-6.16-2.14-4.41-.6-6.16,4.32-1.84,6.19-.19,4.65,1.57,6.19-.19,1.27-4.51-.6-6.16-2.14-4.41-.6-6.16,4.32-1.83,6.19-.19,4.65,1.57,6.19-.19,1.27-4.51-.6-6.16-2.14-4.41-.6-6.16,4.32-1.84,6.19-.19,4.65,1.57,6.19-.19,1.27-4.51-.6-6.16-2.14-4.41-.6-6.16"/>
    </g>
    <g>
      <path class="cls-18" d="m510.08,760.13c-7.03,16.39-23,28.15-42,28.9-26.34,1.04-48.53-19.47-49.56-45.81-1.04-26.34,19.47-48.53,45.81-49.56,18.42-.73,34.81,9.09,43.35,24.06"/>
      <circle class="cls-19" cx="486.31" cy="740.74" r="37.64" transform="translate(-163.87 138.69) rotate(-13.92)"/>
      <text class="cls-29" transform="translate(426.96 752.35)"><tspan x="0" y="0">S</tspan></text>
      <text class="cls-29" transform="translate(385.42 775.62)"><tspan x="0" y="0">R</tspan></text>
      <rect class="cls-25" x="411.01" y="751.26" width="13.22" height="1.96" transform="translate(-320.17 309.6) rotate(-30)"/>
      <circle class="cls-4" cx="454.9" cy="728.5" r="2.72" transform="translate(-402.08 671.57) rotate(-54.22)"/>
    </g>
    <text class="cls-51" transform="translate(220.31 283.88)"><tspan x="0" y="0">p</tspan><tspan class="cls-49" x="25.2" y="0">r</tspan><tspan x="40.04" y="0">efe</tspan><tspan class="cls-49" x="100.04" y="0">r</tspan><tspan x="114.88" y="0">en</tspan><tspan class="cls-57" x="160.8" y="0">t</tspan><tspan x="176.4" y="0">ial</tspan></text>
    <text class="cls-52" transform="translate(955.68 761.49)"><tspan class="cls-46" x="0" y="0">E</tspan><tspan class="cls-41" x="30.77" y="0">/</tspan><tspan class="cls-53" x="50.36" y="0">Z</tspan><tspan class="cls-41" x="81.13" y="0" xml:space="preserve"> dependent</tspan></text>
    <g>
      <polygon class="cls-25" points="909.67 837.7 909.67 834.9 960.14 805.7 960.14 808.5 909.67 837.7"/>
      <polygon class="cls-25" points="960.14 808.5 960.14 805.7 1011.19 835.21 1009.98 837.31 960.14 808.5"/>
      <rect class="cls-25" x="986.77" y="785" width="2.43" height="52.2" transform="translate(-208.44 1261.16) rotate(-60)"/>
      <polygon class="cls-25" points="1010.97 837.67 1010.97 834.87 1061.44 805.66 1061.44 808.47 1010.97 837.67"/>
      <path class="cls-22" d="m1084.07,828.05c-1.64,1.51-4.13,1.49-5.54-.05-1.41-1.54-1.23-4.01.42-5.52,1.64-1.51,1.83-3.99.42-5.52-1.41-1.54-3.89-1.56-5.54-.05-1.64,1.51-4.12,1.49-5.54-.05-1.41-1.54-1.23-4.01.42-5.52,1.64-1.51,1.83-3.99.42-5.52-1.41-1.54-3.89-1.56-5.54-.05-1.64,1.51-4.12,1.49-5.54-.05-1.41-1.54-1.23-4.01.42-5.52,1.64-1.51,1.83-3.99.42-5.52-1.41-1.54-3.89-1.56-5.54-.05-1.64,1.51-4.13,1.49-5.54-.05-1.41-1.54-1.23-4.01.42-5.52,1.64-1.51,1.83-3.99.42-5.52"/>
      <path class="cls-22" d="m921.76,859.73c-1.79,1.33-4.26,1.05-5.5-.63-1.24-1.68-.8-4.12.99-5.45,1.79-1.33,2.24-3.77,1-5.45-1.24-1.68-3.71-1.96-5.5-.63-1.79,1.33-4.26,1.05-5.5-.63-1.24-1.68-.8-4.12,1-5.45,1.79-1.33,2.24-3.77,1-5.45-1.24-1.68-3.71-1.96-5.5-.63-1.79,1.33-4.26,1.05-5.5-.63-1.24-1.68-.8-4.12.99-5.45,1.79-1.33,2.24-3.77,1-5.45-1.24-1.68-3.71-1.96-5.5-.63-1.79,1.33-4.26,1.05-5.5-.63-1.24-1.68-.8-4.12.99-5.45,1.79-1.33,2.24-3.77.99-5.45"/>
    </g>
    <g>
      <polygon class="cls-24" points="1322.5 804.68 1323.91 806.47 1293.77 843.65 1292.37 841.86 1322.5 804.68"/>
      <polygon class="cls-24" points="1292.36 841.17 1293.77 843.65 1232.95 843.31 1234.39 840.84 1292.36 841.17"/>
      <rect class="cls-24" x="1262.19" y="808.02" width="2.47" height="47.02" transform="translate(424.82 2090.27) rotate(-89.68)"/>
      <polygon class="cls-24" points="1234.4 841.85 1232.95 843.64 1203.78 806.44 1205.24 804.65 1234.4 841.85"/>
      <path class="cls-22" d="m1177.6,819.93c1.12,1.93,3.49,2.66,5.3,1.61,1.81-1.04,2.37-3.46,1.25-5.39-1.12-1.93-.56-4.35,1.25-5.39,1.81-1.04,4.18-.32,5.3,1.61,1.12,1.93,3.49,2.66,5.3,1.61,1.81-1.04,2.37-3.46,1.25-5.39-1.12-1.93-.55-4.35,1.25-5.39,1.81-1.04,4.18-.32,5.3,1.61,1.12,1.93,3.49,2.66,5.3,1.61,1.81-1.04,2.37-3.46,1.25-5.39-1.12-1.93-.56-4.35,1.25-5.39,1.81-1.04,4.18-.32,5.3,1.61,1.12,1.93,3.49,2.66,5.3,1.61,1.81-1.04,2.37-3.46,1.25-5.39-1.12-1.93-.56-4.35,1.25-5.39"/>
      <path class="cls-22" d="m1350.17,819.67c-1.12,1.93-3.49,2.66-5.3,1.61-1.81-1.04-2.37-3.46-1.25-5.39,1.12-1.93.56-4.35-1.25-5.39-1.81-1.04-4.18-.32-5.3,1.61-1.12,1.93-3.49,2.66-5.3,1.61-1.81-1.04-2.37-3.46-1.25-5.39,1.12-1.93.55-4.35-1.25-5.39-1.81-1.04-4.18-.32-5.3,1.61-1.12,1.93-3.49,2.66-5.3,1.61-1.81-1.04-2.37-3.46-1.25-5.39,1.12-1.93.56-4.35-1.25-5.39-1.81-1.04-4.18-.32-5.3,1.61-1.12,1.93-3.49,2.66-5.3,1.61-1.81-1.04-2.37-3.46-1.25-5.39,1.12-1.93.56-4.35-1.25-5.39"/>
    </g>
    <text class="cls-43" transform="translate(1100.77 835.01)"><tspan x="0" y="0">&gt;&gt;</tspan></text>
  </g>
</svg>