<?xml version="1.0" encoding="UTF-8"?>
<svg id="Layer_2" data-name="Layer 2" xmlns="http://www.w3.org/2000/svg" xmlns:xlink="http://www.w3.org/1999/xlink" viewBox="0 0 882.55 373.39">
  <defs>
    <style>
      .cls-1, .cls-2, .cls-3, .cls-4, .cls-5, .cls-6, .cls-7, .cls-8, .cls-9, .cls-10, .cls-11, .cls-12, .cls-13, .cls-14, .cls-15, .cls-16, .cls-17, .cls-18, .cls-19, .cls-20, .cls-21, .cls-22, .cls-23, .cls-24, .cls-25, .cls-26, .cls-27, .cls-28, .cls-29, .cls-30, .cls-31, .cls-32, .cls-33, .cls-34, .cls-35, .cls-36, .cls-37, .cls-38, .cls-39 {
        stroke-miterlimit: 10;
      }

      .cls-1, .cls-4, .cls-7, .cls-9, .cls-12, .cls-13, .cls-16, .cls-18, .cls-21, .cls-23, .cls-28, .cls-30, .cls-31, .cls-33, .cls-35 {
        stroke: #231f20;
      }

      .cls-1, .cls-40, .cls-26 {
        fill: #fff;
      }

      .cls-1, .cls-19, .cls-20, .cls-21, .cls-22, .cls-39 {
        stroke-width: 5px;
      }

      .cls-41 {
        letter-spacing: -.08em;
      }

      .cls-2, .cls-3, .cls-4, .cls-5, .cls-6, .cls-9, .cls-10, .cls-34, .cls-35, .cls-36, .cls-37 {
        stroke-width: 3px;
      }

      .cls-2, .cls-3, .cls-4, .cls-5, .cls-6, .cls-11, .cls-12, .cls-19, .cls-20, .cls-21, .cls-22, .cls-28, .cls-29, .cls-31, .cls-32, .cls-38, .cls-39 {
        fill: none;
      }

      .cls-2, .cls-20, .cls-39 {
        stroke: #f16d90;
      }

      .cls-3, .cls-17 {
        stroke: #eb9aab;
      }

      .cls-5 {
        stroke: #87c541;
      }

      .cls-6, .cls-11, .cls-22, .cls-27, .cls-32 {
        stroke: #6dc5c0;
      }

      .cls-7 {
        font-size: 12.74px;
      }

      .cls-7, .cls-13, .cls-16, .cls-18, .cls-23, .cls-30, .cls-33 {
        font-family: ArialMT, Arial;
      }

      .cls-8, .cls-42, .cls-43, .cls-37 {
        fill: #ef3d44;
      }

      .cls-8, .cls-11 {
        opacity: .5;
        stroke-width: 6px;
      }

      .cls-8, .cls-19, .cls-37 {
        stroke: #ef3d44;
      }

      .cls-44 {
        clip-path: url(#clippath);
      }

      .cls-10, .cls-14, .cls-15, .cls-34, .cls-36 {
        stroke: #1c75bc;
      }

      .cls-45, .cls-46 {
        fill: #f16d90;
      }

      .cls-47, .cls-15, .cls-17, .cls-48, .cls-35, .cls-36, .cls-49 {
        fill: #231f20;
      }

      .cls-50, .cls-14, .cls-34 {
        fill: #1c75bc;
      }

      .cls-51, .cls-27, .cls-52 {
        fill: #6dc5c0;
      }

      .cls-53 {
        fill: #2b3990;
      }

      .cls-54 {
        fill: #58595b;
      }

      .cls-55 {
        letter-spacing: -.02em;
      }

      .cls-12 {
        stroke-width: 2.3px;
      }

      .cls-56 {
        letter-spacing: 0em;
      }

      .cls-13 {
        font-size: 12.74px;
      }

      .cls-14, .cls-15, .cls-28, .cls-29 {
        stroke-width: 2px;
      }

      .cls-16 {
        font-size: 13.76px;
      }

      .cls-17, .cls-31 {
        stroke-width: 4px;
      }

      .cls-18 {
        font-size: 12.74px;
      }

      .cls-57 {
        clip-path: url(#clippath-1);
      }

      .cls-58 {
        clip-path: url(#clippath-4);
      }

      .cls-59 {
        clip-path: url(#clippath-3);
      }

      .cls-60 {
        clip-path: url(#clippath-2);
      }

      .cls-61 {
        clip-path: url(#clippath-7);
      }

      .cls-62 {
        clip-path: url(#clippath-8);
      }

      .cls-63 {
        clip-path: url(#clippath-6);
      }

      .cls-64 {
        clip-path: url(#clippath-5);
      }

      .cls-65 {
        clip-path: url(#clippath-9);
      }

      .cls-66 {
        letter-spacing: -.02em;
      }

      .cls-23 {
        font-size: 12.74px;
      }

      .cls-67 {
        clip-path: url(#clippath-10);
      }

      .cls-46, .cls-43, .cls-52, .cls-68 {
        font-size: 20px;
      }

      .cls-46, .cls-43, .cls-52, .cls-68, .cls-49 {
        font-family: Avenir-BlackOblique, Avenir;
        font-style: oblique;
        font-weight: 800;
      }

      .cls-24 {
        fill: #febe23;
        stroke: #febe23;
      }

      .cls-25 {
        fill: #f7941d;
        stroke: #f7941d;
      }

      .cls-26, .cls-38 {
        stroke: #fff;
      }

      .cls-48 {
        font-family: Arial-BoldItalicMT, Arial;
        font-style: italic;
        font-weight: 700;
      }

      .cls-48, .cls-49 {
        font-size: 15px;
      }

      .cls-29 {
        stroke: #000;
      }

      .cls-30 {
        font-size: 12.74px;
      }

      .cls-68 {
        fill: #87c541;
      }

      .cls-69 {
        opacity: .2;
      }

      .cls-33 {
        font-size: 11.48px;
        stroke-width: .5px;
      }

      .cls-38 {
        stroke-width: 7px;
      }

      .cls-39 {
        stroke-dasharray: 0 0 3.9 3.9;
      }
    </style>
    <clipPath id="clippath">
      <rect class="cls-40" width="882.55" height="373.39"/>
    </clipPath>
    <clipPath id="clippath-1">
      <rect class="cls-22" x="201.13" y="78.85" width="116.87" height="61.7"/>
    </clipPath>
    <clipPath id="clippath-2">
      <rect class="cls-22" x="351.76" y="78.89" width="116.87" height="61.66"/>
    </clipPath>
    <clipPath id="clippath-3">
      <rect class="cls-22" x="201.24" y="151.06" width="116.87" height="61.7"/>
    </clipPath>
    <clipPath id="clippath-4">
      <rect class="cls-22" x="351.82" y="151.06" width="116.87" height="61.7"/>
    </clipPath>
    <clipPath id="clippath-5">
      <rect class="cls-19" x="201.36" y="239.88" width="116.87" height="61.7"/>
    </clipPath>
    <clipPath id="clippath-6">
      <rect class="cls-19" x="351.46" y="239.88" width="116.87" height="61.7"/>
    </clipPath>
    <clipPath id="clippath-7">
      <rect class="cls-1" x="16.51" y="167.3" width="144" height="144"/>
    </clipPath>
    <clipPath id="clippath-8">
      <rect class="cls-1" x="516.16" y="37.69" width="144" height="144"/>
    </clipPath>
    <clipPath id="clippath-9">
      <rect class="cls-28" x="699.04" y="54.33" width="67.99" height="67.99"/>
    </clipPath>
    <clipPath id="clippath-10">
      <rect class="cls-28" x="792.33" y="54.52" width="67.99" height="67.99"/>
    </clipPath>
  </defs>
  <g id="Layer_14" data-name="Layer 14">
    <rect class="cls-40" width="882.55" height="373.39"/>
    <g class="cls-44">
      <image width="600" height="600" transform="translate(771.61 262) scale(.15)" xlink:href="../plots/BondWidthContractedBondsLeftWhite_fd999 (1).jpg"/>
      <g>
        <path class="cls-21" d="m108.61,77.26c2.24-2.37,5.35-4.83,8.9-4.78,3.04.04,6.18,1.96,9.92,3.99s5.63,2.09,9.29.92c1.34-.43,3.98-1.59,6.47-5.19"/>
        <path class="cls-24" d="m114.88,77.73c-.13.29-1.57,3.38-5.01,4.55-.36.12-1.34.41-2.5.44-4.66.11-8.53-3.58-8.63-8.24-.11-4.66,3.58-8.53,8.24-8.63,1.16-.03,2.18.22,2.52.32,3.33.97,4.91,3.74,5.08,4.06,1.98,3.61.45,7.17.3,7.51Z"/>
        <path class="cls-24" d="m151.9,77.84c-.13.29-1.57,3.38-5.01,4.55-.36.12-1.34.41-2.5.44-4.66.11-8.53-3.58-8.63-8.24-.11-4.66,3.58-8.53,8.24-8.63,1.16-.03,2.18.22,2.52.32,3.33.97,4.91,3.74,5.08,4.06,1.98,3.61.45,7.17.3,7.51Z"/>
      </g>
      <g>
        <line class="cls-34" x1="94.04" y1="37.75" x2="107.44" y2="33.05"/>
        <line class="cls-34" x1="93.57" y1="42.08" x2="106.97" y2="37.39"/>
        <line class="cls-36" x1="153.5" y1="27.14" x2="140.92" y2="33.73"/>
        <line class="cls-36" x1="156.98" y1="29.76" x2="144.41" y2="36.34"/>
        <path class="cls-21" d="m105.26,36.59c2.1-2.29,5.06-4.68,8.61-4.63,3.04.04,6.3,1.88,10.16,3.84s5.75,2.01,9.35.87c1.32-.42,3.89-1.54,6.16-5.02"/>
        <path class="cls-50" d="m118.5,37.38c-.12.3-1.46,3.42-4.87,4.71-.36.13-1.32.45-2.48.51-4.66.25-8.63-3.32-8.89-7.97-.25-4.66,3.32-8.63,7.97-8.89,1.16-.06,2.18.15,2.53.24,3.36.86,5.02,3.58,5.21,3.9,2.09,3.54.68,7.15.54,7.5Z"/>
        <path class="cls-50" d="m148.44,37.02c-.12.3-1.46,3.42-4.87,4.71-.36.13-1.32.45-2.48.51-4.66.25-8.63-3.32-8.89-7.97s3.32-8.63,7.97-8.89c1.16-.06,2.18.15,2.53.24,3.36.86,5.02,3.58,5.21,3.9,2.09,3.54.68,7.15.54,7.5Z"/>
        <path class="cls-50" d="m96.69,44.73c-.09.31-1.13,3.55-4.4,5.14-.34.17-1.28.57-2.43.75-4.61.69-8.91-2.49-9.6-7.1s2.49-8.91,7.1-9.6c1.15-.17,2.19-.05,2.54,0,3.43.54,5.33,3.09,5.55,3.39,2.41,3.33,1.35,7.06,1.24,7.41Z"/>
        <path class="cls-50" d="m157.04,34.07c.29.14,3.37,1.59,6.77.29.36-.14,1.29-.54,2.2-1.26,3.65-2.9,4.26-8.21,1.36-11.86-2.9-3.65-8.21-4.26-11.86-1.36-.91.72-1.53,1.56-1.73,1.86-1.94,2.87-1.38,6.01-1.31,6.37.79,4.04,4.24,5.8,4.57,5.97Z"/>
      </g>
      <g>
        <g>
          <text class="cls-33" transform="translate(19.14 80.39)"><tspan class="cls-47" x="0" y="0">H</tspan><tspan x="8.29" y="0">S</tspan></text>
          <text class="cls-33" transform="translate(64.8 77.34)"><tspan x="0" y="0">S</tspan><tspan class="cls-47" x="7.66" y="0">H</tspan></text>
        </g>
        <path class="cls-31" d="m37.42,76.36c1.64-1.71,3.94-3.48,6.59-3.4,2.27.07,4.65,1.51,7.46,3.05s4.23,1.6,6.96.79c1-.3,2.96-1.12,4.77-3.73"/>
      </g>
      <g>
        <path class="cls-31" d="m60.53,35.59c-1.87-1.48-4.4-2.92-7.13-2.44-2.33.41-4.63,2.23-7.38,4.21s-4.2,2.25-7.08,1.84c-1.06-.15-3.16-.68-5.28-3.04"/>
        <g>
          <polygon points="16.49 43.75 15.66 42.32 30.39 33.82 30.39 35.72 16.49 43.75"/>
          <rect x="17.19" y="42.25" width="14.14" height="1.65" transform="translate(-18.29 17.9) rotate(-30)"/>
        </g>
        <line class="cls-12" x1="29.98" y1="34.61" x2="35.14" y2="36.9"/>
        <g>
          <polygon points="77.35 28.37 78.18 29.81 63.45 38.31 63.45 36.4 77.35 28.37"/>
          <rect x="62.51" y="28.22" width="14.14" height="1.65" transform="translate(-5.2 38.68) rotate(-30)"/>
        </g>
        <line class="cls-12" x1="63.83" y1="37.54" x2="58.94" y2="34.72"/>
      </g>
      <g>
        <g>
          <path class="cls-21" d="m147.15,109c-1.19,3.12-3.22,7.04-6.38,7.52-2.75.41-4.41-2.06-6.83-1.52-1.71.38-3.92,2.3-5.49,9.79"/>
          <path class="cls-21" d="m147.53,141.68c-1.19-3.12-3.22-7.04-6.38-7.52-2.75-.41-4.41,2.06-6.83,1.52-1.71-.38-3.92-2.3-5.49-9.79"/>
          <path class="cls-24" d="m154.97,110.22c-.12.29-1.47,3.42-4.88,4.7-.36.13-1.33.45-2.49.51-4.66.24-8.63-3.33-8.87-7.99s3.33-8.63,7.99-8.87c1.16-.06,2.18.16,2.52.25,3.36.87,5.01,3.59,5.2,3.91,2.08,3.55.66,7.15.52,7.5Z"/>
          <path class="cls-24" d="m156.74,145.16c-.19.26-2.26,2.96-5.87,3.37-.38.04-1.39.11-2.53-.11-4.57-.89-7.55-5.33-6.66-9.9.89-4.57,5.33-7.55,9.9-6.66,1.14.22,2.08.68,2.39.85,3.04,1.66,3.99,4.7,4.09,5.05,1.15,3.94-1.09,7.09-1.31,7.39Z"/>
          <path class="cls-21" d="m103.38,109.24c1.19,3.12,3.22,7.04,6.38,7.52,2.75.41,4.41-2.06,6.83-1.52,1.71.38,3.92,2.3,5.49,9.79"/>
          <path class="cls-21" d="m103,141.92c1.19-3.12,3.22-7.04,6.38-7.52,2.75-.41,4.41,2.06,6.83,1.52,1.71-.38,3.92-2.3,5.49-9.79"/>
          <path class="cls-24" d="m95.56,110.46c.12.29,1.47,3.42,4.88,4.7.36.13,1.33.45,2.49.51,4.66.24,8.63-3.33,8.87-7.99s-3.33-8.63-7.99-8.87c-1.16-.06-2.18.16-2.52.25-3.36.87-5.01,3.59-5.2,3.91-2.08,3.55-.66,7.15-.52,7.5Z"/>
          <path class="cls-24" d="m93.78,145.4c.19.26,2.26,2.96,5.87,3.37.38.04,1.39.11,2.53-.11,4.57-.89,7.55-5.33,6.66-9.9-.89-4.57-5.33-7.55-9.9-6.66-1.14.22-2.08.68-2.39.85-3.04,1.66-3.99,4.7-4.09,5.05-1.15,3.94,1.09,7.09,1.31,7.39Z"/>
          <circle class="cls-54" cx="125.18" cy="126.08" r="7.7"/>
        </g>
        <g>
          <g>
            <text class="cls-33" transform="translate(19.12 116.46)"><tspan class="cls-47" x="0" y="0">H</tspan><tspan x="8.29" y="0">S</tspan></text>
            <text class="cls-33" transform="translate(63.85 116.46)"><tspan x="0" y="0">S</tspan><tspan class="cls-47" x="7.66" y="0">H</tspan></text>
          </g>
          <g>
            <text class="cls-33" transform="translate(19.28 136.18)"><tspan class="cls-47" x="0" y="0">H</tspan><tspan x="8.29" y="0">S</tspan></text>
            <text class="cls-33" transform="translate(64.01 136.18)"><tspan x="0" y="0">S</tspan><tspan class="cls-47" x="7.66" y="0">H</tspan></text>
          </g>
          <path class="cls-31" d="m37.27,113.01c3.24.18,7.11.87,9.37,3.15,1.94,1.95,2.54,4.95,3.43,8.38.92,3.54,2.08,4.66,5.34,6.38,1.19.63,3.78,1.7,8.1,1.39"/>
          <path class="cls-31" d="m37.64,132.64c3.21-.19,7.02-.89,9.19-3.17,1.85-1.96,2.33-4.95,3.08-8.39s1.89-4.67,5.05-6.39c1.16-.63,3.69-1.71,7.99-1.41"/>
        </g>
      </g>
      <g id="Layer_25" data-name="Layer 25">
        <g id="Layer_15" data-name="Layer 15">
          <g id="Layer_16" data-name="Layer 16">
            <g class="cls-57">
              <rect class="cls-10" x="261.33" y="109.65" width="21.12" height=".98" transform="translate(-11.45 186.14) rotate(-37.07)"/>
              <rect class="cls-10" x="257.73" y="105.56" width="21.12" height=".98" transform="translate(-9.7 183.18) rotate(-37.08)"/>
              <circle class="cls-50" cx="257.26" cy="115.88" r="10.85"/>
              <path class="cls-21" d="m284.76,104.65c2.7-2.69,6.57-5.64,10.74-5.09,7.63.99,9.22,9.8,17.28,12.13,3.6,1.04,8.95,3.62,17.52-3.79"/>
              <circle class="cls-50" cx="283.43" cy="100.91" r="10.85"/>
              <circle class="cls-39" cx="271.82" cy="109.71" r="18.63"/>
              <circle class="cls-50" cx="334.22" cy="110.34" r="10.85"/>
              <g>
                <g>
                  <path class="cls-21" d="m196.79,134.87c-1-3.3-1.69-7.49.55-9.8,4.1-4.22,11.86,0,17.22-3.68,2.39-1.65,6.78-3.49,4.53-13.3"/>
                  <path class="cls-24" d="m200.29,130.57c.16.33,1.83,3.91.31,7.84-.16.41-.63,1.49-1.47,2.55-3.37,4.22-9.53,4.91-13.75,1.53-4.22-3.37-4.91-9.53-1.53-13.75.84-1.05,1.82-1.77,2.16-2,3.34-2.24,6.97-1.58,7.39-1.49,4.67.93,6.71,4.93,6.9,5.32Z"/>
                  <g>
                    <path class="cls-24" d="m230.7,107.51c-1.11,3.48-4.13,6.2-8,6.73-5.35.74-10.29-3.01-11.03-8.36-.74-5.35,3.01-10.29,8.36-11.03,3.74-.52,7.29,1.16,9.33,4.05"/>
                    <circle class="cls-26" cx="227.32" cy="102.35" r="7.72"/>
                  </g>
                </g>
                <circle class="cls-45" cx="225.39" cy="99.01" r="3.07"/>
                <text class="cls-7" transform="translate(216.76 111.47)"><tspan x="0" y="0">S</tspan></text>
                <text class="cls-7" transform="translate(183.08 139.53)"><tspan x="0" y="0">SH</tspan></text>
              </g>
              <g>
                <path class="cls-2" d="m229.41,95.34c6.64-2.19,13.66-.11,18.08,4.74"/>
                <polygon class="cls-45" points="241.73 99.73 246.5 98.96 249.25 94.99 251.1 106.27 241.73 99.73"/>
              </g>
            </g>
            <rect class="cls-22" x="201.13" y="78.85" width="116.87" height="61.7"/>
          </g>
          <g id="Layer_17" data-name="Layer 17">
            <g class="cls-60">
              <line class="cls-11" x1="384" y1="106.41" x2="402.34" y2="112.25"/>
              <line class="cls-6" x1="384.66" y1="106.62" x2="403" y2="112.46"/>
              <rect class="cls-9" x="410.58" y="107.27" width="21.12" height=".98" transform="translate(2.54 225) rotate(-30)"/>
              <circle class="cls-50" cx="409.16" cy="114.74" r="10.85"/>
              <path class="cls-21" d="m440.24,98.61c3.02-3.02,7.37-6.32,12.04-5.71,8.56,1.11,10.34,10.99,19.37,13.6,4.04,1.17,10.03,4.06,19.65-4.25"/>
              <circle class="cls-53" cx="435.32" cy="99.77" r="10.85"/>
              <g>
                <g>
                  <path class="cls-21" d="m344.62,121.34c.47-3.41,1.58-7.51,4.58-8.68,5.48-2.13,10.78,4.94,17.19,3.82,2.86-.5,7.62-.35,9.65-10.2"/>
                  <path class="cls-24" d="m349.59,118.88c0,.37.04,4.32-2.98,7.26-.32.31-1.2,1.1-2.4,1.7-4.83,2.43-10.71.5-13.14-4.33-2.43-4.83-.5-10.71,4.33-13.14,1.2-.61,2.39-.85,2.79-.92,3.97-.65,7,1.47,7.34,1.72,3.86,2.79,4.05,7.28,4.06,7.71Z"/>
                  <path class="cls-25" d="m387,104.34c0,.37.04,4.32-2.98,7.26-.32.31-1.2,1.1-2.4,1.7-4.83,2.43-10.71.5-13.14-4.33-2.43-4.83-.5-10.71,4.33-13.14,1.2-.61,2.39-.85,2.79-.92,3.97-.65,7,1.47,7.34,1.72,3.86,2.79,4.05,7.28,4.06,7.71Z"/>
                </g>
                <text class="cls-23" transform="translate(372.07 109.02) rotate(5.12)"><tspan x="0" y="0">S</tspan></text>
                <text class="cls-23" transform="translate(330.52 123.02) rotate(5.12)"><tspan x="0" y="0">SH</tspan></text>
              </g>
              <circle class="cls-45" cx="444.33" cy="114.36" r="4.24"/>
            </g>
            <rect class="cls-22" x="351.76" y="78.89" width="116.87" height="61.66"/>
          </g>
          <g>
            <line class="cls-22" x1="318.7" y1="107.47" x2="335.3" y2="107.47"/>
            <polygon class="cls-51" points="349.43 107.47 329.53 115.6 334.25 107.47 329.53 99.34 349.43 107.47"/>
          </g>
        </g>
        <g id="Layer_18" data-name="Layer 18">
          <g id="Layer_19" data-name="Layer 19">
            <g class="cls-59">
              <rect class="cls-9" x="255.09" y="165.9" width="21.12" height=".98" transform="translate(-47.6 155.11) rotate(-30)"/>
              <polygon class="cls-35" points="246.9 171.84 246.89 171.09 228.55 165.25 228.56 166 246.9 171.84"/>
              <circle class="cls-50" cx="253.67" cy="173.38" r="10.85"/>
              <path class="cls-21" d="m281.17,162.14c2.7-2.69,6.57-5.64,10.74-5.09,7.63.99,9.22,9.8,17.28,12.13,3.6,1.04,8.95,3.62,17.52-3.79"/>
              <circle class="cls-53" cx="279.84" cy="158.4" r="10.85"/>
              <g>
                <g>
                  <path class="cls-21" d="m189.61,179.32c.47-3.41,1.58-7.51,4.58-8.68,5.48-2.13,10.78,4.94,17.19,3.82,2.86-.5,7.62-.35,9.65-10.2"/>
                  <path class="cls-24" d="m194.58,176.86c0,.37.04,4.32-2.98,7.26-.32.31-1.2,1.1-2.4,1.7-4.83,2.43-10.71.5-13.14-4.33-2.43-4.83-.5-10.71,4.33-13.14,1.2-.61,2.39-.85,2.79-.92,3.97-.65,7,1.47,7.34,1.72,3.86,2.79,4.05,7.28,4.06,7.71Z"/>
                  <path class="cls-25" d="m231.98,162.33c0,.37.04,4.32-2.98,7.26-.32.31-1.2,1.1-2.4,1.7-4.83,2.43-10.71.5-13.14-4.33-2.43-4.83-.5-10.71,4.33-13.14,1.2-.61,2.39-.85,2.79-.92,3.97-.65,7,1.47,7.34,1.72,3.86,2.79,4.05,7.28,4.06,7.71Z"/>
                </g>
                <text class="cls-23" transform="translate(175.51 181.01) rotate(5.12)"><tspan x="0" y="0">SH</tspan></text>
              </g>
              <circle class="cls-45" cx="284.96" cy="172.78" r="3.78"/>
              <g>
                <g>
                  <path class="cls-21" d="m252.07,216.69c.39-3.42,1.41-7.55,4.38-8.78,5.43-2.26,10.89,4.69,17.27,3.42,2.85-.57,7.61-.52,9.42-10.42"/>
                  <path class="cls-24" d="m256.99,214.11c.02.37.14,4.31-2.81,7.33-.31.32-1.17,1.12-2.36,1.76-4.77,2.55-10.7.74-13.24-4.02-2.55-4.77-.74-10.7,4.02-13.24,1.19-.63,2.37-.91,2.77-.98,3.95-.74,7.03,1.31,7.38,1.55,3.93,2.7,4.21,7.18,4.23,7.61Z"/>
                  <path class="cls-24" d="m298.72,196.17c.02.37.14,4.31-2.81,7.33-.31.32-1.17,1.12-2.36,1.76-4.77,2.55-10.7.74-13.24-4.02-2.55-4.77-.74-10.7,4.02-13.24,1.19-.63,2.37-.91,2.77-.98,3.95-.74,7.03,1.31,7.38,1.55,3.93,2.7,4.21,7.18,4.23,7.61Z"/>
                </g>
                <text class="cls-13" transform="translate(281.2 203.87) rotate(-13.13)"><tspan x="0" y="0">SH</tspan></text>
              </g>
              <g>
                <path class="cls-2" d="m289.52,171.36c1.41-.1,4.51-.1,6.97,1.91,2.36,1.93,3.59,5.26,3.35,8.97"/>
                <polygon class="cls-45" points="296.08 177.8 299.91 180.73 304.69 180.01 297.76 189.11 296.08 177.8"/>
              </g>
            </g>
            <rect class="cls-22" x="201.24" y="151.06" width="116.87" height="61.7"/>
          </g>
          <g id="Layer_20" data-name="Layer 20">
            <g class="cls-58">
              <rect class="cls-9" x="405.68" y="166.1" width="21.12" height=".98" transform="translate(-27.53 230.43) rotate(-30)"/>
              <polygon class="cls-35" points="397.48 172.04 397.48 171.29 379.13 165.45 379.14 166.2 397.48 172.04"/>
              <circle class="cls-50" cx="404.26" cy="173.58" r="10.85"/>
              <path class="cls-21" d="m431.76,162.79c2.7-2.69,6.57-5.64,10.74-5.09,7.63.99,9.22,9.8,17.28,12.13,3.6,1.04,8.95,3.62,17.52-3.79"/>
              <circle class="cls-50" cx="430.42" cy="159.5" r="10.85"/>
              <g>
                <g>
                  <path class="cls-21" d="m339.72,180.17c.47-3.41,1.58-7.51,4.58-8.68,5.48-2.13,10.78,4.94,17.19,3.82,2.86-.5,7.62-.35,9.65-10.2"/>
                  <path class="cls-24" d="m344.69,177.71c0,.37.04,4.32-2.98,7.26-.32.31-1.2,1.1-2.4,1.7-4.83,2.43-10.71.5-13.14-4.33-2.43-4.83-.5-10.71,4.33-13.14,1.2-.61,2.39-.85,2.79-.92,3.97-.65,7,1.47,7.34,1.72,3.86,2.79,4.05,7.28,4.06,7.71Z"/>
                  <path class="cls-25" d="m382.1,163.18c0,.37.04,4.32-2.98,7.26-.32.31-1.2,1.1-2.4,1.7-4.83,2.43-10.71.5-13.14-4.33s-.5-10.71,4.33-13.14c1.2-.61,2.39-.85,2.79-.92,3.97-.65,7,1.47,7.34,1.72,3.86,2.79,4.05,7.28,4.06,7.71Z"/>
                </g>
                <text class="cls-23" transform="translate(325.62 181.86) rotate(5.12)"><tspan x="0" y="0">SH</tspan></text>
              </g>
              <g>
                <g>
                  <path class="cls-21" d="m400.09,208.5c.89-3.33,2.51-7.26,5.62-8.04,5.71-1.43,10.08,6.25,16.58,5.93,2.9-.14,7.6.6,10.85-8.92"/>
                  <path class="cls-24" d="m405.32,206.68c-.04.37-.5,4.29-3.86,6.83-.35.27-1.32.94-2.59,1.39-5.09,1.81-10.69-.84-12.5-5.93-1.81-5.09.84-10.69,5.93-12.5,1.27-.45,2.48-.55,2.89-.56,4.02-.15,6.76,2.33,7.07,2.62,3.49,3.25,3.11,7.73,3.06,8.15Z"/>
                  <g>
                    <path class="cls-24" d="m448.2,199.35c-1.61,3.28-5,5.53-8.9,5.48-5.4-.06-9.74-4.49-9.67-9.9.06-5.4,4.49-9.74,9.9-9.67,3.78.04,7.03,2.22,8.63,5.38"/>
                    <circle class="cls-26" cx="445.63" cy="193.74" r="7.72"/>
                  </g>
                </g>
                <text class="cls-30" transform="translate(430.88 200.13) rotate(-4.64)"><tspan x="0" y="0">S</tspan></text>
              </g>
              <circle class="cls-45" cx="445.63" cy="191.35" r="4.24"/>
            </g>
            <rect class="cls-22" x="351.82" y="151.06" width="116.87" height="61.7"/>
          </g>
          <g>
            <line class="cls-22" x1="318.72" y1="182.06" x2="335.41" y2="182.06"/>
            <polygon class="cls-51" points="349.53 182.06 329.63 190.19 334.36 182.06 329.63 173.93 349.53 182.06"/>
          </g>
        </g>
        <g id="Layer_23" data-name="Layer 23">
          <g>
            <line class="cls-19" x1="318.61" y1="269.66" x2="335.24" y2="269.66"/>
            <polygon class="cls-42" points="349.36 269.66 329.46 277.79 334.18 269.66 329.46 261.53 349.36 269.66"/>
          </g>
          <g id="Layer_21" data-name="Layer 21">
            <g class="cls-64">
              <rect class="cls-9" x="204.39" y="239.13" width=".98" height="21.12" transform="translate(-91.34 378.42) rotate(-74.12)"/>
              <rect class="cls-9" x="221.7" y="254.15" width="21.12" height=".98" transform="translate(-5.79 5.4) rotate(-1.32)"/>
              <circle class="cls-50" cx="220.1" cy="254.64" r="10.85"/>
              <path class="cls-21" d="m251.83,254.18c1.28-3.59,3.5-7.92,7.5-9.22,7.32-2.39,12.54,4.88,20.82,3.51,3.7-.61,9.63-.58,14.18-10.97"/>
              <circle class="cls-53" cx="247.23" cy="254.64" r="10.85"/>
              <circle class="cls-45" cx="245.91" cy="269.63" r="3.78"/>
              <g>
                <path class="cls-2" d="m244.17,273.78c.08,1.15.46,3.58,2.58,4.82,2.02,1.19,5.16,1.01,8.48-.45"/>
                <polygon class="cls-45" points="254.6 283.51 253.84 278.74 249.88 275.98 261.17 274.15 254.6 283.51"/>
              </g>
              <g>
                <rect class="cls-10" x="274.4" y="287.63" width="21.12" height=".98" transform="translate(-48.47 57.81) rotate(-10.68)"/>
                <rect class="cls-10" x="272.99" y="282.36" width="21.12" height=".98" transform="translate(-47.55 57.51) rotate(-10.69)"/>
                <circle class="cls-50" cx="269.31" cy="286.76" r="10.85"/>
                <path class="cls-21" d="m298.94,288.92c3.61-1.21,8.39-2.13,11.89.21,6.4,4.28,3.9,12.88,10.09,18.55,2.76,2.53,6.4,7.22,17.38,4.39"/>
                <circle class="cls-50" cx="299.4" cy="284.98" r="10.85"/>
              </g>
              <g>
                <path class="cls-2" d="m282.03,279.43c-.29-1.55-1.16-4.9-3.87-7.24-2.61-2.25-6.32-3.05-10.02-2.19"/>
                <polygon class="cls-45" points="269.4 264.8 269.61 269.62 273.22 272.82 261.79 273.33 269.4 264.8"/>
              </g>
              <g>
                <path class="cls-2" d="m286.9,278.65c-.46-1.05-1.25-3.39.05-5.46,1.24-1.99,4.11-3.29,7.72-3.53"/>
                <polygon class="cls-45" points="290.94 274.05 293.17 269.77 291.63 265.19 301.79 270.44 290.94 274.05"/>
              </g>
            </g>
            <rect class="cls-19" x="201.36" y="239.88" width="116.87" height="61.7"/>
          </g>
          <g id="Layer_22" data-name="Layer 22">
            <g class="cls-63">
              <line class="cls-8" x1="410.38" y1="274.93" x2="402.19" y2="262.29"/>
              <line class="cls-37" x1="410.38" y1="274.93" x2="402.19" y2="262.29"/>
              <rect class="cls-9" x="353.28" y="241" width=".98" height="21.12" transform="translate(15 522.99) rotate(-74.12)"/>
              <rect class="cls-9" x="372.38" y="255.88" width="21.12" height=".98" transform="translate(-5.79 8.87) rotate(-1.32)"/>
              <circle class="cls-50" cx="370.78" cy="256.37" r="10.85"/>
              <path class="cls-21" d="m402.51,255.9c1.28-3.59,3.5-7.92,7.5-9.22,7.32-2.39,12.54,4.88,20.82,3.51,3.7-.61,9.63-.58,14.18-10.97"/>
              <circle class="cls-50" cx="397.91" cy="256.37" r="10.85"/>
              <g>
                <g>
                  <path class="cls-21" d="m302.42,264.38c.84-3.34,2.39-7.29,5.5-8.13,5.68-1.52,10.18,6.09,16.67,5.67,2.9-.19,7.61.49,10.71-9.09"/>
                  <path class="cls-24" d="m307.63,262.48c-.03.37-.43,4.29-3.75,6.89-.35.27-1.31.96-2.57,1.43-5.06,1.89-10.7-.68-12.59-5.74-1.89-5.06.68-10.7,5.74-12.59,1.26-.47,2.47-.59,2.88-.61,4.02-.21,6.79,2.22,7.11,2.51,3.54,3.2,3.23,7.68,3.19,8.11Z"/>
                  <path class="cls-25" d="m346.4,252.12c-.03.37-.43,4.29-3.75,6.89-.35.27-1.31.96-2.57,1.43-5.06,1.89-10.7-.68-12.59-5.74s.68-10.7,5.74-12.59c1.26-.47,2.47-.59,2.88-.61,4.02-.21,6.79,2.22,7.11,2.51,3.54,3.2,3.23,7.68,3.19,8.11Z"/>
                </g>
                <text class="cls-18" transform="translate(288.17 264.54) rotate(11.39)"><tspan x="0" y="0">SH</tspan></text>
              </g>
              <g>
                <rect class="cls-9" x="430.11" y="270.36" width=".98" height="21.12" transform="translate(139.15 704.46) rotate(-88.59)"/>
                <circle class="cls-50" cx="414.95" cy="281.95" r="10.85"/>
                <path class="cls-21" d="m444.58,284.11c3.61-1.21,8.39-2.13,11.89.21,6.4,4.28,3.9,12.88,10.09,18.55,2.76,2.53,6.4,7.22,17.38,4.39"/>
                <circle class="cls-53" cx="445.04" cy="280.17" r="10.85"/>
              </g>
              <circle class="cls-45" cx="453.61" cy="265.49" r="4.24"/>
            </g>
            <rect class="cls-19" x="351.46" y="239.88" width="116.87" height="61.7"/>
          </g>
        </g>
      </g>
      <text class="cls-43" transform="translate(199.74 232.29)"><tspan x="0" y="0">chain g</tspan><tspan class="cls-55" x="67.06" y="0">r</tspan><tspan class="cls-56" x="74.84" y="0">owth: ene-ene </tspan></text>
      <text class="cls-52" transform="translate(199.74 70.68)"><tspan x="0" y="0">step g</tspan><tspan class="cls-55" x="60" y="0">r</tspan><tspan x="67.78" y="0">owth: thiol-ene</tspan></text>
      <g>
        <path class="cls-20" d="m437.8,39.16c2.96,0,18.73.32,31.47,14.31,8.05,8.84,13.03,21.05,13.03,34.54v194.2c0,26.98-19.92,48.85-44.5,48.85h-88.39"/>
        <polygon class="cls-45" points="335.29 331.07 355.19 322.94 350.47 331.07 355.19 339.2 335.29 331.07"/>
      </g>
      <g>
        <path class="cls-20" d="m231.63,331.07c-2.96,0-18.73-.33-31.47-14.31-8.05-8.84-13.03-21.05-13.03-34.54V88.01c0-26.98,19.92-48.85,44.5-48.85h81.79"/>
        <polygon class="cls-45" points="327.54 39.16 307.64 47.29 312.36 39.16 307.64 31.03 327.54 39.16"/>
      </g>
      <rect class="cls-20" x="229.06" y="318.12" width="103.98" height="25.91" rx="12.95" ry="12.95"/>
      <rect class="cls-20" x="329.74" y="24.21" width="108.05" height="25.91" rx="12.95" ry="12.95"/>
      <text class="cls-46" transform="translate(344.62 42.73)"><tspan class="cls-55" x="0" y="0">r</tspan><tspan x="7.78" y="0">eaction</tspan></text>
      <text class="cls-46" transform="translate(240.26 338.39)"><tspan x="0" y="0">di</tspan><tspan class="cls-66" x="17.8" y="0">f</tspan><tspan class="cls-56" x="24.84" y="0">fusion</tspan></text>
      <g>
        <path class="cls-20" d="m284.76,347.39v9.43H69.58v-46.8"/>
        <g>
          <path class="cls-40" d="m281,347.6c0-2.08,1.68-3.76,3.76-3.76s3.76,1.68,3.76,3.76-1.68,3.76-3.76,3.76-3.76-1.68-3.76-3.76Z"/>
          <path class="cls-45" d="m280.5,347.6c0,2.35,1.91,4.26,4.26,4.26s4.26-1.91,4.26-4.26-1.91-4.26-4.26-4.26-4.26,1.91-4.26,4.26,0-2.35,0,0Zm7.52,0c0,1.8-1.46,3.26-3.26,3.26s-3.26-1.46-3.26-3.26,1.46-3.26,3.26-3.26,3.26,1.46,3.26,3.26,0-1.8,0,0Z"/>
        </g>
      </g>
      <g id="Layer_24" data-name="Layer 24">
        <rect class="cls-40" x="16.51" y="167.3" width="144" height="144"/>
        <g class="cls-61">
          <g class="cls-69">
            <g>
              <path class="cls-28" d="m82.72,245.82c-1.53,1.62-3.66,3.31-6.09,3.27-2.08-.03-4.23-1.34-6.79-2.73s-3.85-1.43-6.36-.63c-.92.29-2.73,1.09-4.42,3.55"/>
              <path class="cls-24" d="m78.42,245.5c.09-.2,1.07-2.31,3.43-3.12.25-.08.92-.28,1.71-.3,3.19-.07,5.83,2.45,5.91,5.64.07,3.19-2.45,5.83-5.64,5.91-.8.02-1.49-.15-1.72-.22-2.28-.66-3.36-2.56-3.48-2.78-1.35-2.47-.31-4.91-.21-5.14Z"/>
              <path class="cls-24" d="m53.09,245.42c.09-.2,1.07-2.31,3.43-3.12.25-.08.92-.28,1.71-.3,3.19-.07,5.83,2.45,5.91,5.64.07,3.19-2.45,5.83-5.64,5.91-.8.02-1.49-.15-1.72-.22-2.28-.66-3.36-2.56-3.48-2.78-1.35-2.47-.31-4.91-.21-5.14Z"/>
            </g>
            <g>
              <path class="cls-4" d="m69.65,216.01c.82-2.13,2.2-4.82,4.37-5.14,1.88-.28,3.02,1.41,4.67,1.04,1.17-.26,2.68-1.57,3.75-6.7"/>
              <path class="cls-4" d="m69.39,193.65c.82,2.13,2.2,4.82,4.37,5.14,1.88.28,3.02-1.41,4.67-1.04,1.17.26,2.68,1.57,3.75,6.7"/>
              <path class="cls-24" d="m64.3,215.18c.08-.2,1.01-2.34,3.34-3.21.24-.09.91-.31,1.7-.35,3.19-.17,5.9,2.28,6.07,5.47.17,3.19-2.28,5.9-5.47,6.07-.79.04-1.49-.11-1.73-.17-2.3-.6-3.43-2.46-3.56-2.68-1.42-2.43-.45-4.89-.36-5.13Z"/>
              <path class="cls-24" d="m63.08,191.27c.13-.18,1.54-2.02,4.02-2.3.26-.03.95-.08,1.73.08,3.13.61,5.17,3.64,4.56,6.77s-3.64,5.17-6.77,4.56c-.78-.15-1.42-.47-1.63-.58-2.08-1.13-2.73-3.22-2.8-3.46-.79-2.7.75-4.85.9-5.06Z"/>
              <path class="cls-4" d="m99.6,215.85c-.82-2.13-2.2-4.82-4.37-5.14-1.88-.28-3.02,1.41-4.67,1.04-1.17-.26-2.68-1.57-3.75-6.7"/>
              <path class="cls-4" d="m99.86,193.48c-.82,2.13-2.2,4.82-4.37,5.14-1.88.28-3.02-1.41-4.67-1.04-1.17.26-2.68,1.57-3.75,6.7"/>
              <path class="cls-24" d="m104.95,215.01c-.08-.2-1.01-2.34-3.34-3.21-.24-.09-.91-.31-1.7-.35-3.19-.17-5.9,2.28-6.07,5.47s2.28,5.9,5.47,6.07c.79.04,1.49-.11,1.73-.17,2.3-.6,3.43-2.46,3.56-2.68,1.42-2.43.45-4.89.36-5.13Z"/>
              <path class="cls-24" d="m106.17,191.1c-.13-.18-1.54-2.02-4.02-2.3-.26-.03-.95-.08-1.73.08-3.13.61-5.17,3.64-4.56,6.77s3.64,5.17,6.77,4.56c.78-.15,1.42-.47,1.63-.58,2.08-1.13,2.73-3.22,2.8-3.46.79-2.7-.75-4.85-.9-5.06Z"/>
              <circle class="cls-54" cx="84.69" cy="204.33" r="5.27"/>
            </g>
            <g>
              <line class="cls-14" x1="108.73" y1="279.6" x2="99.18" y2="277.85"/>
              <line class="cls-14" x1="110.48" y1="277.19" x2="100.92" y2="275.43"/>
              <line class="cls-15" x1="69.8" y1="265.74" x2="79.5" y2="266.09"/>
              <line class="cls-15" x1="68.61" y1="263" x2="78.32" y2="263.36"/>
              <path class="cls-29" d="m101.67,276.49c-2.03.65-4.59,1.06-6.69-.17-1.8-1.05-3.11-3.26-4.73-5.73-1.68-2.55-2.74-3.14-5.26-3.69-.92-.2-2.84-.4-5.36.9"/>
              <path class="cls-50" d="m94.07,271.53c.17-.13,2.03-1.54,4.49-1.15.26.04.94.18,1.65.54,2.85,1.43,4.01,4.9,2.58,7.75-1.43,2.85-4.9,4.01-7.75,2.58-.71-.36-1.24-.83-1.42-1-1.7-1.65-1.77-3.83-1.77-4.08-.04-2.81,2.02-4.48,2.22-4.64Z"/>
              <path class="cls-50" d="m76.15,261.59c.17-.13,2.03-1.54,4.49-1.15.26.04.94.18,1.65.54,2.85,1.43,4.01,4.9,2.58,7.75s-4.9,4.01-7.75,2.58c-.71-.36-1.24-.83-1.42-1-1.7-1.65-1.77-3.83-1.77-4.08-.04-2.81,2.02-4.48,2.22-4.64Z"/>
              <path class="cls-50" d="m109.52,274.56c.16-.15,1.88-1.72,4.36-1.56.26.02.95.09,1.69.38,2.97,1.15,4.45,4.5,3.3,7.47-1.15,2.97-4.5,4.45-7.47,3.3-.74-.29-1.32-.71-1.51-.86-1.85-1.48-2.12-3.65-2.15-3.9-.3-2.8,1.59-4.65,1.78-4.83Z"/>
              <path class="cls-50" d="m70.04,260.42c-.12-.18-1.46-2.09-3.92-2.47-.26-.04-.95-.12-1.74,0-3.15.48-5.32,3.43-4.83,6.59.48,3.15,3.43,5.32,6.59,4.83.79-.12,1.44-.41,1.66-.52,2.13-1.05,2.86-3.1,2.94-3.34.9-2.67-.55-4.88-.69-5.1Z"/>
            </g>
            <g>
              <path class="cls-28" d="m131.41,293.21c-1.87-1.22-3.9-3.02-4.29-5.42-.34-2.05.58-4.4,1.5-7.16.95-2.85.73-4.04-.5-6.37-.45-.85-1.55-2.49-4.27-3.73"/>
              <path class="cls-24" d="m130.97,288.92c.21.05,2.46.65,3.67,2.83.13.23.44.85.59,1.63.63,3.13-1.39,6.18-4.52,6.81s-6.18-1.39-6.81-4.52c-.16-.78-.11-1.49-.09-1.73.25-2.36,1.93-3.75,2.12-3.91,2.19-1.76,4.77-1.17,5.02-1.11Z"/>
              <path class="cls-24" d="m126.59,263.97c.21.05,2.46.65,3.67,2.83.13.23.44.85.59,1.63.63,3.13-1.39,6.18-4.52,6.81-3.13.63-6.18-1.39-6.81-4.52-.16-.78-.11-1.49-.09-1.73.25-2.36,1.93-3.75,2.12-3.91,2.19-1.76,4.77-1.17,5.02-1.11Z"/>
            </g>
            <g>
              <line class="cls-14" x1="151.29" y1="249.65" x2="141.71" y2="248.07"/>
              <line class="cls-14" x1="153" y1="247.2" x2="143.41" y2="245.63"/>
              <line class="cls-15" x1="112.11" y1="236.5" x2="121.83" y2="236.68"/>
              <line class="cls-15" x1="110.88" y1="233.79" x2="120.59" y2="233.97"/>
              <path class="cls-29" d="m144.18,246.67c-2.01.69-4.57,1.15-6.69-.05-1.82-1.02-3.16-3.2-4.84-5.64-1.72-2.52-2.8-3.09-5.33-3.59-.93-.18-2.84-.35-5.35.99"/>
              <path class="cls-50" d="m136.49,241.85c.17-.14,2-1.57,4.47-1.23.26.04.94.16,1.66.51,2.88,1.38,4.1,4.83,2.72,7.7-1.38,2.88-4.83,4.1-7.7,2.72-.72-.34-1.26-.81-1.44-.97-1.73-1.62-1.84-3.8-1.85-4.05-.09-2.81,1.94-4.52,2.14-4.68Z"/>
              <path class="cls-50" d="m118.39,232.24c.17-.14,2-1.57,4.47-1.23.26.04.94.16,1.66.51,2.88,1.38,4.1,4.83,2.72,7.7-1.38,2.88-4.83,4.1-7.7,2.72-.72-.34-1.26-.81-1.44-.97-1.73-1.62-1.84-3.8-1.85-4.05-.09-2.81,1.94-4.52,2.14-4.68Z"/>
              <path class="cls-50" d="m151.99,244.59c.16-.15,1.85-1.76,4.33-1.64.26.01.95.07,1.7.35,3,1.1,4.53,4.42,3.43,7.41s-4.42,4.53-7.41,3.43c-.75-.27-1.33-.69-1.52-.83-1.88-1.45-2.19-3.61-2.22-3.86-.35-2.79,1.51-4.68,1.69-4.86Z"/>
              <path class="cls-50" d="m112.26,231.18c-.13-.18-1.5-2.06-3.97-2.4-.26-.04-.95-.1-1.74.04-3.14.54-5.25,3.53-4.71,6.67.54,3.14,3.53,5.25,6.67,4.71.78-.14,1.43-.44,1.65-.55,2.11-1.09,2.8-3.16,2.88-3.4.85-2.68-.64-4.87-.79-5.08Z"/>
            </g>
            <g>
              <line class="cls-14" x1="51.47" y1="176.69" x2="41.81" y2="175.68"/>
              <line class="cls-14" x1="52.47" y1="179.5" x2="42.81" y2="178.49"/>
              <line class="cls-15" x1="10.21" y1="179.03" x2="19.63" y2="181.42"/>
              <line class="cls-15" x1="8.3" y1="181.32" x2="17.72" y2="183.71"/>
              <path class="cls-29" d="m43.82,177.69c-1.76-1.2-4.11-2.31-6.47-1.72-2.02.51-3.9,2.25-6.15,4.16-2.33,1.97-3.51,2.25-6.09,2.06-.94-.07-2.83-.41-4.89-2.37"/>
              <path class="cls-50" d="m35.13,180.31c.13.18,1.52,2.05,3.99,2.36.26.03.95.09,1.74-.05,3.14-.57,5.22-3.57,4.66-6.71-.57-3.14-3.57-5.22-6.71-4.66-.78.14-1.43.45-1.64.56-2.1,1.11-2.78,3.18-2.85,3.42-.83,2.69.68,4.87.83,5.07Z"/>
              <path class="cls-50" d="m15.14,184.8c.13.18,1.52,2.05,3.99,2.36.26.03.95.09,1.74-.05,3.14-.57,5.22-3.57,4.66-6.71-.57-3.14-3.57-5.22-6.71-4.66-.78.14-1.43.45-1.64.56-2.1,1.11-2.78,3.18-2.85,3.42-.83,2.69.68,4.87.83,5.07Z"/>
              <path class="cls-50" d="m50.81,181.75c.11.19,1.32,2.18,3.75,2.73.25.06.94.18,1.73.11,3.18-.27,5.54-3.07,5.27-6.24-.27-3.18-3.07-5.54-6.24-5.27-.79.07-1.46.31-1.69.4-2.2.9-3.06,2.9-3.16,3.14-1.08,2.6.22,4.91.35,5.13Z"/>
              <path class="cls-50" d="m8.95,184.2c-.17.14-1.99,1.59-4.46,1.27-.26-.03-.95-.16-1.66-.49-2.89-1.35-4.14-4.79-2.78-7.68s4.79-4.14,7.68-2.78c.72.34,1.27.8,1.44.96,1.75,1.61,1.87,3.78,1.88,4.03.11,2.81-1.9,4.53-2.1,4.69Z"/>
            </g>
            <g>
              <line class="cls-14" x1="140.83" y1="212.49" x2="133.44" y2="206.18"/>
              <line class="cls-14" x1="143.55" y1="211.28" x2="136.17" y2="204.97"/>
              <line class="cls-15" x1="114.1" y1="180.97" x2="122.32" y2="186.15"/>
              <line class="cls-15" x1="114.45" y1="178.01" x2="122.67" y2="183.18"/>
              <path class="cls-29" d="m136.28,206.25c-2.08-.45-4.51-1.38-5.7-3.5-1.03-1.81-1.05-4.37-1.22-7.33-.17-3.05-.79-4.09-2.7-5.83-.7-.63-2.25-1.77-5.09-1.91"/>
              <path class="cls-50" d="m132.19,198.15c.22-.03,2.53-.31,4.46,1.26.2.16.72.63,1.16,1.29,1.75,2.67,1.01,6.25-1.66,8-2.67,1.75-6.25,1.01-8-1.66-.44-.67-.66-1.34-.73-1.58-.65-2.28.39-4.2.52-4.42,1.38-2.45,4-2.86,4.25-2.9Z"/>
              <path class="cls-50" d="m121.68,180.57c.22-.03,2.53-.31,4.46,1.26.2.16.72.63,1.16,1.29,1.75,2.67,1.01,6.25-1.66,8-2.67,1.75-6.25,1.01-8-1.66-.44-.67-.66-1.34-.73-1.58-.65-2.28.39-4.2.52-4.42,1.38-2.45,4-2.86,4.25-2.9Z"/>
              <path class="cls-50" d="m144.04,208.52c.21-.05,2.49-.55,4.56.83.22.14.78.56,1.28,1.18,1.99,2.49,1.59,6.13-.9,8.12s-6.13,1.59-8.12-.9c-.5-.62-.78-1.28-.87-1.5-.86-2.21,0-4.22.1-4.45,1.14-2.57,3.71-3.22,3.96-3.28Z"/>
              <path class="cls-50" d="m116.98,176.49c-.02-.22-.22-2.54-2.15-4.1-.2-.16-.76-.58-1.5-.87-2.97-1.16-6.32.3-7.49,3.27-1.16,2.97.3,6.32,3.27,7.49.74.29,1.45.37,1.69.38,2.37.16,4.03-1.25,4.22-1.42,2.12-1.85,1.97-4.5,1.96-4.76Z"/>
            </g>
            <g>
              <path class="cls-28" d="m31.18,200.13c-.35,2.2-1.16,4.79-3.19,6.13-1.74,1.15-4.25,1.27-7.15,1.56s-3.99.99-5.61,3.06c-.59.76-1.64,2.43-1.66,5.43"/>
              <path class="cls-24" d="m27.45,202.29c-.04-.21-.41-2.51,1.08-4.51.16-.21.6-.75,1.24-1.21,2.59-1.86,6.2-1.26,8.06,1.33,1.86,2.59,1.26,6.2-1.33,8.06-.65.46-1.32.71-1.55.79-2.26.74-4.21-.22-4.44-.34-2.51-1.28-3.02-3.88-3.06-4.13Z"/>
              <path class="cls-24" d="m6.48,216.49c-.04-.21-.41-2.51,1.08-4.51.16-.21.6-.75,1.24-1.21,2.59-1.86,6.2-1.26,8.06,1.33s1.26,6.2-1.33,8.06c-.65.46-1.32.71-1.55.79-2.26.74-4.21-.22-4.44-.34-2.51-1.28-3.02-3.88-3.06-4.13Z"/>
            </g>
            <g>
              <line class="cls-14" x1="12.43" y1="238.76" x2="19.42" y2="232.02"/>
              <line class="cls-14" x1="13.38" y1="241.59" x2="20.37" y2="234.84"/>
              <line class="cls-15" x1="46.38" y1="215.2" x2="40.44" y2="222.88"/>
              <line class="cls-15" x1="49.3" y1="215.83" x2="43.35" y2="223.51"/>
              <path class="cls-29" d="m19.08,234.84c.65-2.03,1.81-4.35,4.04-5.34,1.9-.85,4.46-.63,7.41-.51s4.15-.39,6.06-2.13c.7-.63,1.98-2.07,2.4-4.88"/>
              <path class="cls-50" d="m27.54,231.55c0,.22.07,2.55-1.69,4.32-.18.18-.7.66-1.4,1.03-2.82,1.49-6.32.4-7.8-2.42-1.49-2.82-.4-6.32,2.42-7.8.7-.37,1.4-.53,1.64-.57,2.34-.42,4.14.8,4.35.94,2.31,1.61,2.46,4.25,2.47,4.51Z"/>
              <path class="cls-50" d="m46.05,222.78c0,.22.07,2.55-1.69,4.32-.18.18-.7.66-1.4,1.03-2.82,1.49-6.32.4-7.8-2.42s-.4-6.32,2.42-7.8c.7-.37,1.4-.53,1.64-.57,2.34-.42,4.14.8,4.35.94,2.31,1.61,2.46,4.25,2.47,4.51Z"/>
              <path class="cls-50" d="m16.07,242.34c.03.22.31,2.53-1.27,4.46-.16.2-.63.72-1.3,1.16-2.67,1.74-6.25.99-8-1.68s-.99-6.25,1.68-8c.67-.44,1.35-.66,1.58-.72,2.29-.64,4.2.4,4.42.53,2.45,1.38,2.85,4,2.89,4.26Z"/>
              <path class="cls-50" d="m50.56,218.5c.22,0,2.55.03,4.29-1.75.18-.19.65-.7,1.01-1.41,1.44-2.84.31-6.32-2.54-7.77s-6.32-.31-7.77,2.54c-.36.71-.51,1.41-.55,1.65-.39,2.34.86,4.13,1,4.34,1.64,2.29,4.29,2.4,4.54,2.41Z"/>
            </g>
            <g>
              <path class="cls-28" d="m44.06,311.71c.82-2.13,2.2-4.82,4.37-5.14,1.88-.28,3.02,1.41,4.67,1.04,1.17-.26,2.68-1.57,3.75-6.7"/>
              <path class="cls-28" d="m43.8,289.35c.82,2.13,2.2,4.82,4.37,5.14,1.88.28,3.02-1.41,4.67-1.04,1.17.26,2.68,1.57,3.75,6.7"/>
              <path class="cls-24" d="m38.71,310.87c.08-.2,1.01-2.34,3.34-3.21.24-.09.91-.31,1.7-.35,3.19-.17,5.9,2.28,6.07,5.47s-2.28,5.9-5.47,6.07c-.79.04-1.49-.11-1.73-.17-2.3-.6-3.43-2.46-3.56-2.68-1.42-2.43-.45-4.89-.36-5.13Z"/>
              <path class="cls-24" d="m37.49,286.96c.13-.18,1.54-2.02,4.02-2.3.26-.03.95-.08,1.73.08,3.13.61,5.17,3.64,4.56,6.77-.61,3.13-3.64,5.17-6.77,4.56-.78-.15-1.42-.47-1.63-.58-2.08-1.13-2.73-3.22-2.8-3.46-.79-2.7.75-4.85.9-5.06Z"/>
              <path class="cls-28" d="m74.01,311.54c-.82-2.13-2.2-4.82-4.37-5.14-1.88-.28-3.02,1.41-4.67,1.04-1.17-.26-2.68-1.57-3.75-6.7"/>
              <path class="cls-28" d="m74.27,289.18c-.82,2.13-2.2,4.82-4.37,5.14-1.88.28-3.02-1.41-4.67-1.04-1.17.26-2.68,1.57-3.75,6.7"/>
              <path class="cls-24" d="m79.36,310.71c-.08-.2-1.01-2.34-3.34-3.21-.24-.09-.91-.31-1.7-.35-3.19-.17-5.9,2.28-6.07,5.47s2.28,5.9,5.47,6.07c.79.04,1.49-.11,1.73-.17,2.3-.6,3.43-2.46,3.56-2.68,1.42-2.43.45-4.89.36-5.13Z"/>
              <path class="cls-24" d="m80.58,286.8c-.13-.18-1.54-2.02-4.02-2.3-.26-.03-.95-.08-1.73.08-3.13.61-5.17,3.64-4.56,6.77s3.64,5.17,6.77,4.56c.78-.15,1.42-.47,1.63-.58,2.08-1.13,2.73-3.22,2.8-3.46.79-2.7-.75-4.85-.9-5.06Z"/>
              <circle class="cls-54" cx="59.09" cy="300.02" r="5.27"/>
            </g>
            <g>
              <line class="cls-14" x1="22.44" y1="258.2" x2="23.73" y2="267.83"/>
              <line class="cls-14" x1="19.6" y1="257.28" x2="20.89" y2="266.91"/>
              <line class="cls-15" x1="21.32" y1="299.51" x2="18.65" y2="290.17"/>
              <line class="cls-15" x1="19.08" y1="301.49" x2="16.41" y2="292.15"/>
              <path class="cls-29" d="m21.66,265.88c1.25,1.72,2.43,4.04,1.91,6.41-.45,2.03-2.13,3.96-3.98,6.27s-2.14,3.58-1.88,6.14c.1.94.5,2.82,2.51,4.82"/>
              <path class="cls-50" d="m19.3,274.64c-.18-.12-2.09-1.45-2.48-3.91-.04-.26-.12-.95,0-1.74.48-3.15,3.42-5.33,6.57-4.85s5.33,3.42,4.85,6.57c-.12.79-.41,1.44-.51,1.66-1.04,2.13-3.1,2.87-3.33,2.95-2.66.91-4.89-.54-5.1-.68Z"/>
              <path class="cls-50" d="m15.4,294.75c-.18-.12-2.09-1.45-2.48-3.91-.04-.26-.12-.95,0-1.74.48-3.15,3.42-5.33,6.57-4.85s5.33,3.42,4.85,6.57c-.12.79-.41,1.44-.51,1.66-1.04,2.13-3.1,2.87-3.33,2.95-2.66.91-4.89-.54-5.1-.68Z"/>
              <path class="cls-50" d="m17.4,259.01c-.19-.1-2.22-1.25-2.84-3.66-.06-.25-.21-.93-.16-1.73.18-3.19,2.9-5.63,6.09-5.45,3.19.18,5.63,2.9,5.45,6.09-.04.79-.27,1.47-.35,1.7-.84,2.22-2.81,3.15-3.04,3.25-2.57,1.15-4.92-.07-5.14-.19Z"/>
              <path class="cls-50" d="m16.19,300.92c-.13.17-1.53,2.04-1.13,4.49.04.26.18.94.54,1.65,1.44,2.85,4.91,3.99,7.76,2.56,2.85-1.44,3.99-4.91,2.56-7.76-.36-.71-.84-1.24-1-1.42-1.66-1.7-3.84-1.76-4.09-1.76-2.81-.03-4.47,2.04-4.63,2.24Z"/>
            </g>
          </g>
          <g>
            <g>
              <path class="cls-28" d="m79.15,234.05c1.53-1.62,3.66-3.31,6.09-3.27,2.08.03,4.23,1.34,6.79,2.73,2.63,1.43,3.85,1.43,6.36.63.92-.29,2.73-1.09,4.42-3.55"/>
              <path class="cls-24" d="m83.45,234.37c-.09.2-1.07,2.31-3.43,3.12-.25.08-.92.28-1.71.3-3.19.07-5.83-2.45-5.91-5.64-.07-3.19,2.45-5.83,5.64-5.91.8-.02,1.49.15,1.72.22,2.28.66,3.36,2.56,3.48,2.78,1.35,2.47.31,4.91.21,5.14Z"/>
              <path class="cls-24" d="m108.78,234.45c-.09.2-1.07,2.31-3.43,3.12-.25.08-.92.28-1.71.3-3.19.07-5.83-2.45-5.91-5.64-.07-3.19,2.45-5.83,5.64-5.91.8-.02,1.49.15,1.72.22,2.28.66,3.36,2.56,3.48,2.78,1.35,2.47.31,4.91.21,5.14Z"/>
            </g>
            <g>
              <path class="cls-4" d="m92.22,263.86c-.82,2.13-2.2,4.82-4.37,5.14-1.88.28-3.02-1.41-4.67-1.04-1.17.26-2.68,1.57-3.75,6.7"/>
              <path class="cls-4" d="m92.48,286.22c-.82-2.13-2.2-4.82-4.37-5.14-1.88-.28-3.02,1.41-4.67,1.04-1.17-.26-2.68-1.57-3.75-6.7"/>
              <path class="cls-24" d="m97.57,264.69c-.08.2-1.01,2.34-3.34,3.21-.24.09-.91.31-1.7.35-3.19.17-5.9-2.28-6.07-5.47s2.28-5.9,5.47-6.07c.79-.04,1.49.11,1.73.17,2.3.6,3.43,2.46,3.56,2.68,1.42,2.43.45,4.89.36,5.13Z"/>
              <path class="cls-24" d="m98.79,288.61c-.13.18-1.54,2.02-4.02,2.3-.26.03-.95.08-1.73-.08-3.13-.61-5.17-3.64-4.56-6.77.61-3.13,3.64-5.17,6.77-4.56.78.15,1.42.47,1.63.58,2.08,1.13,2.73,3.22,2.8,3.46.79,2.7-.75,4.85-.9,5.06Z"/>
              <path class="cls-4" d="m62.27,264.03c.82,2.13,2.2,4.82,4.37,5.14,1.88.28,3.02-1.41,4.67-1.04,1.17.26,2.68,1.57,3.75,6.7"/>
              <path class="cls-4" d="m62.01,286.39c.82-2.13,2.2-4.82,4.37-5.14,1.88-.28,3.02,1.41,4.67,1.04,1.17-.26,2.68-1.57,3.75-6.7"/>
              <path class="cls-24" d="m56.91,264.86c.08.2,1.01,2.34,3.34,3.21.24.09.91.31,1.7.35,3.19.17,5.9-2.28,6.07-5.47.17-3.19-2.28-5.9-5.47-6.07-.79-.04-1.49.11-1.73.17-2.3.6-3.43,2.46-3.56,2.68-1.42,2.43-.45,4.89-.36,5.13Z"/>
              <path class="cls-24" d="m55.7,288.77c.13.18,1.54,2.02,4.02,2.3.26.03.95.08,1.73-.08,3.13-.61,5.17-3.64,4.56-6.77s-3.64-5.17-6.77-4.56c-.78.15-1.42.47-1.63.58-2.08,1.13-2.73,3.22-2.8,3.46-.79,2.7.75,4.85.9,5.06Z"/>
              <circle class="cls-54" cx="77.18" cy="275.55" r="5.27"/>
            </g>
            <g>
              <line class="cls-14" x1="53.14" y1="200.27" x2="62.69" y2="202.02"/>
              <line class="cls-14" x1="51.39" y1="202.69" x2="60.95" y2="204.44"/>
              <line class="cls-15" x1="92.07" y1="214.13" x2="82.36" y2="213.78"/>
              <line class="cls-15" x1="93.26" y1="216.87" x2="83.55" y2="216.51"/>
              <path class="cls-29" d="m60.2,203.38c2.03-.65,4.59-1.06,6.69.17,1.8,1.05,3.11,3.26,4.73,5.73s2.74,3.14,5.26,3.69c.92.2,2.84.4,5.36-.9"/>
              <path class="cls-50" d="m67.8,208.34c-.17.13-2.03,1.54-4.49,1.15-.26-.04-.94-.18-1.65-.54-2.85-1.43-4.01-4.9-2.58-7.75,1.43-2.85,4.9-4.01,7.75-2.58.71.36,1.24.83,1.42,1,1.7,1.65,1.77,3.83,1.77,4.08.04,2.81-2.02,4.48-2.22,4.64Z"/>
              <path class="cls-50" d="m85.72,218.28c-.17.13-2.03,1.54-4.49,1.15-.26-.04-.94-.18-1.65-.54-2.85-1.43-4.01-4.9-2.58-7.75s4.9-4.01,7.75-2.58c.71.36,1.24.83,1.42,1,1.7,1.65,1.77,3.83,1.77,4.08.04,2.81-2.02,4.48-2.22,4.64Z"/>
              <path class="cls-50" d="m52.35,205.31c-.16.15-1.88,1.72-4.36,1.56-.26-.02-.95-.09-1.69-.38-2.97-1.15-4.45-4.5-3.3-7.47,1.15-2.97,4.5-4.45,7.47-3.3.74.29,1.32.71,1.51.86,1.85,1.48,2.12,3.65,2.15,3.9.3,2.8-1.59,4.65-1.78,4.83Z"/>
              <path class="cls-50" d="m91.83,219.45c.12.18,1.46,2.09,3.92,2.47.26.04.95.12,1.74,0,3.15-.48,5.32-3.43,4.83-6.59-.48-3.15-3.43-5.32-6.59-4.83-.79.12-1.44.41-1.66.52-2.13,1.05-2.86,3.1-2.94,3.34-.9,2.67.55,4.88.69,5.1Z"/>
            </g>
            <g>
              <path class="cls-28" d="m30.46,186.67c1.87,1.22,3.9,3.02,4.29,5.42.34,2.05-.58,4.4-1.5,7.16-.95,2.85-.73,4.04.5,6.37.45.85,1.55,2.49,4.27,3.73"/>
              <path class="cls-24" d="m30.9,190.95c-.21-.05-2.46-.65-3.67-2.83-.13-.23-.44-.85-.59-1.63-.63-3.13,1.39-6.18,4.52-6.81,3.13-.63,6.18,1.39,6.81,4.52.16.78.11,1.49.09,1.73-.25,2.36-1.93,3.75-2.12,3.91-2.19,1.76-4.77,1.17-5.02,1.11Z"/>
              <path class="cls-24" d="m35.28,215.9c-.21-.05-2.46-.65-3.67-2.83-.13-.23-.44-.85-.59-1.63-.63-3.13,1.39-6.18,4.52-6.81s6.18,1.39,6.81,4.52c.16.78.11,1.49.09,1.73-.25,2.36-1.93,3.75-2.12,3.91-2.19,1.76-4.77,1.17-5.02,1.11Z"/>
            </g>
            <g>
              <line class="cls-14" x1="10.57" y1="230.22" x2="20.16" y2="231.8"/>
              <line class="cls-14" x1="8.87" y1="232.67" x2="18.46" y2="234.24"/>
              <line class="cls-15" x1="49.76" y1="243.37" x2="40.04" y2="243.19"/>
              <line class="cls-15" x1="50.99" y1="246.08" x2="41.28" y2="245.9"/>
              <path class="cls-29" d="m17.69,233.21c2.01-.69,4.57-1.15,6.69.05,1.82,1.02,3.16,3.2,4.84,5.64,1.72,2.52,2.8,3.09,5.33,3.59.93.18,2.84.35,5.35-.99"/>
              <path class="cls-50" d="m25.38,238.02c-.17.14-2,1.57-4.47,1.23-.26-.04-.94-.16-1.66-.51-2.88-1.38-4.1-4.83-2.72-7.7s4.83-4.1,7.7-2.72c.72.34,1.26.81,1.44.97,1.73,1.62,1.84,3.8,1.85,4.05.09,2.81-1.94,4.52-2.14,4.68Z"/>
              <path class="cls-50" d="m43.48,247.63c-.17.14-2,1.57-4.47,1.23-.26-.04-.94-.16-1.66-.51-2.88-1.38-4.1-4.83-2.72-7.7s4.83-4.1,7.7-2.72c.72.34,1.26.81,1.44.97,1.73,1.62,1.84,3.8,1.85,4.05.09,2.81-1.94,4.52-2.14,4.68Z"/>
              <path class="cls-50" d="m9.88,235.28c-.16.15-1.85,1.76-4.33,1.64-.26-.01-.95-.07-1.7-.35-3-1.1-4.53-4.42-3.43-7.41,1.1-3,4.42-4.53,7.41-3.43.75.27,1.33.69,1.52.83,1.88,1.45,2.19,3.61,2.22,3.86.35,2.79-1.51,4.68-1.69,4.86Z"/>
              <path class="cls-50" d="m49.61,248.69c.13.18,1.5,2.06,3.97,2.4.26.04.95.1,1.74-.04,3.14-.54,5.25-3.53,4.71-6.67-.54-3.14-3.53-5.25-6.67-4.71-.78.14-1.43.44-1.65.55-2.11,1.09-2.8,3.16-2.88,3.4-.85,2.68.64,4.87.79,5.08Z"/>
            </g>
            <g>
              <line class="cls-14" x1="110.4" y1="303.18" x2="120.06" y2="304.19"/>
              <line class="cls-14" x1="109.4" y1="300.37" x2="119.06" y2="301.38"/>
              <line class="cls-15" x1="151.66" y1="300.84" x2="142.24" y2="298.45"/>
              <line class="cls-15" x1="153.57" y1="298.55" x2="144.15" y2="296.16"/>
              <path class="cls-29" d="m118.05,302.18c1.76,1.2,4.11,2.31,6.47,1.72,2.02-.51,3.9-2.25,6.15-4.16s3.51-2.25,6.09-2.06c.94.07,2.83.41,4.89,2.37"/>
              <path class="cls-50" d="m126.74,299.56c-.13-.18-1.52-2.05-3.99-2.36-.26-.03-.95-.09-1.74.05-3.14.57-5.22,3.57-4.66,6.71.57,3.14,3.57,5.22,6.71,4.66.78-.14,1.43-.45,1.64-.56,2.1-1.11,2.78-3.18,2.85-3.42.83-2.69-.68-4.87-.83-5.07Z"/>
              <path class="cls-50" d="m146.73,295.07c-.13-.18-1.52-2.05-3.99-2.36-.26-.03-.95-.09-1.74.05-3.14.57-5.22,3.57-4.66,6.71.57,3.14,3.57,5.22,6.71,4.66.78-.14,1.43-.45,1.64-.56,2.1-1.11,2.78-3.18,2.85-3.42.83-2.69-.68-4.87-.83-5.07Z"/>
              <path class="cls-50" d="m111.06,298.12c-.11-.19-1.32-2.18-3.75-2.73-.25-.06-.94-.18-1.73-.11-3.18.27-5.54,3.07-5.27,6.24.27,3.18,3.07,5.54,6.24,5.27.79-.07,1.46-.31,1.69-.4,2.2-.9,3.06-2.9,3.16-3.14,1.08-2.6-.22-4.91-.35-5.13Z"/>
              <path class="cls-50" d="m152.92,295.67c.17-.14,1.99-1.59,4.46-1.27.26.03.95.16,1.66.49,2.89,1.35,4.14,4.79,2.78,7.68s-4.79,4.14-7.68,2.78c-.72-.34-1.27-.8-1.44-.96-1.75-1.61-1.87-3.78-1.88-4.03-.11-2.81,1.9-4.53,2.1-4.69Z"/>
            </g>
            <g>
              <line class="cls-14" x1="21.04" y1="267.38" x2="28.43" y2="273.69"/>
              <line class="cls-14" x1="18.32" y1="268.59" x2="25.7" y2="274.9"/>
              <line class="cls-15" x1="47.77" y1="298.9" x2="39.55" y2="293.73"/>
              <line class="cls-15" x1="47.42" y1="301.86" x2="39.2" y2="296.69"/>
              <path class="cls-29" d="m25.59,273.62c2.08.45,4.51,1.38,5.7,3.5,1.03,1.81,1.05,4.37,1.22,7.33.17,3.05.79,4.09,2.7,5.83.7.63,2.25,1.77,5.09,1.91"/>
              <path class="cls-50" d="m29.67,281.72c-.22.03-2.53.31-4.46-1.26-.2-.16-.72-.63-1.16-1.29-1.75-2.67-1.01-6.25,1.66-8s6.25-1.01,8,1.66c.44.67.66,1.34.73,1.58.65,2.28-.39,4.2-.52,4.42-1.38,2.45-4,2.86-4.25,2.9Z"/>
              <path class="cls-50" d="m40.19,299.3c-.22.03-2.53.31-4.46-1.26-.2-.16-.72-.63-1.16-1.29-1.75-2.67-1.01-6.25,1.66-8s6.25-1.01,8,1.66c.44.67.66,1.34.73,1.58.65,2.28-.39,4.2-.52,4.42-1.38,2.45-4,2.86-4.25,2.9Z"/>
              <path class="cls-50" d="m17.83,271.35c-.21.05-2.49.55-4.56-.83-.22-.14-.78-.56-1.28-1.18-1.99-2.49-1.59-6.13.9-8.12s6.13-1.59,8.12.9c.5.62.78,1.28.87,1.5.86,2.21,0,4.22-.1,4.45-1.14,2.57-3.71,3.22-3.96,3.28Z"/>
              <path class="cls-50" d="m44.89,303.38c.02.22.22,2.54,2.15,4.1.2.16.76.58,1.5.87,2.97,1.16,6.32-.3,7.49-3.27s-.3-6.32-3.27-7.49c-.74-.29-1.45-.37-1.69-.38-2.37-.16-4.03,1.25-4.22,1.42-2.12,1.85-1.97,4.5-1.96,4.76Z"/>
            </g>
            <g>
              <path class="cls-28" d="m130.69,279.74c.35-2.2,1.16-4.79,3.19-6.13,1.74-1.15,4.25-1.27,7.15-1.56s3.99-.99,5.61-3.06c.59-.76,1.64-2.43,1.66-5.43"/>
              <path class="cls-24" d="m134.42,277.58c.04.21.41,2.51-1.08,4.51-.16.21-.6.75-1.24,1.21-2.59,1.86-6.2,1.26-8.06-1.33-1.86-2.59-1.26-6.2,1.33-8.06.65-.46,1.32-.71,1.55-.79,2.26-.74,4.21.22,4.44.34,2.51,1.28,3.02,3.88,3.06,4.13Z"/>
              <path class="cls-24" d="m155.39,263.38c.04.21.41,2.51-1.08,4.51-.16.21-.6.75-1.24,1.21-2.59,1.86-6.2,1.26-8.06-1.33-1.86-2.59-1.26-6.2,1.33-8.06.65-.46,1.32-.71,1.55-.79,2.26-.74,4.21.22,4.44.34,2.51,1.28,3.02,3.88,3.06,4.13Z"/>
            </g>
            <g>
              <line class="cls-14" x1="149.44" y1="241.11" x2="142.45" y2="247.85"/>
              <line class="cls-14" x1="148.49" y1="238.28" x2="141.5" y2="245.03"/>
              <line class="cls-15" x1="115.48" y1="264.67" x2="121.43" y2="256.99"/>
              <line class="cls-15" x1="112.57" y1="264.04" x2="118.51" y2="256.36"/>
              <path class="cls-29" d="m142.79,245.03c-.65,2.03-1.81,4.35-4.04,5.34-1.9.85-4.46.63-7.41.51s-4.15.39-6.06,2.13c-.7.63-1.98,2.07-2.4,4.88"/>
              <path class="cls-50" d="m134.33,248.32c0-.22-.07-2.55,1.69-4.32.18-.18.7-.66,1.4-1.03,2.82-1.49,6.32-.4,7.8,2.42,1.49,2.82.4,6.32-2.42,7.8-.7.37-1.4.53-1.64.57-2.34.42-4.14-.8-4.35-.94-2.31-1.61-2.46-4.25-2.47-4.51Z"/>
              <path class="cls-50" d="m115.81,257.09c0-.22-.07-2.55,1.69-4.32.18-.18.7-.66,1.4-1.03,2.82-1.49,6.32-.4,7.8,2.42,1.49,2.82.4,6.32-2.42,7.8-.7.37-1.4.53-1.64.57-2.34.42-4.14-.8-4.35-.94-2.31-1.61-2.46-4.25-2.47-4.51Z"/>
              <path class="cls-50" d="m145.8,237.53c-.03-.22-.31-2.53,1.27-4.46.16-.2.63-.72,1.3-1.16,2.67-1.74,6.25-.99,8,1.68s.99,6.25-1.68,8c-.67.44-1.35.66-1.58.72-2.29.64-4.2-.4-4.42-.53-2.45-1.38-2.85-4-2.89-4.26Z"/>
              <path class="cls-50" d="m111.31,261.37c-.22,0-2.55-.03-4.29,1.75-.18.19-.65.7-1.01,1.41-1.44,2.84-.31,6.32,2.54,7.77s6.32.31,7.77-2.54c.36-.71.51-1.41.55-1.65.39-2.34-.86-4.13-1-4.34-1.64-2.29-4.29-2.4-4.54-2.41Z"/>
            </g>
            <g>
              <path class="cls-28" d="m117.81,168.16c-.82,2.13-2.2,4.82-4.37,5.14-1.88.28-3.02-1.41-4.67-1.04-1.17.26-2.68,1.57-3.75,6.7"/>
              <path class="cls-28" d="m118.07,190.52c-.82-2.13-2.2-4.82-4.37-5.14-1.88-.28-3.02,1.41-4.67,1.04-1.17-.26-2.68-1.57-3.75-6.7"/>
              <path class="cls-24" d="m123.16,169c-.08.2-1.01,2.34-3.34,3.21-.24.09-.91.31-1.7.35-3.19.17-5.9-2.28-6.07-5.47s2.28-5.9,5.47-6.07c.79-.04,1.49.11,1.73.17,2.3.6,3.43,2.46,3.56,2.68,1.42,2.43.45,4.89.36,5.13Z"/>
              <path class="cls-24" d="m124.38,192.91c-.13.18-1.54,2.02-4.02,2.3-.26.03-.95.08-1.73-.08-3.13-.61-5.17-3.64-4.56-6.77.61-3.13,3.64-5.17,6.77-4.56.78.15,1.42.47,1.63.58,2.08,1.13,2.73,3.22,2.8,3.46.79,2.7-.75,4.85-.9,5.06Z"/>
              <path class="cls-28" d="m87.86,168.33c.82,2.13,2.2,4.82,4.37,5.14,1.88.28,3.02-1.41,4.67-1.04,1.17.26,2.68,1.57,3.75,6.7"/>
              <path class="cls-28" d="m87.6,190.69c.82-2.13,2.2-4.82,4.37-5.14,1.88-.28,3.02,1.41,4.67,1.04,1.17-.26,2.68-1.57,3.75-6.7"/>
              <path class="cls-24" d="m82.51,169.16c.08.2,1.01,2.34,3.34,3.21.24.09.91.31,1.7.35,3.19.17,5.9-2.28,6.07-5.47s-2.28-5.9-5.47-6.07c-.79-.04-1.49.11-1.73.17-2.3.6-3.43,2.46-3.56,2.68-1.42,2.43-.45,4.89-.36,5.13Z"/>
              <path class="cls-24" d="m81.29,193.07c.13.18,1.54,2.02,4.02,2.3.26.03.95.08,1.73-.08,3.13-.61,5.17-3.64,4.56-6.77-.61-3.13-3.64-5.17-6.77-4.56-.78.15-1.42.47-1.63.58-2.08,1.13-2.73,3.22-2.8,3.46-.79,2.7.75,4.85.9,5.06Z"/>
              <circle class="cls-54" cx="102.77" cy="179.85" r="5.27"/>
            </g>
            <g>
              <line class="cls-14" x1="139.43" y1="221.67" x2="138.14" y2="212.04"/>
              <line class="cls-14" x1="142.27" y1="222.59" x2="140.97" y2="212.96"/>
              <line class="cls-15" x1="140.55" y1="180.36" x2="143.22" y2="189.7"/>
              <line class="cls-15" x1="142.78" y1="178.38" x2="145.45" y2="187.73"/>
              <path class="cls-29" d="m140.21,213.99c-1.25-1.72-2.43-4.04-1.91-6.41.45-2.03,2.13-3.96,3.98-6.27,1.9-2.39,2.14-3.58,1.88-6.14-.1-.94-.5-2.82-2.51-4.82"/>
              <path class="cls-50" d="m142.57,205.23c.18.12,2.09,1.45,2.48,3.91.04.26.12.95,0,1.74-.48,3.15-3.42,5.33-6.57,4.85s-5.33-3.42-4.85-6.57c.12-.79.41-1.44.51-1.66,1.04-2.13,3.1-2.87,3.33-2.95,2.66-.91,4.89.54,5.1.68Z"/>
              <path class="cls-50" d="m146.47,185.12c.18.12,2.09,1.45,2.48,3.91.04.26.12.95,0,1.74-.48,3.15-3.42,5.33-6.57,4.85s-5.33-3.42-4.85-6.57c.12-.79.41-1.44.51-1.66,1.04-2.13,3.1-2.87,3.33-2.95,2.66-.91,4.89.54,5.1.68Z"/>
              <path class="cls-50" d="m144.47,220.86c.19.1,2.22,1.25,2.84,3.66.06.25.21.93.16,1.73-.18,3.19-2.9,5.63-6.09,5.45s-5.63-2.9-5.45-6.09c.04-.79.27-1.47.35-1.7.84-2.22,2.81-3.15,3.04-3.25,2.57-1.15,4.92.07,5.14.19Z"/>
              <path class="cls-50" d="m145.68,178.95c.13-.17,1.53-2.04,1.13-4.49-.04-.26-.18-.94-.54-1.65-1.44-2.85-4.91-3.99-7.76-2.56s-3.99,4.91-2.56,7.76c.36.71.84,1.24,1,1.42,1.66,1.7,3.84,1.76,4.09,1.76,2.81.03,4.47-2.04,4.63-2.24Z"/>
            </g>
          </g>
        </g>
        <rect class="cls-21" x="16.51" y="167.3" width="144" height="144"/>
      </g>
      <g>
        <path class="cls-4" d="m77.21,337.24c2.99,0,6.17,2.07,9.16,2.07s6.04-2.07,9.16-2.07"/>
        <path class="cls-24" d="m112.03,334.99c.04.4.46,4.64-2.51,8.1-.31.36-1.18,1.29-2.42,2.06-4.96,3.08-11.48,1.57-14.56-3.39s-1.57-11.48,3.39-14.56c1.24-.77,2.49-1.15,2.92-1.26,4.21-1.08,7.67.91,8.07,1.14,4.43,2.63,5.06,7.44,5.11,7.9Z"/>
        <text class="cls-16" transform="translate(91.88 341.2)"><tspan x="0" y="0">SH</tspan></text>
        <path class="cls-4" d="m137.61,337.04c3.19,0,5.96,1.61,9.16,1.61,2.91,0,6.25-1.61,9.16-1.61"/>
        <line class="cls-4" x1="137.61" y1="329.63" x2="137.61" y2="343.91"/>
        <g>
          <g>
            <path class="cls-24" d="m171.84,343.15c-2.38,3.15-6.44,4.83-10.57,3.98-5.72-1.18-9.4-6.77-8.22-12.49,1.18-5.72,6.77-9.4,12.49-8.22,4,.82,7,3.81,8.04,7.48"/>
            <circle class="cls-26" cx="170.27" cy="336.67" r="8.34"/>
          </g>
          <circle class="cls-45" cx="169.5" cy="332.57" r="3.32"/>
          <text class="cls-16" transform="translate(153.77 341.45)"><tspan x="0" y="0">S</tspan></text>
        </g>
        <g>
          <line class="cls-2" x1="115.39" y1="336.77" x2="123.7" y2="336.77"/>
          <polygon class="cls-45" points="134.29 336.77 119.37 342.87 122.91 336.77 119.37 330.67 134.29 336.77"/>
        </g>
      </g>
      <line class="cls-4" x1="77.21" y1="330.51" x2="77.21" y2="344.79"/>
      <g id="Layer_26" data-name="Layer 26">
        <rect class="cls-40" x="516.16" y="37.69" width="144" height="144"/>
        <g class="cls-62">
          <g class="cls-69">
            <line class="cls-28" x1="519.24" y1="99.78" x2="515.2" y2="91.58"/>
            <line class="cls-28" x1="585.66" y1="166.16" x2="585.18" y2="176.93"/>
            <line class="cls-28" x1="574.99" y1="153.53" x2="582.52" y2="161.24"/>
            <path class="cls-29" d="m575.16,193.69c.61-2,1.56-4.28,2.97-5.22,1.21-.8,2.67-.53,4.38-.36s2.47-.31,3.78-1.99c.48-.61,1.39-2.01,1.96-4.79"/>
            <path class="cls-50" d="m587.13,172.97c.2.08,2.38.92,3.34,3.22.1.24.34.9.41,1.69.29,3.18-2.06,5.99-5.24,6.27-3.18.29-5.99-2.06-6.27-5.24-.07-.79.05-1.5.1-1.73.51-2.32,2.33-3.52,2.54-3.65,2.37-1.51,4.87-.64,5.11-.55Z"/>
            <path class="cls-50" d="m589,166.42c.09-.2,1.01-2.34.04-4.63-.1-.24-.4-.87-.92-1.47-2.07-2.43-5.72-2.72-8.14-.65-2.43,2.07-2.72,5.72-.65,8.14.52.61,1.11,1.01,1.31,1.14,2.01,1.26,4.14.8,4.39.74,2.74-.64,3.87-3.04,3.97-3.27Z"/>
            <line class="cls-28" x1="617.2" y1="27.88" x2="613.04" y2="37.82"/>
            <line class="cls-28" x1="618.61" y1="10.89" x2="618.4" y2="21.67"/>
            <path class="cls-50" d="m617.85,29.51c-.22-.03-2.51-.44-3.9-2.51-.15-.22-.51-.81-.73-1.57-.9-3.06.86-6.27,3.92-7.17s6.27.86,7.17,3.92c.22.76.24,1.48.23,1.72-.05,2.37-1.6,3.9-1.78,4.08-2.03,1.94-4.66,1.57-4.91,1.53Z"/>
            <line class="cls-28" x1="665.93" y1="138.02" x2="655.98" y2="133.87"/>
            <line class="cls-28" x1="657.69" y1="60.1" x2="647.25" y2="59.55"/>
            <line class="cls-28" x1="667.76" y1="67.68" x2="661.03" y2="59.68"/>
            <line class="cls-28" x1="702.63" y1="83.19" x2="692.49" y2="80.68"/>
            <line class="cls-28" x1="529.04" y1="145.27" x2="519.83" y2="139.66"/>
            <line class="cls-28" x1="545.24" y1="141.99" x2="534.86" y2="144.89"/>
            <line class="cls-28" x1="631.47" y1="90.87" x2="628.08" y2="80.64"/>
            <line class="cls-28" x1="641.56" y1="104.6" x2="634.65" y2="96.34"/>
            <line class="cls-28" x1="660.43" y1="120.85" x2="654.42" y2="129.8"/>
            <line class="cls-28" x1="650.04" y1="160.17" x2="641.77" y2="167.08"/>
            <line class="cls-28" x1="592.74" y1="143" x2="586.89" y2="133.96"/>
            <line class="cls-28" x1="608.64" y1="149.02" x2="598.14" y2="146.61"/>
            <line class="cls-28" x1="638.79" y1="167.82" x2="629.59" y2="162.21"/>
            <g>
              <path class="cls-4" d="m604.54,58.56c1.92-1.24,4.63-2.58,6.57-1.56,1.68.88,1.6,2.92,3.15,3.6,1.1.48,3.09.32,6.99-3.18"/>
              <path class="cls-4" d="m617.57,40.38c-.6,2.2-1.07,5.19.48,6.73,1.35,1.34,3.27.65,4.38,1.93.79.9,1.23,2.85-.94,7.62"/>
              <path class="cls-24" d="m600.72,54.72c.19-.11,2.2-1.29,4.59-.62.25.07.91.29,1.58.73,2.67,1.75,3.41,5.33,1.66,8-1.75,2.67-5.33,3.41-8,1.66-.67-.44-1.14-.97-1.29-1.16-1.5-1.84-1.31-4.01-1.28-4.26.29-2.8,2.53-4.21,2.75-4.35Z"/>
              <path class="cls-24" d="m613.89,34.73c.21-.06,2.44-.72,4.6.52.23.13.81.5,1.35,1.09,2.16,2.34,2.01,6-.33,8.15-2.34,2.16-6,2.01-8.15-.33-.54-.58-.87-1.22-.97-1.44-1.01-2.15-.3-4.21-.21-4.44.96-2.64,3.48-3.47,3.72-3.55Z"/>
              <path class="cls-4" d="m628.79,76.15c.6-2.2,1.07-5.19-.48-6.73-1.35-1.34-3.27-.65-4.38-1.93-.79-.9-1.23-2.85.94-7.62"/>
              <path class="cls-4" d="m642.23,58.28c-1.92,1.24-4.63,2.58-6.57,1.56-1.68-.88-1.6-2.92-3.15-3.6-1.1-.48-3.09-.32-6.99,3.18"/>
              <path class="cls-24" d="m633.6,78.65c.05-.21.57-2.48-.79-4.57-.14-.22-.55-.78-1.17-1.29-2.47-2.02-6.11-1.65-8.13.82-2.02,2.47-1.65,6.11.82,8.13.62.5,1.27.8,1.49.89,2.2.88,4.22.05,4.45-.05,2.58-1.12,3.26-3.68,3.32-3.92Z"/>
              <path class="cls-24" d="m648.72,60.09c0-.22-.05-2.54-1.87-4.23-.19-.18-.72-.63-1.44-.96-2.88-1.36-6.32-.12-7.68,2.76s-.12,6.32,2.76,7.68c.72.34,1.42.46,1.66.5,2.35.32,4.1-.98,4.3-1.13,2.23-1.71,2.27-4.36,2.27-4.61Z"/>
              <circle class="cls-54" cx="623.58" cy="58.04" r="5.27"/>
            </g>
            <path class="cls-29" d="m631.47,161.14c-2.04.61-4.61.98-6.69-.29-1.78-1.09-3.04-3.31-4.63-5.81s-2.68-3.19-5.19-3.79c-.92-.22-2.83-.46-5.38.8"/>
            <path class="cls-50" d="m623.96,156.04c.17-.13,2.06-1.5,4.51-1.06.26.05.94.2,1.64.57,2.83,1.48,3.91,4.97,2.43,7.8-1.48,2.83-4.97,3.91-7.8,2.43-.7-.37-1.23-.86-1.4-1.03-1.67-1.68-1.7-3.86-1.69-4.12.01-2.81,2.11-4.44,2.31-4.59Z"/>
            <path class="cls-50" d="m606.23,145.77c.17-.13,2.06-1.5,4.51-1.06.26.05.94.2,1.64.57,2.83,1.48,3.91,4.97,2.43,7.8-1.48,2.83-4.97,3.91-7.8,2.43-.7-.37-1.23-.86-1.4-1.03-1.67-1.68-1.7-3.86-1.69-4.12.01-2.81,2.11-4.44,2.31-4.59Z"/>
            <path class="cls-50" d="m636.95,164.34c.16-.15,1.91-1.69,4.39-1.48.26.02.95.11,1.69.41,2.95,1.21,4.37,4.58,3.16,7.54s-4.58,4.37-7.54,3.16c-.74-.3-1.3-.74-1.49-.89-1.82-1.52-2.05-3.69-2.08-3.94-.25-2.8,1.68-4.62,1.87-4.79Z"/>
            <path class="cls-50" d="m599.53,141.59c-.12-.18-1.42-2.11-3.87-2.54-.26-.04-.95-.13-1.74-.03-3.16.42-5.38,3.33-4.96,6.49.42,3.16,3.33,5.38,6.49,4.96.79-.11,1.45-.38,1.67-.49,2.15-1.01,2.92-3.05,3-3.29.95-2.65-.46-4.89-.6-5.11Z"/>
            <g>
              <path class="cls-28" d="m666.58,139.46c.34,2.21.37,4.92-1.14,6.82-1.3,1.63-3.65,2.52-6.32,3.69s-3.49,2.17-4.39,4.64c-.33.9-.81,2.82.1,5.67"/>
              <path class="cls-24" d="m663.69,142.66c-.1-.19-1.17-2.26-.36-4.62.08-.25.34-.9.81-1.53,1.9-2.57,5.51-3.11,8.08-1.21,2.57,1.9,3.11,5.51,1.21,8.08-.47.64-1.03,1.08-1.23,1.23-1.92,1.4-4.08,1.09-4.33,1.05-2.78-.44-4.07-2.76-4.19-2.98Z"/>
              <path class="cls-24" d="m648.11,162.63c-.1-.19-1.17-2.26-.36-4.62.08-.25.34-.9.81-1.53,1.9-2.57,5.51-3.11,8.08-1.21s3.11,5.51,1.21,8.08c-.47.64-1.03,1.08-1.23,1.23-1.92,1.4-4.08,1.09-4.33,1.05-2.78-.44-4.07-2.76-4.19-2.98Z"/>
            </g>
            <path class="cls-29" d="m664.75,118.66c-2.08.44-4.68.57-6.64-.87-1.68-1.24-2.75-3.56-4.1-6.19-1.4-2.71-2.39-3.41-4.84-4.22-.9-.29-2.78-.7-5.43.33"/>
            <path class="cls-50" d="m657.71,112.93c.19-.12,2.18-1.32,4.59-.67.25.07.92.28,1.59.71,2.69,1.72,3.47,5.29,1.75,7.98-1.72,2.69-5.29,3.47-7.98,1.75-.67-.43-1.15-.96-1.31-1.14-1.52-1.82-1.36-4-1.33-4.25.26-2.8,2.48-4.24,2.7-4.38Z"/>
            <path class="cls-50" d="m640.94,101.16c.19-.12,2.18-1.32,4.59-.67.25.07.92.28,1.59.71,2.69,1.72,3.47,5.29,1.75,7.98s-5.29,3.47-7.98,1.75c-.67-.43-1.15-.96-1.31-1.14-1.52-1.82-1.36-4-1.33-4.25.26-2.8,2.48-4.24,2.7-4.38Z"/>
            <path class="cls-50" d="m648.83,128.01c.17-.13,2.05-1.52,4.5-1.1.26.04.94.19,1.65.56,2.84,1.46,3.95,4.94,2.49,7.78-1.46,2.84-4.94,3.95-7.78,2.49-.71-.36-1.24-.85-1.41-1.02-1.69-1.67-1.73-3.85-1.73-4.1,0-2.81,2.07-4.46,2.27-4.61Z"/>
            <path class="cls-50" d="m638.08,96.06c.07-.21.81-2.42-.35-4.62-.12-.23-.47-.83-1.04-1.39-2.27-2.24-5.92-2.23-8.17.04-2.24,2.27-2.23,5.92.04,8.17.57.56,1.19.91,1.4,1.02,2.11,1.09,4.2.45,4.44.37,2.68-.86,3.6-3.35,3.68-3.59Z"/>
            <path class="cls-29" d="m693.56,81.75c-2.11.27-4.71.19-6.54-1.41-1.57-1.37-2.45-3.77-3.59-6.51-1.18-2.82-2.11-3.6-4.49-4.6-.87-.37-2.71-.92-5.44-.11"/>
            <path class="cls-50" d="m686.57,74.54c.19-.1,2.28-1.13,4.62-.29.24.09.89.35,1.52.83,2.54,1.93,3.03,5.56,1.1,8.1-1.93,2.54-5.56,3.03-8.1,1.1-.63-.48-1.07-1.05-1.21-1.25-1.37-1.94-1.03-4.09-.98-4.34.48-2.77,2.82-4.03,3.04-4.14Z"/>
            <path class="cls-50" d="m668.08,64.36c.19-.1,2.28-1.13,4.62-.29.24.09.89.35,1.52.83,2.54,1.93,3.03,5.56,1.1,8.1-1.93,2.54-5.56,3.03-8.1,1.1-.63-.48-1.07-1.05-1.21-1.25-1.37-1.94-1.03-4.09-.98-4.34.48-2.77,2.82-4.03,3.04-4.14Z"/>
            <path class="cls-50" d="m702.35,78.97c.18-.12,2.16-1.34,4.58-.73.25.06.92.27,1.59.69,2.71,1.68,3.54,5.25,1.85,7.96-1.68,2.71-5.25,3.54-7.96,1.85-.68-.42-1.16-.94-1.32-1.13-1.55-1.8-1.41-3.98-1.39-4.23.22-2.81,2.43-4.28,2.64-4.41Z"/>
            <path class="cls-50" d="m666.19,57.81c-.09-.2-1.03-2.33-3.37-3.18-.24-.09-.91-.3-1.7-.33-3.19-.14-5.88,2.34-6.02,5.53s2.34,5.88,5.53,6.02c.8.03,1.49-.12,1.73-.19,2.29-.62,3.41-2.49,3.53-2.71,1.4-2.44.41-4.9.31-5.13Z"/>
            <g>
              <path class="cls-28" d="m547.48,140.5c1.55-1.68,3.83-3.66,5.96-3.16,1.85.43,2.28,2.43,3.96,2.7,1.18.19,3.07-.47,5.97-4.83"/>
              <path class="cls-28" d="m555.52,119.63c-.03,2.28.26,5.29,2.15,6.4,1.64.96,3.33-.19,4.73.77.99.68,1.91,2.45,1.01,7.61"/>
              <path class="cls-24" d="m542.82,137.75c.15-.16,1.8-1.8,4.29-1.75.26,0,.96.05,1.71.31,3.02,1.03,4.64,4.31,3.61,7.33s-4.31,4.64-7.33,3.61c-.75-.26-1.35-.65-1.54-.8-1.91-1.4-2.28-3.55-2.31-3.8-.42-2.78,1.39-4.71,1.57-4.9Z"/>
              <path class="cls-24" d="m550.55,115.08c.19-.11,2.18-1.31,4.58-.65.25.07.91.28,1.58.71,2.68,1.73,3.45,5.3,1.72,7.98-1.73,2.68-5.3,3.45-7.98,1.72-.67-.43-1.15-.96-1.3-1.15-1.51-1.83-1.34-4-1.32-4.25.27-2.8,2.49-4.23,2.71-4.36Z"/>
              <path class="cls-28" d="m575.37,151.44c.03-2.28-.26-5.29-2.15-6.4-1.64-.96-3.33.19-4.73-.77-.99-.68-1.91-2.45-1.01-7.61"/>
              <path class="cls-28" d="m583.89,130.77c-1.55,1.68-3.83,3.66-5.96,3.16-1.85-.43-2.28-2.43-3.96-2.7-1.18-.19-3.07.47-5.97,4.83"/>
              <path class="cls-24" d="m580.64,152.65c0-.22-.07-2.55-1.91-4.22-.19-.18-.73-.62-1.45-.95-2.9-1.33-6.33-.07-7.66,2.83s-.07,6.33,2.83,7.66c.72.33,1.43.45,1.67.48,2.35.3,4.1-1.01,4.3-1.17,2.22-1.73,2.23-4.38,2.23-4.63Z"/>
              <path class="cls-24" d="m590.63,130.89c-.06-.21-.68-2.45-2.88-3.63-.23-.12-.86-.43-1.64-.57-3.13-.59-6.15,1.47-6.74,4.6-.59,3.13,1.47,6.15,4.6,6.74.78.15,1.49.09,1.73.06,2.35-.28,3.72-1.98,3.88-2.17,1.73-2.21,1.1-4.79,1.04-5.03Z"/>
              <circle class="cls-54" cx="565.78" cy="135.22" r="5.27"/>
            </g>
            <path class="cls-29" d="m509.96,122.82c1.46,1.5,3,3.43,3.14,5.11.12,1.44-.82,2.6-1.79,4.02-1.01,1.46-.92,2.31-.08,4.27.31.72,1.09,2.19,3.26,4.02"/>
            <path class="cls-50" d="m517.93,92.4c-.16.14-1.95,1.64-4.42,1.38-.26-.03-.95-.13-1.68-.45-2.92-1.28-4.26-4.68-2.98-7.61,1.28-2.92,4.68-4.26,7.61-2.98.73.32,1.29.77,1.47.93,1.79,1.56,1.96,3.73,1.98,3.99.18,2.81-1.79,4.58-1.98,4.75Z"/>
            <path class="cls-50" d="m522.37,143.28c-.16.14-1.95,1.64-4.42,1.38-.26-.03-.95-.13-1.68-.45-2.92-1.28-4.26-4.68-2.98-7.61,1.28-2.92,4.68-4.26,7.61-2.98.73.32,1.29.77,1.47.93,1.79,1.56,1.96,3.73,1.98,3.99.18,2.81-1.79,4.58-1.98,4.75Z"/>
            <path class="cls-50" d="m523.86,106.16c-.15.16-1.79,1.82-4.27,1.79-.26,0-.96-.04-1.71-.29-3.03-1-4.68-4.26-3.68-7.29s4.26-4.68,7.29-3.68c.76.25,1.35.64,1.55.78,1.93,1.39,2.31,3.53,2.35,3.78.45,2.78-1.35,4.73-1.52,4.91Z"/>
            <path class="cls-50" d="m527.2,148.07c.13.17,1.57,2.01,4.04,2.26.26.03.96.07,1.73-.09,3.12-.65,5.13-3.7,4.48-6.83-.65-3.12-3.7-5.13-6.83-4.48-.78.16-1.42.48-1.63.6-2.07,1.16-2.69,3.25-2.76,3.49-.76,2.71.8,4.85.96,5.05Z"/>
          </g>
          <g class="cls-69">
            <line class="cls-28" x1="532.89" y1="81.38" x2="538.57" y2="93.17"/>
            <line class="cls-28" x1="540.08" y1="67.01" x2="534.94" y2="76.11"/>
            <line class="cls-28" x1="570.58" y1="111.24" x2="561.17" y2="106.72"/>
            <line class="cls-28" x1="574.41" y1="110.98" x2="581.84" y2="103.64"/>
            <line class="cls-28" x1="563.51" y1="55.05" x2="569.49" y2="63.62"/>
            <line class="cls-28" x1="572.3" y1="65.77" x2="585.99" y2="71.03"/>
            <line class="cls-28" x1="604.15" y1="84.18" x2="616.66" y2="90.01"/>
            <line class="cls-28" x1="609.23" y1="106.34" x2="616.49" y2="94.19"/>
            <g>
              <path class="cls-4" d="m560.19,55.03c-2.28.14-5.3-.02-6.49-1.86-1.03-1.6.04-3.33-.98-4.69-.72-.96-2.54-1.79-7.65-.66"/>
              <path class="cls-4" d="m539.92,64.5c1.61-1.62,3.48-3.99,2.88-6.1-.52-1.83-2.53-2.17-2.87-3.83-.25-1.17.33-3.09,4.55-6.18"/>
              <path class="cls-24" d="m561.64,60.25c-.22,0-2.55.05-4.3-1.72-.18-.18-.65-.7-1.02-1.41-1.47-2.83-.36-6.32,2.48-7.78s6.32-.36,7.78,2.48c.37.71.52,1.41.56,1.64.41,2.34-.83,4.14-.97,4.34-1.62,2.3-4.27,2.43-4.53,2.44Z"/>
              <path class="cls-24" d="m540.36,71.22c-.21-.05-2.48-.57-3.76-2.71-.13-.22-.46-.84-.65-1.61-.73-3.1,1.19-6.21,4.29-6.94s6.21,1.19,6.94,4.29c.18.77.16,1.49.14,1.73-.17,2.37-1.8,3.81-1.99,3.97-2.13,1.83-4.73,1.32-4.98,1.27Z"/>
              <path class="cls-4" d="m547.68,27.82c-1.61,1.62-3.48,3.99-2.88,6.1.52,1.83,2.53,2.17,2.87,3.83.25,1.17-.33,3.09-4.55,6.18"/>
              <path class="cls-4" d="m527.2,36.8c2.28-.14,5.3.02,6.49,1.86,1.03,1.6-.04,3.33.98,4.69.72.96,2.54,1.79,7.65.66"/>
              <path class="cls-24" d="m544.72,23.28c-.15.16-1.72,1.88-1.55,4.37.02.26.09.95.38,1.69,1.16,2.97,4.51,4.44,7.48,3.27s4.44-4.51,3.27-7.48c-.29-.74-.71-1.32-.87-1.5-1.49-1.85-3.65-2.11-3.91-2.14-2.8-.29-4.65,1.61-4.82,1.79Z"/>
              <path class="cls-24" d="m522.43,32.04c-.11.19-1.21,2.24-.44,4.61.08.25.32.9.78,1.55,1.85,2.6,5.45,3.2,8.05,1.36,2.6-1.85,3.2-5.45,1.36-8.05-.46-.65-1.01-1.1-1.21-1.25-1.89-1.43-4.05-1.16-4.3-1.12-2.78.39-4.11,2.68-4.24,2.91Z"/>
              <circle class="cls-54" cx="543.34" cy="46.16" r="5.27"/>
            </g>
            <path class="cls-29" d="m537.48,91.95c.66,2.02,1.83,4.35,4.05,5.33,1.91.84,4.46.61,7.41.49s4.15.38,6.07,2.11c.7.63,1.99,2.06,2.41,4.87"/>
            <path class="cls-50" d="m545.58,97.78c.11-.19,1.24-2.23.51-4.61-.08-.25-.31-.91-.76-1.56-1.81-2.63-5.41-3.28-8.04-1.47-2.63,1.81-3.28,5.41-1.47,8.04.45.66,1,1.12,1.19,1.27,1.87,1.46,4.04,1.22,4.29,1.19,2.79-.35,4.15-2.63,4.28-2.85Z"/>
            <path class="cls-50" d="m562.28,108.61c.11-.19,1.24-2.23.51-4.61-.08-.25-.31-.91-.76-1.56-1.81-2.63-5.41-3.28-8.04-1.47s-3.28,5.41-1.47,8.04c.45.66,1,1.12,1.19,1.27,1.87,1.46,4.04,1.22,4.29,1.19,2.79-.35,4.15-2.63,4.28-2.85Z"/>
            <path class="cls-50" d="m537.97,82.8c.13-.18,1.44-2.1.94-4.54-.05-.25-.22-.93-.61-1.63-1.56-2.78-5.08-3.78-7.86-2.22-2.78,1.56-3.78,5.08-2.22,7.86.39.69.89,1.21,1.06,1.37,1.73,1.63,3.91,1.59,4.16,1.58,2.81-.09,4.38-2.22,4.53-2.43Z"/>
            <path class="cls-50" d="m576.03,106.94c.2.1,2.27,1.16,2.99,3.54.08.25.25.93.24,1.72-.04,3.19-2.66,5.74-5.85,5.7s-5.74-2.66-5.7-5.85c0-.8.2-1.48.28-1.71.74-2.25,2.68-3.26,2.9-3.38,2.51-1.26,4.91-.14,5.14-.02Z"/>
            <g>
              <path class="cls-28" d="m586.21,103.64c1.67-1.48,3.94-2.96,6.36-2.71,2.07.22,4.09,1.72,6.51,3.34s3.71,1.77,6.27,1.2c.94-.21,2.81-.84,4.73-3.14"/>
              <path class="cls-24" d="m590.46,104.35c-.11.19-1.28,2.2-3.7,2.79-.25.06-.94.2-1.73.14-3.18-.22-5.59-2.97-5.37-6.15.22-3.18,2.97-5.59,6.15-5.37.79.05,1.47.29,1.7.37,2.21.87,3.11,2.85,3.21,3.08,1.12,2.58-.13,4.91-.26,5.14Z"/>
              <path class="cls-24" d="m615.68,106.72c-.11.19-1.28,2.2-3.7,2.79-.25.06-.94.2-1.73.14-3.18-.22-5.59-2.97-5.37-6.15.22-3.18,2.97-5.59,6.15-5.37.79.05,1.47.29,1.7.37,2.21.87,3.11,2.85,3.21,3.08,1.12,2.58-.13,4.91-.26,5.14Z"/>
            </g>
            <path class="cls-29" d="m605.5,85.47c-2.11.24-4.71.14-6.53-1.47-1.56-1.39-2.41-3.8-3.52-6.54-1.15-2.83-2.07-3.62-4.44-4.65-.87-.38-2.7-.95-5.43-.17"/>
            <path class="cls-50" d="m599.02,79.12c.2-.1,2.29-1.11,4.63-.25.24.09.89.36,1.51.85,2.52,1.96,2.97,5.59,1.01,8.11-1.96,2.52-5.59,2.97-8.11,1.01-.63-.49-1.06-1.06-1.2-1.26-1.35-1.95-.98-4.1-.94-4.35.51-2.77,2.86-4,3.09-4.11Z"/>
            <path class="cls-50" d="m583.39,65.87c.2-.1,2.29-1.11,4.63-.25.24.09.89.36,1.51.85,2.52,1.96,2.97,5.59,1.01,8.11s-5.59,2.97-8.11,1.01c-.63-.49-1.06-1.06-1.2-1.26-1.35-1.95-.98-4.1-.94-4.35.51-2.77,2.86-4,3.09-4.11Z"/>
            <path class="cls-50" d="m613.58,85.11c.19-.12,2.18-1.32,4.58-.68.25.07.92.28,1.59.7,2.69,1.71,3.48,5.28,1.77,7.98s-5.28,3.48-7.98,1.77c-.67-.43-1.15-.96-1.31-1.14-1.53-1.82-1.37-3.99-1.34-4.24.25-2.8,2.47-4.25,2.69-4.38Z"/>
            <path class="cls-50" d="m577.63,63.53c-.08-.2-1.02-2.33-3.36-3.19-.24-.09-.91-.3-1.7-.34-3.19-.14-5.89,2.33-6.03,5.51-.14,3.19,2.33,5.89,5.51,6.03.8.04,1.49-.12,1.73-.18,2.29-.61,3.41-2.48,3.54-2.7,1.4-2.44.42-4.9.32-5.13Z"/>
          </g>
          <g>
            <line class="cls-28" x1="546.19" y1="163.98" x2="554.93" y2="158.26"/>
            <line class="cls-28" x1="533.59" y1="163.84" x2="543.74" y2="166.3"/>
            <line class="cls-28" x1="496.3" y1="171.97" x2="505.96" y2="167.99"/>
            <line class="cls-28" x1="592.56" y1="157.04" x2="598.73" y2="165.47"/>
            <line class="cls-28" x1="614.14" y1="168.17" x2="603.7" y2="168.17"/>
            <line class="cls-28" x1="645.44" y1="147.5" x2="637.43" y2="154.21"/>
            <line class="cls-28" x1="646.77" y1="143.91" x2="643.15" y2="134.11"/>
            <line class="cls-28" x1="591.33" y1="130.77" x2="601.6" y2="128.85"/>
            <line class="cls-28" x1="606.26" y1="126.11" x2="613.1" y2="118.26"/>
            <line class="cls-28" x1="657.43" y1="107.62" x2="667.31" y2="103.31"/>
            <line class="cls-28" x1="605.49" y1="86.52" x2="609.88" y2="96.36"/>
            <line class="cls-28" x1="606.06" y1="82.13" x2="615.94" y2="77.83"/>
            <line class="cls-28" x1="621.53" y1="76.83" x2="632.16" y2="78.63"/>
            <line class="cls-28" x1="632.55" y1="51.12" x2="643.17" y2="52.92"/>
            <line class="cls-28" x1="618.71" y1="60.17" x2="627.27" y2="53.63"/>
            <line class="cls-28" x1="549.12" y1="123.67" x2="557.9" y2="129.91"/>
            <line class="cls-28" x1="534.54" y1="116.5" x2="544.73" y2="119.99"/>
            <line class="cls-28" x1="519.91" y1="97.4" x2="527.53" y2="89.78"/>
            <line class="cls-28" x1="530.34" y1="84.51" x2="530.34" y2="73.73"/>
            <line class="cls-28" x1="572.57" y1="52.53" x2="581.35" y2="58.76"/>
            <line class="cls-28" x1="555.57" y1="52.83" x2="566.22" y2="51.17"/>
            <line class="cls-28" x1="520.6" y1="46.53" x2="531.23" y2="48.33"/>
            <g>
              <path class="cls-24" d="m631.34,75.84c.16-.15,1.88-1.72,4.36-1.57.26.02.95.09,1.69.38,2.98,1.15,4.45,4.5,3.3,7.47-1.15,2.98-4.5,4.45-7.47,3.3-.74-.29-1.32-.71-1.51-.86-1.85-1.48-2.12-3.65-2.15-3.9-.3-2.8,1.59-4.65,1.77-4.83Z"/>
              <path class="cls-24" d="m614.74,72.59c.16-.15,1.88-1.72,4.36-1.57.26.02.95.09,1.69.38,2.98,1.15,4.45,4.5,3.3,7.47-1.15,2.98-4.5,4.45-7.47,3.3-.74-.29-1.32-.71-1.51-.86-1.85-1.48-2.12-3.65-2.15-3.9-.3-2.8,1.59-4.65,1.77-4.83Z"/>
            </g>
            <g>
              <path class="cls-4" d="m589.94,133.78c-.82,2.13-2.2,4.82-4.37,5.14-1.88.28-3.02-1.41-4.67-1.04-1.17.26-2.68,1.57-3.75,6.7"/>
              <path class="cls-4" d="m590.2,156.15c-.82-2.13-2.2-4.82-4.37-5.14-1.88-.28-3.02,1.41-4.67,1.04-1.17-.26-2.68-1.57-3.75-6.7"/>
              <path class="cls-24" d="m595.3,134.62c-.08.2-1.01,2.34-3.34,3.21-.24.09-.91.31-1.7.35-3.19.17-5.9-2.28-6.07-5.47-.17-3.19,2.28-5.9,5.47-6.07.79-.04,1.49.11,1.73.17,2.3.6,3.43,2.46,3.56,2.68,1.42,2.43.45,4.89.36,5.13Z"/>
              <path class="cls-24" d="m596.51,158.53c-.13.18-1.54,2.02-4.02,2.3-.26.03-.95.08-1.73-.08-3.13-.61-5.17-3.64-4.56-6.77s3.64-5.17,6.77-4.56c.78.15,1.42.47,1.63.58,2.08,1.13,2.73,3.22,2.8,3.46.79,2.7-.75,4.85-.9,5.06Z"/>
              <path class="cls-4" d="m559.99,133.95c.82,2.13,2.2,4.82,4.37,5.14,1.88.28,3.02-1.41,4.67-1.04,1.17.26,2.68,1.57,3.75,6.7"/>
              <path class="cls-4" d="m559.73,156.31c.82-2.13,2.2-4.82,4.37-5.14,1.88-.28,3.02,1.41,4.67,1.04,1.17-.26,2.68-1.57,3.75-6.7"/>
              <path class="cls-24" d="m554.64,134.78c.08.2,1.01,2.34,3.34,3.21.24.09.91.31,1.7.35,3.19.17,5.9-2.28,6.07-5.47s-2.28-5.9-5.47-6.07c-.79-.04-1.49.11-1.73.17-2.3.6-3.43,2.46-3.56,2.68-1.42,2.43-.45,4.89-.36,5.13Z"/>
              <path class="cls-24" d="m553.42,158.69c.13.18,1.54,2.02,4.02,2.3.26.03.95.08,1.73-.08,3.13-.61,5.17-3.64,4.56-6.77s-3.64-5.17-6.77-4.56c-.78.15-1.42.47-1.63.58-2.08,1.13-2.73,3.22-2.8,3.46-.79,2.7.75,4.85.9,5.06Z"/>
              <circle class="cls-54" cx="574.91" cy="145.47" r="5.27"/>
            </g>
            <path class="cls-29" d="m529.88,50.02c1.67-1.33,3.92-2.62,6.32-2.2,2.05.35,4.05,1.95,6.45,3.69s3.67,1.97,6.22,1.59c.93-.14,2.8-.62,4.7-2.73"/>
            <path class="cls-50" d="m538.74,51.98c-.11.19-1.36,2.16-3.8,2.66-.25.05-.94.16-1.73.08-3.17-.33-5.48-3.17-5.15-6.34.33-3.17,3.17-5.48,6.34-5.15.79.08,1.46.34,1.68.44,2.18.94,3.01,2.96,3.1,3.2,1.03,2.62-.31,4.91-.44,5.12Z"/>
            <path class="cls-50" d="m559.01,54.95c-.11.19-1.36,2.16-3.8,2.66-.25.05-.94.16-1.73.08-3.17-.33-5.48-3.17-5.15-6.34s3.17-5.48,6.34-5.15c.79.08,1.46.34,1.68.44,2.18.94,3.01,2.96,3.1,3.2,1.03,2.62-.31,4.91-.44,5.12Z"/>
            <path class="cls-50" d="m523.6,49.09c-.1.2-1.15,2.27-3.53,3-.25.08-.92.25-1.72.24-3.19-.03-5.75-2.64-5.72-5.83s2.64-5.75,5.83-5.72c.8,0,1.48.2,1.71.28,2.26.74,3.27,2.66,3.39,2.89,1.27,2.51.15,4.91.04,5.14Z"/>
            <path class="cls-50" d="m566.78,56.36c.18.13,2.1,1.44,4.54.93.25-.05.93-.23,1.62-.62,2.78-1.57,3.76-5.09,2.2-7.87-1.57-2.78-5.09-3.76-7.87-2.2-.69.39-1.2.89-1.37,1.07-1.62,1.73-1.58,3.91-1.57,4.16.1,2.81,2.24,4.38,2.45,4.52Z"/>
            <g>
              <path class="cls-28" d="m529.25,66.99c-1.81,1.3-4.22,2.55-6.6,2.05-2.04-.43-3.9-2.12-6.14-3.98s-3.51-2.14-6.12-1.83c-.96.11-2.88.55-5.02,2.64"/>
              <path class="cls-24" d="m525.09,65.85c.13-.18,1.5-2.06,3.96-2.4.26-.04.95-.1,1.74.03,3.14.54,5.26,3.52,4.72,6.67-.54,3.14-3.52,5.26-6.67,4.72-.78-.13-1.43-.43-1.65-.54-2.11-1.08-2.81-3.15-2.88-3.39-.86-2.68.63-4.87.78-5.08Z"/>
              <path class="cls-24" d="m500.24,60.94c.13-.18,1.5-2.06,3.96-2.4.26-.04.95-.1,1.74.03,3.14.54,5.26,3.52,4.72,6.67-.54,3.14-3.52,5.26-6.67,4.72-.78-.13-1.43-.43-1.65-.54-2.11-1.08-2.81-3.15-2.88-3.39-.86-2.68.63-4.87.78-5.08Z"/>
            </g>
            <path class="cls-29" d="m515.24,98.72c2.13-.03,4.7.34,6.34,2.13,1.41,1.54,2.01,4.03,2.83,6.87s1.69,3.81,3.94,5.08c.82.46,2.59,1.22,5.39.73"/>
            <path class="cls-50" d="m521.04,105.7c-.2.08-2.39.87-4.63-.23-.23-.11-.85-.45-1.42-1-2.3-2.21-2.38-5.86-.18-8.17,2.21-2.3,5.86-2.38,8.17-.18.57.55.94,1.16,1.06,1.37,1.14,2.08.56,4.18.49,4.42-.79,2.7-3.25,3.68-3.49,3.77Z"/>
            <path class="cls-50" d="m535.22,120.48c-.2.08-2.39.87-4.63-.23-.23-.11-.85-.45-1.42-1-2.3-2.21-2.38-5.86-.18-8.17s5.86-2.38,8.17-.18c.57.55.94,1.16,1.06,1.37,1.14,2.08.56,4.18.49,4.42-.79,2.7-3.25,3.68-3.49,3.77Z"/>
            <path class="cls-50" d="m532.66,92.61c-.2.1-2.3,1.09-4.63.21-.24-.09-.88-.37-1.51-.86-2.5-1.98-2.92-5.61-.95-8.11s5.61-2.92,8.11-.95c.62.49,1.05,1.07,1.19,1.27,1.33,1.96.95,4.11.9,4.36-.54,2.76-2.89,3.97-3.12,4.09Z"/>
            <path class="cls-50" d="m540.72,123.4c.06.21.78,2.43,3.02,3.52.23.11.87.39,1.66.51,3.16.47,6.09-1.71,6.56-4.87s-1.71-6.09-4.87-6.56c-.79-.12-1.5-.03-1.74,0-2.34.37-3.65,2.12-3.79,2.33-1.65,2.28-.92,4.83-.84,5.07Z"/>
            <path class="cls-29" d="m614.21,169.7c2.11.24,4.71.13,6.52-1.49,1.55-1.39,2.4-3.81,3.5-6.55,1.14-2.83,2.06-3.63,4.42-4.66.86-.38,2.7-.96,5.43-.19"/>
            <path class="cls-50" d="m622.86,164.73c-.13-.18-1.52-2.05-3.99-2.36-.26-.03-.95-.09-1.74.05-3.14.57-5.22,3.57-4.66,6.71.57,3.14,3.57,5.22,6.71,4.66.78-.14,1.43-.45,1.64-.56,2.1-1.11,2.78-3.18,2.85-3.42.83-2.69-.68-4.87-.83-5.07Z"/>
            <path class="cls-50" d="m639.62,153.97c-.13-.18-1.52-2.05-3.99-2.36-.26-.03-.95-.09-1.74.05-3.14.57-5.22,3.57-4.66,6.71.57,3.14,3.57,5.22,6.71,4.66.78-.14,1.43-.45,1.64-.56,2.1-1.11,2.78-3.18,2.85-3.42.83-2.69-.68-4.87-.83-5.07Z"/>
            <path class="cls-50" d="m606.07,165.48c-.11-.19-1.32-2.18-3.75-2.73-.25-.06-.94-.18-1.73-.11-3.18.27-5.54,3.07-5.27,6.24s3.07,5.54,6.24,5.27c.79-.07,1.46-.31,1.69-.4,2.2-.9,3.06-2.9,3.16-3.14,1.08-2.6-.22-4.91-.35-5.13Z"/>
            <path class="cls-50" d="m643.76,140.76c.17-.14,1.99-1.59,4.46-1.27.26.03.95.16,1.66.49,2.89,1.35,4.14,4.79,2.78,7.68s-4.79,4.14-7.68,2.78c-.72-.34-1.27-.8-1.44-.96-1.75-1.61-1.87-3.78-1.88-4.03-.11-2.81,1.9-4.53,2.1-4.69Z"/>
            <path class="cls-29" d="m504.46,167.76c1.55-1.46,3.68-2.94,6.11-2.74,2.08.17,4.21,1.59,6.74,3.12s3.83,1.65,6.34,1.05c.92-.22,2.73-.86,4.45-3.13"/>
            <path class="cls-50" d="m514.37,169.44c-.1.2-1.17,2.26-3.55,2.97-.25.07-.93.24-1.72.23-3.19-.06-5.73-2.69-5.67-5.88s2.69-5.73,5.88-5.67c.8.01,1.48.21,1.71.29,2.25.75,3.25,2.69,3.36,2.92,1.25,2.52.11,4.91,0,5.14Z"/>
            <path class="cls-50" d="m535.29,166.7c-.1.2-1.17,2.26-3.55,2.97-.25.07-.93.24-1.72.23-3.19-.06-5.73-2.69-5.67-5.88s2.69-5.73,5.88-5.67c.8.01,1.48.21,1.71.29,2.25.75,3.25,2.69,3.36,2.92,1.25,2.52.11,4.91,0,5.14Z"/>
            <path class="cls-50" d="m499.02,175.2c-.08.2-.95,2.36-3.26,3.3-.24.1-.9.33-1.69.39-3.18.24-5.96-2.14-6.2-5.32-.24-3.18,2.14-5.96,5.32-6.2.79-.06,1.5.07,1.73.13,2.31.54,3.49,2.37,3.62,2.59,1.48,2.39.57,4.88.48,5.12Z"/>
            <path class="cls-50" d="m540.69,170.86c.19.11,2.21,1.27,4.6.57.25-.07.91-.3,1.57-.74,2.65-1.78,3.36-5.37,1.58-8.02s-5.37-3.36-8.02-1.58c-.66.44-1.13.98-1.28,1.17-1.48,1.85-1.27,4.02-1.24,4.27.32,2.8,2.57,4.19,2.79,4.32Z"/>
            <g>
              <path class="cls-28" d="m644.96,130.13c-.66-2.13-1.07-4.81.16-6.91,1.05-1.8,3.25-3.02,5.72-4.55s3.14-2.65,3.68-5.22c.2-.94.4-2.91-.91-5.6"/>
              <path class="cls-24" d="m647.36,126.55c.13.18,1.48,2.07,1.02,4.52-.05.26-.21.94-.58,1.64-1.51,2.81-5.01,3.87-7.82,2.36s-3.87-5.01-2.36-7.82c.38-.7.87-1.22,1.04-1.39,1.7-1.66,3.88-1.66,4.13-1.65,2.81.04,4.42,2.15,4.57,2.35Z"/>
              <path class="cls-24" d="m659.92,104.55c.13.18,1.48,2.07,1.02,4.52-.05.26-.21.94-.58,1.64-1.51,2.81-5.01,3.87-7.82,2.36-2.81-1.51-3.87-5.01-2.36-7.82.38-.7.87-1.22,1.04-1.39,1.7-1.66,3.88-1.66,4.13-1.65,2.81.04,4.42,2.15,4.57,2.35Z"/>
            </g>
            <path class="cls-29" d="m604.99,97.64c2.02.66,4.34,1.84,5.32,4.07.83,1.91.6,4.46.46,7.42-.14,3.05.37,4.15,2.09,6.07.63.7,2.06,1.99,4.87,2.43"/>
            <path class="cls-50" d="m604.05,100.01c0-.22-.07-2.55,1.69-4.32.18-.18.7-.66,1.4-1.03,2.82-1.49,6.32-.4,7.8,2.42s.4,6.32-2.42,7.8c-.7.37-1.4.53-1.64.57-2.34.42-4.14-.8-4.35-.94-2.31-1.61-2.46-4.25-2.47-4.51Z"/>
            <path class="cls-50" d="m609.38,117.11c0-.22-.07-2.55,1.69-4.32.18-.18.7-.66,1.4-1.03,2.82-1.49,6.32-.4,7.8,2.42s.4,6.32-2.42,7.8c-.7.37-1.4.53-1.64.57-2.34.42-4.14-.8-4.35-.94-2.31-1.61-2.46-4.25-2.47-4.51Z"/>
            <path class="cls-50" d="m598.42,84.54c-.03-.22-.31-2.53,1.27-4.46.16-.2.63-.72,1.3-1.16,2.67-1.74,6.25-.99,8,1.68s.99,6.25-1.68,8c-.67.44-1.35.66-1.58.72-2.29.64-4.2-.4-4.42-.53-2.45-1.38-2.85-4-2.89-4.26Z"/>
            <path class="cls-50" d="m604.87,121.4c-.22,0-2.55-.03-4.29,1.75-.18.19-.65.7-1.01,1.41-1.44,2.84-.31,6.32,2.54,7.77s6.32.31,7.77-2.54c.36-.71.51-1.41.55-1.65.39-2.34-.86-4.13-1-4.34-1.64-2.29-4.29-2.4-4.54-2.41Z"/>
            <g>
              <path class="cls-28" d="m615.53,38.08c-.82,2.13-2.2,4.82-4.37,5.14-1.88.28-3.02-1.41-4.67-1.04-1.17.26-2.68,1.57-3.75,6.7"/>
              <path class="cls-28" d="m615.8,60.45c-.82-2.13-2.2-4.82-4.37-5.14-1.88-.28-3.02,1.41-4.67,1.04-1.17-.26-2.68-1.57-3.75-6.7"/>
              <path class="cls-24" d="m620.89,38.92c-.08.2-1.01,2.34-3.34,3.21-.24.09-.91.31-1.7.35-3.19.17-5.9-2.28-6.07-5.47s2.28-5.9,5.47-6.07c.79-.04,1.49.11,1.73.17,2.3.6,3.43,2.46,3.56,2.68,1.42,2.43.45,4.89.36,5.13Z"/>
              <path class="cls-24" d="m622.1,62.83c-.13.18-1.54,2.02-4.02,2.3-.26.03-.95.08-1.73-.08-3.13-.61-5.17-3.64-4.56-6.77.61-3.13,3.64-5.17,6.77-4.56.78.15,1.42.47,1.63.58,2.08,1.13,2.73,3.22,2.8,3.46.79,2.7-.75,4.85-.9,5.06Z"/>
              <path class="cls-28" d="m585.58,38.25c.82,2.13,2.2,4.82,4.37,5.14,1.88.28,3.02-1.41,4.67-1.04,1.17.26,2.68,1.57,3.75,6.7"/>
              <path class="cls-28" d="m585.32,60.61c.82-2.13,2.2-4.82,4.37-5.14,1.88-.28,3.02,1.41,4.67,1.04,1.17-.26,2.68-1.57,3.75-6.7"/>
              <path class="cls-24" d="m580.23,39.08c.08.2,1.01,2.34,3.34,3.21.24.09.91.31,1.7.35,3.19.17,5.9-2.28,6.07-5.47.17-3.19-2.28-5.9-5.47-6.07-.79-.04-1.49.11-1.73.17-2.3.6-3.43,2.46-3.56,2.68-1.42,2.43-.45,4.89-.36,5.13Z"/>
              <path class="cls-24" d="m579.01,62.99c.13.18,1.54,2.02,4.02,2.3.26.03.95.08,1.73-.08,3.13-.61,5.17-3.64,4.56-6.77s-3.64-5.17-6.77-4.56c-.78.15-1.42.47-1.63.58-2.08,1.13-2.73,3.22-2.8,3.46-.79,2.7.75,4.85.9,5.06Z"/>
              <circle class="cls-54" cx="600.5" cy="49.77" r="5.27"/>
            </g>
            <path class="cls-29" d="m658.59,64.91c-1.91-.85-4.06-2.07-4.81-3.58-.65-1.3-.2-2.72.18-4.4.39-1.73,0-2.49-1.51-4-.55-.55-1.83-1.63-4.52-2.53"/>
            <path class="cls-50" d="m639.48,50.5c.1-.19,1.2-2.25,3.6-2.92.25-.07.93-.23,1.72-.2,3.19.11,5.69,2.78,5.58,5.96-.11,3.19-2.78,5.69-5.96,5.58-.8-.03-1.48-.24-1.71-.32-2.24-.79-3.21-2.74-3.32-2.97-1.21-2.54-.04-4.92.08-5.14Z"/>
            <path class="cls-50" d="m633.21,47.84c-.19-.11-2.2-1.29-4.59-.6-.25.07-.91.29-1.58.73-2.66,1.76-3.39,5.34-1.64,8s5.34,3.39,8,1.64c.66-.44,1.14-.97,1.29-1.16,1.5-1.84,1.3-4.02,1.27-4.27-.3-2.8-2.54-4.21-2.76-4.34Z"/>
            <line class="cls-28" x1="654.94" y1="65.76" x2="651.77" y2="74.33"/>
            <line class="cls-28" x1="638.5" y1="78.88" x2="650.07" y2="78.23"/>
            <path class="cls-50" d="m645.33,73.57c.1-.19,1.2-2.25,3.6-2.92.25-.07.93-.23,1.72-.2,3.19.11,5.69,2.78,5.58,5.96s-2.78,5.69-5.96,5.58c-.8-.03-1.48-.24-1.71-.32-2.24-.79-3.21-2.74-3.32-2.97-1.21-2.54-.04-4.92.08-5.14Z"/>
            <path class="cls-50" d="m650.19,61.23c.08-.2.98-2.35,3.31-3.24.24-.09.9-.32,1.7-.36,3.18-.2,5.92,2.23,6.12,5.41.2,3.18-2.23,5.92-5.41,6.12-.79.05-1.49-.09-1.73-.15-2.3-.57-3.45-2.43-3.58-2.64-1.45-2.41-.5-4.89-.4-5.13Z"/>
          </g>
        </g>
        <rect class="cls-21" x="516.16" y="37.69" width="144" height="144"/>
      </g>
      <g>
        <line class="cls-20" x1="482.3" y1="108.93" x2="514.62" y2="108.93"/>
        <g>
          <circle class="cls-40" cx="514.41" cy="108.93" r="3.76"/>
          <path class="cls-45" d="m514.41,113.19c-2.35,0-4.26-1.91-4.26-4.26s1.91-4.26,4.26-4.26,4.26,1.91,4.26,4.26-1.91,4.26-4.26,4.26,2.35,0,0,0Zm0-7.52c-1.8,0-3.26,1.46-3.26,3.26s1.46,3.26,3.26,3.26,3.26-1.46,3.26-3.26-1.46-3.26-3.26-3.26,1.8,0,0,0Z"/>
        </g>
      </g>
      <g>
        <path class="cls-3" d="m698.39,225.13c-1.64-.62-5.49-2.35-8.14-6.41-2.47-3.78-4.66-10.63-1.01-15.54,3.79-5.09,11.86-6.43,13.74-4.14,1.42,1.73-1.18,5.01.36,6.74,1.36,1.53,4.53-1.53,7.8-.41,2.87.98,4.7,4.63,4.74,7.2.09,5.11-6.78,10.73-17.49,12.56Z"/>
        <path class="cls-4" d="m686.37,245.65c.17-3.56,1.27-5.81,2.22-7.2,2.37-3.46,5.39-3.79,8.36-7.62,1.64-2.11,2.45-4.23,2.88-5.65"/>
        <path class="cls-4" d="m695.76,226.17c3.56-.17,5.91.7,7.38,1.51,3.68,2.03,4.29,4.99,8.4,7.59,2.26,1.43,4.45,2.03,5.9,2.32"/>
        <line class="cls-4" x1="681.64" y1="245.46" x2="690.9" y2="245.89"/>
        <line class="cls-4" x1="715.12" y1="241.59" x2="719.75" y2="233.57"/>
        <circle class="cls-17" cx="700.24" cy="225.89" r="5.52"/>
      </g>
      <g>
        <path class="cls-3" d="m745.76,217.68c1.09-6.38,4.8-8.8,7.34-10.45,1.52-.99,4.78-3.11,8.47-1.31,2.63,1.29,3.63,3.68,6.21,3.27,2.02-.32,2.71-1.99,3.73-1.09,1.62,1.43,2.14,7.63,1.6,12.23-1.31,11.15-9.18,15.61-10.41,16.3-1.41.8-10.2,5.78-14.8-3.92-1.63-3.45-3.09-9.49-2.15-15.02Z"/>
        <path class="cls-4" d="m727.69,212.95c3.27-.02,5.29.93,6.52,1.77,3.07,2.11,3.22,5.01,6.59,7.68,1.86,1.48,3.78,2.15,5.06,2.49"/>
        <path class="cls-4" d="m744.87,220.83c.17,3.56-.7,5.91-1.51,7.38-2.03,3.68-4.99,4.29-7.59,8.4-1.43,2.26-2.03,4.45-2.32,5.9"/>
        <line class="cls-4" x1="727.9" y1="207.75" x2="727.48" y2="217.01"/>
        <line class="cls-4" x1="729.44" y1="240.18" x2="737.47" y2="244.82"/>
        <circle class="cls-47" cx="745.15" cy="225.3" r="5.52"/>
        <path class="cls-4" d="m791.48,213.25c-3.27-.02-5.29.93-6.52,1.77-3.07,2.11-3.22,5.01-6.59,7.68-1.86,1.48-3.78,2.15-5.06,2.49"/>
        <path class="cls-4" d="m774.3,221.12c-.17,3.56.7,5.91,1.51,7.38,2.03,3.68,4.99,4.29,7.59,8.4,1.43,2.26,2.03,4.45,2.32,5.9"/>
        <line class="cls-4" x1="791.26" y1="208.05" x2="791.69" y2="217.3"/>
        <line class="cls-4" x1="789.73" y1="240.48" x2="781.7" y2="245.11"/>
        <circle class="cls-47" cx="774.02" cy="225.6" r="5.52"/>
      </g>
      <g>
        <path class="cls-3" d="m815.84,227.65c.8-5.5-.82-7.89.76-9.52,1.51-1.55,3.25.35,6.97-.87,3.34-1.1,3.37-3.11,6.02-3.8,3.4-.88,7.32,1.39,9.63,4.09,3.67,4.3,4.01,10.57,2.52,14.99-2.06,6.09-7.37,8.04-9.77,8.92-1.14.42-5.15,1.75-10.14.38-2.33-.64-6.88-1.89-7.96-5.3-.81-2.55,1.2-3.5,1.98-8.88Z"/>
        <path class="cls-4" d="m792.77,227.91c3.21-.65,5.37-.11,6.74.48,3.42,1.48,4.12,4.29,7.96,6.26,2.11,1.09,4.12,1.38,5.44,1.46"/>
        <path class="cls-4" d="m811.15,232.32c.86,3.46.45,5.93-.06,7.53-1.28,4-4.07,5.18-5.82,9.7-.97,2.49-1.13,4.76-1.13,6.24"/>
        <line class="cls-4" x1="791.97" y1="222.77" x2="793.35" y2="231.93"/>
        <line class="cls-4" x1="799.76" y1="254.29" x2="808.53" y2="257.28"/>
        <path class="cls-47" d="m815.92,240.81c-2.29,2.01-5.78,1.77-7.78-.52-2.01-2.29-1.77-5.78.52-7.78,2.29-2.01,5.78-1.77,7.78.52,2.01,2.29,1.77,5.78-.52,7.79Z"/>
        <path class="cls-4" d="m837.96,195.14c.5,3.23-.13,5.37-.79,6.71-1.64,3.35-4.47,3.92-6.62,7.66-1.18,2.06-1.57,4.05-1.71,5.37"/>
        <path class="cls-4" d="m832.72,213.3c-3.5.7-5.95.18-7.52-.4-3.94-1.46-4.99-4.3-9.43-6.26-2.45-1.08-4.7-1.35-6.18-1.42"/>
        <line class="cls-4" x1="843.13" y1="194.57" x2="833.92" y2="195.53"/>
        <line class="cls-4" x1="811.29" y1="200.91" x2="807.9" y2="209.53"/>
        <circle class="cls-47" cx="828.33" cy="214.23" r="5.52"/>
        <path class="cls-4" d="m842.01,256.54c-2.15-2.47-2.75-4.61-2.92-6.09-.4-3.71,1.69-5.71,1.51-10.01-.1-2.37-.84-4.26-1.42-5.45"/>
        <path class="cls-4" d="m836.75,238.39c2.58-2.46,4.93-3.33,6.57-3.67,4.11-.87,6.51.98,11.31.26,2.65-.39,4.7-1.37,5.98-2.1"/>
        <line class="cls-4" x1="837.94" y1="259.78" x2="845.22" y2="254.05"/>
        <line class="cls-4" x1="861.49" y1="237.43" x2="859.75" y2="228.32"/>
        <circle class="cls-47" cx="839.96" cy="235.26" r="5.52"/>
      </g>
      <text class="cls-46" transform="translate(691.94 179.04)"><tspan x="0" y="0">final a</tspan><tspan class="cls-55" x="56.68" y="0">r</tspan><tspan x="64.46" y="0">chitectu</tspan><tspan class="cls-55" x="139.66" y="0">r</tspan><tspan x="147.44" y="0">e</tspan></text>
      <text class="cls-46" transform="translate(682.3 35.49)"><tspan x="0" y="0">network formation</tspan></text>
      <rect class="cls-20" x="677.69" y="15.61" width="187.26" height="27.86"/>
      <g id="Layer_27" data-name="Layer 27">
        <g class="cls-65">
          <path class="cls-6" d="m686.74,118.45c1.7,0,4.13-.03,7.06-.12,2.91-.09,5.11-.2,8.31-.36,4.82-.25,4.89-.3,8.67-.48,5.84-.28,5.53-.15,8.55-.36,3.8-.26,6.6-.63,10.12-1.08,4.3-.56,6.46-.84,9.15-1.45,2.87-.64,5.13-1.16,7.95-2.41,2-.89,4.28-1.89,6.62-3.97,2.92-2.59,4.3-5.39,5.42-7.71,1.73-3.58,2.32-6.51,3.01-10,.24-1.2.65-3.47,1.32-11.92.35-4.43.57-7.89.72-10.48.23-3.93.54-9.3.84-15.78"/>
        </g>
        <rect class="cls-28" x="699.04" y="54.33" width="67.99" height="67.99"/>
      </g>
      <text class="cls-49" transform="translate(691.37 95.19) rotate(-90)"><tspan x="0" y="0">M</tspan></text>
      <text class="cls-49" transform="translate(696.37 81.03) rotate(-90) scale(.58)"><tspan x="0" y="0">n</tspan></text>
      <text class="cls-48" transform="translate(730.78 135.35)"><tspan x="0" y="0">ρ</tspan></text>
      <g id="Layer_28" data-name="Layer 28">
        <g class="cls-67">
          <circle class="cls-51" cx="789.86" cy="118.08" r="1.01"/>
          <circle class="cls-27" cx="793.89" cy="113.08" r="1.01"/>
          <circle class="cls-27" cx="797.64" cy="113.08" r="1.01"/>
          <circle class="cls-27" cx="801.45" cy="112.07" r="1.01"/>
          <circle class="cls-27" cx="804.16" cy="109.11" r="1.01"/>
          <circle class="cls-27" cx="806.19" cy="105.45" r="1.01"/>
          <circle class="cls-27" cx="808.62" cy="100.05" r="1.01"/>
          <circle class="cls-27" cx="811.24" cy="94.29" r="1.01"/>
          <circle class="cls-27" cx="813.33" cy="86.86" r="1.01"/>
          <circle class="cls-27" cx="815.36" cy="75.22" r="1.01"/>
          <circle class="cls-27" cx="818.42" cy="68.49" r="1.01"/>
          <circle class="cls-27" cx="821.32" cy="63.64" r="1.01"/>
          <circle class="cls-27" cx="825.42" cy="61.14" r="1.01"/>
          <circle class="cls-27" cx="830.64" cy="59.58" r="1.01"/>
          <circle class="cls-27" cx="835.84" cy="58.57" r="1.01"/>
          <circle class="cls-27" cx="841.05" cy="59.57" r="1.01"/>
          <circle class="cls-27" cx="845.77" cy="59.57" r="1.01"/>
          <circle class="cls-27" cx="850.75" cy="59.57" r="1.01"/>
          <circle class="cls-27" cx="855.9" cy="59.57" r="1.01"/>
          <circle class="cls-51" cx="860.72" cy="59.57" r="1.01"/>
          <circle class="cls-51" cx="867.04" cy="60.58" r="1.01"/>
          <circle class="cls-32" cx="789.85" cy="95.61" r="1.01"/>
          <circle class="cls-32" cx="793.88" cy="95.61" r="1.01"/>
          <circle class="cls-32" cx="797.63" cy="95.61" r="1.01"/>
          <circle class="cls-32" cx="801.44" cy="94.6" r="1.01"/>
          <circle class="cls-32" cx="806.17" cy="93.28" r="1.01"/>
          <circle class="cls-32" cx="810.22" cy="90" r="1.01"/>
          <circle class="cls-32" cx="813.33" cy="84.02" r="1.01"/>
          <circle class="cls-32" cx="816.05" cy="79.33" r="1.01"/>
          <circle class="cls-32" cx="819.43" cy="73.73" r="1.01"/>
          <circle class="cls-32" cx="823.06" cy="71.71" r="1.01"/>
          <circle class="cls-32" cx="827.45" cy="70.4" r="1.01"/>
          <circle class="cls-32" cx="831.65" cy="69.68" r="1.01"/>
          <circle class="cls-32" cx="835.84" cy="69.38" r="1.01"/>
          <circle class="cls-32" cx="840.57" cy="70.38" r="1.01"/>
          <circle class="cls-32" cx="845.55" cy="70.38" r="1.01"/>
          <circle class="cls-32" cx="850.7" cy="70.38" r="1.01"/>
          <circle class="cls-32" cx="856.07" cy="70.38" r="1.01"/>
          <circle class="cls-32" cx="861.26" cy="70.28" r="1.01"/>
          <circle class="cls-32" cx="867.04" cy="71.3" r="1.01"/>
          <circle class="cls-32" cx="804.16" cy="94.29" r="1.01"/>
          <circle class="cls-32" cx="808.19" cy="92.03" r="1.01"/>
          <polygon class="cls-47" points="814.34 77.7 815.2 79.44 817.12 79.72 815.73 81.08 816.06 82.99 814.34 82.09 812.62 82.99 812.95 81.08 811.56 79.72 813.48 79.44 814.34 77.7"/>
        </g>
        <rect class="cls-28" x="792.33" y="54.52" width="67.99" height="67.99"/>
      </g>
      <text class="cls-49" transform="translate(784.66 103.38) rotate(-90)"><tspan x="0" y="0">G’,G</tspan><tspan class="cls-41" x="32.22" y="0">’</tspan><tspan x="35.47" y="0">’</tspan></text>
      <text class="cls-48" transform="translate(824.08 135.54)"><tspan x="0" y="0">t</tspan></text>
      <image width="600" height="600" transform="translate(678.77 262) scale(.16)" xlink:href="../plots/BondWidthContractedBondsFrontWhite_4da17.jpg"/>
      <rect class="cls-20" x="677.77" y="158.47" width="187.26" height="27.86"/>
      <path class="cls-5" d="m521.24,281.04c0,6.77-5.49,12.26-12.26,12.26s-12.26-5.49-12.26-12.26c0-.73.1-1.5.1-1.5.1-.77.39-2.42,1.37-4.26.09-.16.83-1.54,1.95-2.72,2.07-2.19,5.53-3.85,8.84-3.77,5.77.14,12.26,4.97,12.26,12.26Z"/>
      <g>
        <path class="cls-38" d="m522.8,266.83c-2.36,1.64-6.06,4.67-8.88,9.48-2.17,3.71-3.03,7.16-3.41,9.55-.36,2.7-.76,3.31-1.07,3.31-.87.01-4.59-8.14-7.35-9.69"/>
        <path class="cls-5" d="m502.1,279.49c4.66,2.46,6.47,9.7,7.35,9.69.31,0,.71-.62,1.07-3.31.37-2.39,1.24-5.84,3.41-9.55,2.81-4.82,6.52-7.85,8.88-9.48"/>
      </g>
      <g>
        <path class="cls-5" d="m521.24,223.87c0,6.77-5.49,12.26-12.26,12.26s-12.26-5.49-12.26-12.26c0-.73.1-1.5.1-1.5.1-.77.39-2.42,1.37-4.26.09-.16.83-1.54,1.95-2.72,2.07-2.19,5.53-3.85,8.84-3.77,5.77.14,12.26,4.97,12.26,12.26Z"/>
        <g>
          <path class="cls-38" d="m522.8,209.66c-2.36,1.64-6.06,4.67-8.88,9.48-2.17,3.71-3.03,7.16-3.41,9.55-.36,2.7-.76,3.31-1.07,3.31-.87.01-4.59-8.14-7.35-9.69"/>
          <path class="cls-5" d="m502.1,222.32c4.66,2.46,6.47,9.7,7.35,9.69.31,0,.71-.62,1.07-3.31.37-2.39,1.24-5.84,3.41-9.55,2.81-4.82,6.52-7.85,8.88-9.48"/>
        </g>
      </g>
      <text class="cls-68" transform="translate(529.46 227.81)"><tspan x="0" y="0">generalizable</tspan></text>
      <text class="cls-68" transform="translate(527.97 287.26)"><tspan x="0" y="0">experimental</tspan><tspan x="2.62" y="24">confirmation</tspan></text>
    </g>
  </g>
</svg>