<?xml version="1.0" encoding="UTF-8"?>
<svg id="Layer_2" data-name="Layer 2" xmlns="http://www.w3.org/2000/svg" xmlns:xlink="http://www.w3.org/1999/xlink" viewBox="0 0 234 126">
  <defs>
    <style>
      .cls-1, .cls-2, .cls-3, .cls-4, .cls-5, .cls-6, .cls-7, .cls-8, .cls-9, .cls-10, .cls-11 {
        fill: none;
      }

      .cls-12 {
        font-family: Arial-BoldMT, Arial;
        font-weight: 700;
      }

      .cls-12, .cls-13, .cls-14, .cls-15, .cls-16 {
        font-size: 8px;
      }

      .cls-12, .cls-13, .cls-17, .cls-16 {
        fill: #231f20;
      }

      .cls-18 {
        font-family: Baskerville, Baskerville;
      }

      .cls-19, .cls-13, .cls-17 {
        font-family: ArialMT, Arial;
      }

      .cls-2, .cls-20, .cls-21, .cls-22, .cls-23, .cls-24, .cls-25, .cls-3, .cls-4, .cls-5, .cls-6, .cls-7, .cls-8, .cls-9, .cls-26, .cls-27, .cls-10, .cls-11 {
        stroke-miterlimit: 10;
      }

      .cls-2, .cls-22, .cls-24, .cls-6, .cls-7, .cls-26, .cls-11 {
        stroke: #f496bf;
      }

      .cls-2, .cls-26, .cls-27 {
        stroke-width: 3px;
      }

      .cls-28 {
        clip-path: url(#clippath);
      }

      .cls-29, .cls-26 {
        fill: #f496bf;
      }

      .cls-30, .cls-20, .cls-21, .cls-22, .cls-23, .cls-24, .cls-25 {
        fill: #fff;
      }

      .cls-31 {
        fill: #bcbec0;
      }

      .cls-32 {
        fill: #27aae1;
      }

      .cls-14 {
        fill: #a7a9ac;
      }

      .cls-14, .cls-15 {
        font-family: Arial-ItalicMT, Arial;
        font-style: italic;
      }

      .cls-15 {
        fill: #87c541;
      }

      .cls-17 {
        font-size: 5px;
      }

      .cls-20, .cls-21, .cls-3, .cls-4, .cls-5, .cls-6 {
        stroke-width: 2px;
      }

      .cls-20, .cls-23, .cls-3, .cls-9, .cls-10 {
        stroke: #231f20;
      }

      .cls-21 {
        stroke: #ed1c24;
      }

      .cls-22, .cls-7, .cls-8 {
        stroke-width: 4px;
      }

      .cls-33 {
        clip-path: url(#clippath-1);
      }

      .cls-34 {
        clip-path: url(#clippath-4);
      }

      .cls-35 {
        clip-path: url(#clippath-3);
      }

      .cls-36 {
        clip-path: url(#clippath-2);
      }

      .cls-37 {
        letter-spacing: -.06em;
      }

      .cls-25, .cls-8 {
        stroke: #fff;
      }

      .cls-4 {
        stroke: #87c541;
      }

      .cls-5 {
        stroke: #bcbec0;
      }

      .cls-38 {
        opacity: .15;
      }

      .cls-27 {
        fill: #febe23;
        stroke: #febe23;
      }

      .cls-39 {
        fill: #fdebf3;
        opacity: .5;
      }

      .cls-10, .cls-11 {
        stroke-width: .5px;
      }
    </style>
    <clipPath id="clippath">
      <rect class="cls-30" width="234" height="126"/>
    </clipPath>
    <clipPath id="clippath-1">
      <rect class="cls-1" x="39.77" y=".09" width="64.6" height="63.21"/>
    </clipPath>
    <clipPath id="clippath-2">
      <rect class="cls-30" x="63.91" y="9.87" width="34.34" height="36.23" rx="9.1" ry="9.1"/>
    </clipPath>
    <clipPath id="clippath-3">
      <rect class="cls-1" x="39.59" y="62.88" width="64.53" height="62.97"/>
    </clipPath>
    <clipPath id="clippath-4">
      <rect class="cls-30" x="63.35" y="83.02" width="34.34" height="36.23" rx="9.1" ry="9.1"/>
    </clipPath>
  </defs>
  <g id="TOC_figure" data-name="TOC figure">
    <rect class="cls-30" width="234" height="126"/>
    <g class="cls-28">
      <g id="Layer_24" data-name="Layer 24">
        <g id="Layer_19" data-name="Layer 19">
          <g class="cls-33">
            <g class="cls-38">
              <g>
                <path class="cls-3" d="m34.17,13.22c1.08.92,2.44,2.37,3.15,4.46.64,1.9.4,3.35.4,4.66,0,2.2.64,5.34,3.62,9.29"/>
                <path class="cls-3" d="m27.81,22.24c4.71,1.53,7.89,1.07,9.98.28,1.64-.62,3.21-1.66,5.53-1.46,1.83.16,3.28,1.01,4.24,1.74"/>
                <g>
                  <path class="cls-27" d="m31.73,7.21c1.49-.46,3.17-.06,4.29,1.16,1.55,1.69,1.44,4.33-.26,5.88-1.7,1.56-4.33,1.44-5.88-.25-1.09-1.18-1.36-2.83-.84-4.24"/>
                  <ellipse class="cls-25" cx="31.39" cy="9.48" rx="3.29" ry="3.28" transform="translate(3.87 27.3) rotate(-49.72)"/>
                </g>
                <g>
                  <path class="cls-27" d="m22.52,20.05c1.06-1.14,2.71-1.64,4.3-1.14,2.19.69,3.41,3.02,2.73,5.22-.69,2.2-3.02,3.42-5.22,2.73-1.53-.48-2.59-1.77-2.85-3.25"/>
                  <ellipse class="cls-25" cx="23.37" cy="22.18" rx="3.29" ry="3.28" transform="translate(-2.6 41.25) rotate(-79.79)"/>
                </g>
                <g>
                  <path class="cls-27" d="m42.53,37.76c-1.51.36-3.17-.15-4.21-1.44-1.44-1.79-1.15-4.41.64-5.85,1.79-1.44,4.41-1.16,5.85.64,1.01,1.25,1.17,2.91.56,4.29"/>
                  <ellipse class="cls-25" cx="43.01" cy="35.52" rx="3.29" ry="3.28" transform="translate(-12.42 41.73) rotate(-45.94)"/>
                </g>
                <g>
                  <path class="cls-27" d="m52.78,24.53c-.82,1.32-2.35,2.13-4,1.94-2.28-.26-3.93-2.32-3.67-4.6.25-2.29,2.31-3.93,4.6-3.68,1.6.18,2.88,1.24,3.42,2.64"/>
                  <ellipse class="cls-25" cx="51.54" cy="22.59" rx="3.28" ry="3.29" transform="translate(-.32 .74) rotate(-.82)"/>
                </g>
              </g>
              <g>
                <path class="cls-3" d="m94.17,2.66c1.34.45,3.15,1.29,4.58,2.98,1.3,1.52,1.62,2.96,2.1,4.18.81,2.05,2.58,4.73,6.81,7.29"/>
                <path class="cls-3" d="m91.61,13.39c4.94-.32,7.72-1.93,9.37-3.44,1.3-1.18,2.37-2.73,4.59-3.41,1.76-.54,3.42-.28,4.58.05"/>
                <g>
                  <path class="cls-27" d="m89.67-2.02c1.21-.98,2.92-1.23,4.42-.51,2.07,1,2.94,3.48,1.95,5.56-1,2.07-3.48,2.95-5.55,1.95-1.45-.7-2.31-2.12-2.36-3.63"/>
                  <ellipse class="cls-25" cx="90.2" cy=".21" rx="3.29" ry="3.28" transform="translate(61.39 85.69) rotate(-71.5)"/>
                </g>
                <g>
                  <path class="cls-27" d="m85.89,13.32c.56-1.45,1.91-2.53,3.57-2.66,2.29-.18,4.29,1.54,4.47,3.84.18,2.29-1.54,4.3-3.83,4.47-1.6.12-3.06-.68-3.86-1.96"/>
                  <ellipse class="cls-25" cx="87.47" cy="14.99" rx="3.28" ry="3.29" transform="translate(-1.23 17.85) rotate(-11.57)"/>
                </g>
                <g>
                  <path class="cls-27" d="m111.04,22.34c-1.27.89-3,1.04-4.44.22-2-1.13-2.71-3.67-1.57-5.68,1.13-2,3.67-2.71,5.67-1.58,1.4.79,2.16,2.27,2.11,3.78"/>
                  <ellipse class="cls-25" cx="110.66" cy="20.08" rx="3.29" ry="3.28" transform="translate(50.13 114.86) rotate(-67.72)"/>
                </g>
                <g>
                  <path class="cls-27" d="m115.65,6.25c-.27,1.53-1.39,2.85-2.99,3.29-2.22.61-4.51-.69-5.12-2.91s.69-4.51,2.9-5.12c1.55-.43,3.14.08,4.16,1.19"/>
                  <ellipse class="cls-25" cx="113.78" cy="4.92" rx="3.28" ry="3.29" transform="translate(6.85 44.1) rotate(-22.6)"/>
                </g>
              </g>
              <g>
                <line class="cls-3" x1="117.79" y1="59.49" x2="111.94" y2="60.54"/>
                <path class="cls-3" d="m87.22,49.92c1.41-.09,3.4,0,5.37,1.01,1.78.92,2.62,2.12,3.53,3.06,1.53,1.58,4.18,3.39,9.06,4.15"/>
                <path class="cls-3" d="m88.93,60.82c4.44-2.18,6.41-4.72,7.36-6.74.75-1.59,1.15-3.43,2.95-4.9,1.42-1.16,3.06-1.55,4.26-1.7"/>
                <g>
                  <path class="cls-27" d="m81.45,47.49c.75-1.36,2.24-2.25,3.89-2.15,2.29.13,4.05,2.11,3.91,4.4s-2.1,4.05-4.4,3.92c-1.6-.09-2.94-1.09-3.56-2.46"/>
                  <ellipse class="cls-25" cx="82.79" cy="49.36" rx="3.28" ry="3.29" transform="translate(-3.12 5.65) rotate(-3.84)"/>
                </g>
                <g>
                  <path class="cls-27" d="m91.56,66.78c-1.54.25-3.15-.37-4.09-1.73-1.31-1.89-.84-4.48,1.05-5.79,1.89-1.31,4.48-.84,5.79,1.05.92,1.32.96,2.99.26,4.32"/>
                  <ellipse class="cls-25" cx="92.2" cy="64.57" rx="3.29" ry="3.28" transform="translate(-19.55 78.12) rotate(-41.92)"/>
                </g>
                <g>
                  <path class="cls-27" d="m109.7,61.42c-.84,1.31-2.38,2.1-4.02,1.89-2.28-.29-3.9-2.37-3.61-4.65.29-2.28,2.36-3.9,4.65-3.62,1.59.2,2.87,1.28,3.39,2.69"/>
                  <ellipse class="cls-25" cx="108.49" cy="59.47" rx="3.28" ry="3.29"/>
                </g>
                <g>
                  <path class="cls-27" d="m108.16,43.93c.33,1.52-.21,3.16-1.52,4.18-1.82,1.41-4.43,1.07-5.84-.75-1.41-1.82-1.08-4.43.74-5.84,1.27-.98,2.93-1.12,4.3-.48"/>
                  <ellipse class="cls-25" cx="105.92" cy="43.41" rx="3.28" ry="3.29" transform="translate(.28 87.49) rotate(-44.93)"/>
                </g>
                <circle class="cls-32" cx="109.04" cy="60.28" r="5.01"/>
                <polygon class="cls-29" points="128.78 64.34 121.15 65.71 116.15 59.78 118.79 52.49 126.42 51.12 131.42 57.05 128.78 64.34"/>
              </g>
              <g>
                <path class="cls-3" d="m119.7,34.08c-.23,1.38-.78,3.07-2.17,3.93-1.34.83-3.36.57-5.38,1.1-1.17.31-1.88.72-3.53,2.42"/>
                <path class="cls-3" d="m112.41,21.85c.32,1.36.97,3.01,2.41,3.78,1.39.74,3.39.36,5.43.76,1.18.23,1.93.6,3.68,2.19"/>
                <g>
                  <path class="cls-27" d="m122.1,28.6c-1.54.2-2.91,1.26-3.43,2.83-.71,2.18.48,4.54,2.66,5.25,2.19.72,4.54-.47,5.25-2.66.5-1.53.07-3.14-.99-4.21"/>
                  <ellipse class="cls-25" cx="123.34" cy="30.53" rx="3.28" ry="3.29" transform="translate(43.01 128.98) rotate(-64.69)"/>
                </g>
                <circle class="cls-21" cx="124.09" cy="29.48" r="4.22"/>
                <circle class="cls-32" cx="109.42" cy="20.12" r="5.01"/>
                <circle class="cls-32" cx="105.93" cy="42.66" r="5.01"/>
              </g>
              <g>
                <path class="cls-3" d="m106.25,71.91c-1.34.39-3.1.64-4.48-.24-1.33-.85-1.98-2.78-3.33-4.36-.78-.92-1.47-1.38-3.71-2.13"/>
                <path class="cls-3" d="m115.72,77.11c.93-1.05,2.27-2.2,3.91-2.2,1.58,0,3.16,1.28,5.15,1.89,1.15.35,1.98.38,4.28-.19"/>
                <g>
                  <path class="cls-27" d="m114.18,75.48c.28-1.53-.3-3.16-1.65-4.13-1.86-1.35-4.46-.93-5.82.93-1.35,1.86-.94,4.47.92,5.81,1.3.94,2.97,1.02,4.31.35"/>
                  <ellipse class="cls-25" cx="111.96" cy="76.07" rx="3.29" ry="3.28" transform="translate(-20.1 105.74) rotate(-46.86)"/>
                </g>
                <circle class="cls-21" cx="112.73" cy="77.1" r="4.22"/>
                <circle class="cls-32" cx="131.55" cy="79.79" r="5.01"/>
                <circle class="cls-32" cx="92.29" cy="64.92" r="5.01"/>
              </g>
              <g>
                <path class="cls-3" d="m56.82,41.91c-1.34.39-3.1.64-4.48-.24-1.33-.85-1.98-2.78-3.33-4.36-.78-.92-1.47-1.38-3.71-2.13"/>
                <path class="cls-3" d="m66.28,47.11c.93-1.05,2.27-2.2,3.91-2.2,1.58,0,3.16,1.28,5.15,1.89,1.15.35,1.98.38,4.28-.19"/>
                <g>
                  <path class="cls-27" d="m64.74,45.47c.28-1.53-.3-3.16-1.65-4.13-1.86-1.35-4.46-.93-5.82.93-1.35,1.86-.94,4.47.92,5.81,1.3.94,2.97,1.02,4.31.35"/>
                  <ellipse class="cls-25" cx="62.52" cy="46.07" rx="3.29" ry="3.28" transform="translate(-13.84 60.19) rotate(-46.86)"/>
                </g>
                <circle class="cls-21" cx="63.29" cy="47.1" r="4.22"/>
                <circle class="cls-32" cx="82.12" cy="49.79" r="5.01"/>
                <circle class="cls-32" cx="42.85" cy="34.91" r="5.01"/>
              </g>
              <g>
                <path class="cls-3" d="m64.66,12.22c-.2,1.38-.7,3.08-2.07,3.98-1.32.86-3.35.66-5.35,1.23-1.16.33-1.87.77-3.47,2.5"/>
                <path class="cls-3" d="m74.02,7.73c1.24-.66,2.9-1.26,4.43-.68,1.48.56,2.51,2.31,4.15,3.59.95.74,1.72,1.05,4.07,1.33"/>
                <g>
                  <path class="cls-27" d="m70.09,6.61c-1.28-.89-3-1.03-4.44-.21-2,1.14-2.69,3.68-1.56,5.68,1.14,2,3.68,2.7,5.68,1.56,1.4-.8,2.16-2.28,2.1-3.78"/>
                  <ellipse class="cls-25" cx="69.72" cy="8.87" rx="3.28" ry="3.29" transform="translate(1.9 27.31) rotate(-22.47)"/>
                </g>
                <circle class="cls-21" cx="70.56" cy="8.85" r="4.22"/>
                <circle class="cls-32" cx="87.25" cy="13.9" r="5.01"/>
                <circle class="cls-32" cx="51.73" cy="21.67" r="5.01"/>
              </g>
              <g>
                <path class="cls-3" d="m30.57,48.08c1.09.88,2.29,2.18,2.36,3.81.06,1.58-1.15,3.21-1.68,5.22-.31,1.17-.3,2,.37,4.27"/>
                <path class="cls-3" d="m29.44,37.33c-1.39-.16-3.1-.61-4.03-1.96-.9-1.3-.75-3.33-1.38-5.31-.37-1.15-.82-1.84-2.6-3.4"/>
                <g>
                  <path class="cls-27" d="m28.98,39.53c-1.42.64-2.42,2.05-2.45,3.71-.05,2.3,1.78,4.2,4.08,4.25,2.3.05,4.2-1.78,4.25-4.07.03-1.61-.85-3.02-2.17-3.74"/>
                  <ellipse class="cls-25" cx="30.73" cy="41.02" rx="3.28" ry="3.29" transform="translate(-14.32 65.46) rotate(-81.65)"/>
                </g>
                <circle class="cls-21" cx="31.14" cy="39.79" r="4.22"/>
                <circle class="cls-32" cx="22.61" cy="22.8" r="5.01"/>
                <circle class="cls-32" cx="32.79" cy="63.54" r="5.01"/>
              </g>
              <g>
                <path class="cls-3" d="m43.66-.5c-.2,1.38-.7,3.08-2.07,3.98-1.32.86-3.35.66-5.35,1.23-1.16.33-1.87.77-3.47,2.5"/>
                <path class="cls-27" d="m49.1-6.11c-1.28-.89-3-1.03-4.44-.21-2,1.14-2.69,3.68-1.56,5.68,1.14,2,3.68,2.7,5.68,1.56,1.4-.8,2.16-2.28,2.1-3.78"/>
                <circle class="cls-21" cx="49.57" cy="-3.87" r="4.22"/>
                <circle class="cls-32" cx="30.74" cy="8.95" r="5.01"/>
              </g>
            </g>
            <g>
              <g>
                <path class="cls-3" d="m59.38.58c-1.4.16-3.35.6-5.1,1.94-1.59,1.22-2.21,2.55-2.94,3.64-1.23,1.83-3.52,4.07-8.19,5.69"/>
                <path class="cls-3" d="m59.62,11.62c-4.76-1.36-7.14-3.52-8.44-5.34-1.02-1.43-1.74-3.17-3.77-4.31-1.61-.89-3.28-.99-4.49-.92"/>
                <g>
                  <path class="cls-27" d="m64.77-3.04c-.98-1.21-2.6-1.82-4.21-1.43-2.23.54-3.61,2.79-3.08,5.02.54,2.24,2.78,3.62,5.02,3.08,1.56-.38,2.71-1.59,3.07-3.05"/>
                  <ellipse class="cls-25" cx="63.78" cy="-.97" rx="3.28" ry="3.29" transform="translate(.49 7) rotate(-6.31)"/>
                </g>
                <g>
                  <path class="cls-27" d="m65.23,12.76c-.24-1.54-1.33-2.88-2.92-3.35-2.2-.66-4.52.6-5.18,2.81-.66,2.21.6,4.52,2.8,5.18,1.54.46,3.14-.02,4.18-1.1"/>
                  <ellipse class="cls-25" cx="63.33" cy="14.05" rx="3.29" ry="3.28" transform="translate(24.95 66.35) rotate(-66.24)"/>
                </g>
                <g>
                  <path class="cls-27" d="m38.74,16.27c1.06,1.14,2.71,1.65,4.29,1.15,2.19-.68,3.42-3.02,2.74-5.21-.68-2.2-3.02-3.43-5.21-2.74-1.53.48-2.6,1.76-2.86,3.24"/>
                  <ellipse class="cls-25" cx="39.59" cy="14.13" rx="3.28" ry="3.29" transform="translate(-1.86 7.15) rotate(-10.09)"/>
                </g>
                <g>
                  <path class="cls-27" d="m37.63-.43c-.06,1.55.76,3.08,2.23,3.85,2.04,1.06,4.55.27,5.62-1.76,1.07-2.04.28-4.55-1.76-5.62-1.42-.74-3.08-.58-4.32.28"/>
                  <ellipse class="cls-25" cx="39.74" cy="-1.34" rx="3.29" ry="3.28" transform="translate(18.17 32.06) rotate(-55.21)"/>
                </g>
              </g>
              <g>
                <path class="cls-3" d="m64.65,55.66c-1.4.16-3.35.6-5.1,1.94-1.59,1.22-2.21,2.55-2.94,3.64-1.23,1.83-3.52,4.07-8.19,5.69"/>
                <path class="cls-3" d="m64.89,66.69c-4.76-1.36-7.14-3.52-8.44-5.34-1.02-1.43-1.74-3.17-3.77-4.31-1.61-.89-3.28-.99-4.49-.92"/>
                <g>
                  <path class="cls-27" d="m70.04,52.04c-.98-1.21-2.6-1.82-4.21-1.43-2.23.54-3.61,2.79-3.08,5.02.54,2.24,2.78,3.62,5.02,3.08,1.56-.38,2.71-1.59,3.07-3.05"/>
                  <ellipse class="cls-25" cx="69.05" cy="54.11" rx="3.28" ry="3.29" transform="translate(-5.53 7.91) rotate(-6.31)"/>
                </g>
                <g>
                  <path class="cls-27" d="m70.5,67.83c-.24-1.54-1.33-2.88-2.92-3.35-2.2-.66-4.52.6-5.18,2.81-.66,2.21.6,4.52,2.8,5.18,1.54.46,3.14-.02,4.18-1.1"/>
                  <ellipse class="cls-25" cx="68.6" cy="69.13" rx="3.29" ry="3.28" transform="translate(-22.31 104.06) rotate(-66.24)"/>
                </g>
                <g>
                  <path class="cls-27" d="m44.01,71.34c1.06,1.14,2.71,1.65,4.29,1.15,2.19-.68,3.42-3.02,2.74-5.21-.68-2.2-3.02-3.43-5.21-2.74-1.53.48-2.6,1.76-2.86,3.24"/>
                  <ellipse class="cls-25" cx="44.86" cy="69.21" rx="3.28" ry="3.29" transform="translate(-11.43 8.93) rotate(-10.09)"/>
                </g>
                <g>
                  <path class="cls-27" d="m42.9,54.64c-.06,1.55.76,3.08,2.23,3.85,2.04,1.06,4.55.27,5.62-1.76,1.07-2.04.28-4.55-1.76-5.62-1.42-.74-3.08-.58-4.32.28"/>
                  <ellipse class="cls-25" cx="45.01" cy="53.73" rx="3.29" ry="3.28" transform="translate(-24.8 60.04) rotate(-55.21)"/>
                </g>
              </g>
              <g>
                <path class="cls-3" d="m123.02.15c-1.4.16-3.35.6-5.1,1.94-1.59,1.22-2.21,2.55-2.94,3.64-1.23,1.83-3.52,4.07-8.19,5.69"/>
                <path class="cls-3" d="m123.26,11.19c-4.76-1.36-7.14-3.52-8.44-5.34-1.02-1.43-1.74-3.17-3.77-4.31-1.61-.89-3.28-.99-4.49-.92"/>
                <g>
                  <path class="cls-27" d="m128.41-3.47c-.98-1.21-2.6-1.82-4.21-1.43-2.23.54-3.61,2.79-3.08,5.02.54,2.24,2.78,3.62,5.02,3.08,1.56-.38,2.71-1.59,3.07-3.05"/>
                  <ellipse class="cls-25" cx="127.42" cy="-1.4" rx="3.28" ry="3.29" transform="translate(.93 13.99) rotate(-6.31)"/>
                </g>
                <g>
                  <path class="cls-27" d="m128.87,12.32c-.24-1.54-1.33-2.88-2.92-3.35-2.2-.66-4.52.6-5.18,2.81-.66,2.21.6,4.52,2.8,5.18,1.54.46,3.14-.02,4.18-1.1"/>
                  <ellipse class="cls-25" cx="126.97" cy="13.62" rx="3.29" ry="3.28" transform="translate(63.34 124.34) rotate(-66.24)"/>
                </g>
                <g>
                  <path class="cls-27" d="m102.38,15.83c1.06,1.14,2.71,1.65,4.29,1.15,2.19-.68,3.42-3.02,2.74-5.21-.68-2.2-3.02-3.43-5.21-2.74-1.53.48-2.6,1.76-2.86,3.24"/>
                  <ellipse class="cls-25" cx="103.23" cy="13.7" rx="3.28" ry="3.29" transform="translate(-.8 18.3) rotate(-10.09)"/>
                </g>
                <g>
                  <path class="cls-27" d="m101.27-.87c-.06,1.55.76,3.08,2.23,3.85,2.04,1.06,4.55.27,5.62-1.76,1.07-2.04.28-4.55-1.76-5.62-1.42-.74-3.08-.58-4.32.28"/>
                  <ellipse class="cls-25" cx="103.38" cy="-1.78" rx="3.29" ry="3.28" transform="translate(45.86 84.14) rotate(-55.21)"/>
                </g>
              </g>
              <circle class="cls-32" cx="103.37" cy="-2.48" r="5.01"/>
              <g>
                <path class="cls-3" d="m40.13,38.17c-.87,1.1-1.76,2.63-1.47,4.23.28,1.55,1.82,2.89,2.77,4.74.55,1.07.72,1.88.56,4.24"/>
                <path class="cls-3" d="m40.69,29.32c.87-1.1,1.76-2.63,1.47-4.23-.28-1.55-1.82-2.89-2.77-4.74-.55-1.07-.72-1.88-.56-4.24"/>
                <g>
                  <path class="cls-27" d="m39.76,29.87c1.48-.47,3.17-.1,4.3,1.11,1.57,1.68,1.49,4.31-.19,5.89-1.68,1.58-4.31,1.49-5.88-.18-1.1-1.17-1.39-2.81-.89-4.23"/>
                  <ellipse class="cls-25" cx="39.45" cy="32.15" rx="3.29" ry="3.28" transform="translate(-10.47 42.04) rotate(-50.39)"/>
                </g>
                <circle class="cls-21" cx="38.33" cy="31.52" r="4.22"/>
                <circle class="cls-32" cx="39.42" cy="14.16" r="5.01"/>
                <circle class="cls-32" cx="44.53" cy="52.5" r="5.01"/>
              </g>
              <g>
                <path class="cls-3" d="m111.98,40.71c-1.32-.51-3.25-1.02-5.42-.65-1.97.34-3.14,1.24-4.29,1.86-1.94,1.05-5.01,1.98-9.89,1.24"/>
                <path class="cls-3" d="m107.07,50.6c-3.58-3.41-4.69-6.43-5-8.64-.24-1.74-.07-3.62-1.34-5.56-1.01-1.54-2.45-2.4-3.55-2.9"/>
                <g>
                  <path class="cls-27" d="m118.21,40.14c-.3-1.53-1.46-2.82-3.06-3.22-2.23-.56-4.49.79-5.05,3.02s.79,4.49,3.02,5.06c1.56.39,3.13-.15,4.13-1.28"/>
                  <ellipse class="cls-25" cx="116.37" cy="41.51" rx="3.29" ry="3.28" transform="translate(35.37 134.81) rotate(-68.67)"/>
                </g>
                <g>
                  <path class="cls-27" d="m102.77,55.49c1.39.7,3.12.59,4.43-.42,1.82-1.41,2.15-4.02.74-5.84-1.41-1.82-4.02-2.15-5.84-.74-1.27.98-1.81,2.56-1.54,4.04"/>
                  <ellipse class="cls-25" cx="102.82" cy="53.2" rx="3.28" ry="3.29" transform="translate(-12.76 59.73) rotate(-30.59)"/>
                </g>
                <g>
                  <path class="cls-27" d="m92.39,30.9c.09,1.55,1.06,2.99,2.59,3.61,2.13.86,4.56-.17,5.42-2.3.86-2.13-.16-4.56-2.29-5.42-1.49-.6-3.13-.28-4.27.7"/>
                  <ellipse class="cls-25" cx="94.4" cy="29.79" rx="3.29" ry="3.28" transform="translate(22.33 97.65) rotate(-60.79)"/>
                </g>
                <g>
                  <path class="cls-27" d="m85.26,45.08c.46,1.49,1.73,2.66,3.37,2.9,2.27.33,4.39-1.24,4.72-3.52.34-2.28-1.24-4.39-3.51-4.73-1.59-.23-3.1.47-3.98,1.69"/>
                  <ellipse class="cls-25" cx="86.95" cy="43.53" rx="3.29" ry="3.28" transform="translate(21.69 115.61) rotate(-74.44)"/>
                </g>
              </g>
              <g>
                <path class="cls-3" d="m92.84,61.39c1.27.6,2.96,1.11,4.46.46,1.45-.63,2.39-2.43,3.97-3.78.92-.78,1.67-1.13,4-1.52"/>
                <path class="cls-3" d="m81.67,64.04c-1.32-.47-3.05-.82-4.48-.03-1.38.77-2.14,2.65-3.59,4.15-.84.87-1.55,1.29-3.84,1.9"/>
                <g>
                  <path class="cls-27" d="m84.45,63.67c-.04-1.56.8-3.07,2.27-3.82,2.05-1.04,4.56-.22,5.6,1.83,1.04,2.05.23,4.56-1.82,5.6-1.43.73-3.09.55-4.31-.33"/>
                  <ellipse class="cls-25" cx="86.55" cy="64.6" rx="3.28" ry="3.29" transform="translate(-21.34 59.65) rotate(-34.11)"/>
                </g>
                <circle class="cls-21" cx="85.63" cy="65.5" r="4.22"/>
                <circle class="cls-32" cx="69.2" cy="69.46" r="5.01"/>
                <circle class="cls-32" cx="102.58" cy="54.32" r="5.01"/>
              </g>
              <g>
                <path class="cls-3" d="m25.74,52.48c.72-1.2,1.4-2.84.9-4.39-.48-1.5-2.19-2.62-3.38-4.32-.69-.99-.97-1.77-1.12-4.13"/>
                <path class="cls-3" d="m31.77,58.86c.27,1.37.86,3.04,2.27,3.86,1.36.79,3.38.48,5.4.95,1.17.27,1.9.67,3.6,2.32"/>
                <g>
                  <path class="cls-27" d="m31.95,57.79c-.6,1.44-1.98,2.48-3.64,2.56-2.3.11-4.25-1.66-4.36-3.96-.11-2.3,1.65-4.25,3.95-4.37,1.61-.08,3.04.76,3.8,2.06"/>
                  <ellipse class="cls-25" cx="30.41" cy="56.08" rx="3.28" ry="3.29" transform="translate(-9.3 6.15) rotate(-10.03)"/>
                </g>
                <circle class="cls-21" cx="31.62" cy="55.64" r="4.22"/>
                <circle class="cls-32" cx="44.14" cy="67.71" r="5.01"/>
                <circle class="cls-32" cx="25.39" cy="34.35" r="5.01"/>
              </g>
              <g>
                <path class="cls-3" d="m25.76,2c1.27.58,2.97,1.08,4.46.41,1.44-.65,2.36-2.46,3.93-3.83.91-.79,1.65-1.15,3.98-1.57"/>
                <path class="cls-3" d="m23.25,8.95c-1.33.42-2.93,1.19-3.59,2.68-.64,1.44-.11,3.41-.36,5.48-.14,1.2-.46,1.96-1.91,3.83"/>
                <g>
                  <path class="cls-27" d="m24.33,9.01c-1.49-.44-2.68-1.7-2.94-3.33-.37-2.27,1.18-4.41,3.45-4.77,2.27-.37,4.41,1.18,4.77,3.44.26,1.59-.42,3.11-1.63,4.01"/>
                  <ellipse class="cls-25" cx="25.86" cy="7.3" rx="3.29" ry="3.28" transform="translate(-1.01 7.57) rotate(-16.34)"/>
                </g>
                <circle class="cls-21" cx="26.44" cy="8.45" r="4.22"/>
                <circle class="cls-32" cx="15.82" cy="22.22" r="5.01"/>
                <circle class="cls-32" cx="40.02" cy="-1.21" r="5.01"/>
              </g>
              <circle class="cls-20" cx="86.92" cy="43.23" r="4.15"/>
            </g>
            <g>
              <path class="cls-3" d="m76.36,16.24c-.9,1.07-2.23,2.24-3.86,2.28-1.58.03-3.19-1.22-5.19-1.79-1.16-.33-1.99-.34-4.27.28"/>
              <path class="cls-3" d="m87.62,14.01c1-.97,2.44-2.02,4.06-1.89,1.57.12,3.05,1.52,4.99,2.28,1.12.44,1.95.53,4.28.13"/>
              <g>
                <path class="cls-27" d="m84.93,14.83c-.61-1.43-2-2.46-3.66-2.53-2.3-.09-4.23,1.69-4.33,3.99-.09,2.3,1.69,4.24,3.99,4.33,1.61.07,3.04-.79,3.78-2.1"/>
                <ellipse class="cls-25" cx="83.42" cy="16.55" rx="3.29" ry="3.28" transform="translate(53.28 96.07) rotate(-80.47)"/>
              </g>
              <circle class="cls-21" cx="84.63" cy="16.98" r="4.22"/>
              <circle class="cls-32" cx="103.13" cy="14.81" r="5.01"/>
              <circle class="cls-32" cx="64.03" cy="13.95" r="5.01"/>
            </g>
            <rect class="cls-39" x="27.08" y="-15.92" width="80.86" height="84.9"/>
            <g id="Layer_21" data-name="Layer 21">
              <rect class="cls-30" x="63.91" y="9.87" width="34.34" height="36.23" rx="9.1" ry="9.1"/>
              <g class="cls-36">
                <rect class="cls-22" x="64.13" y="9.73" width="34.34" height="36.23" rx="9.1" ry="9.1"/>
                <g>
                  <path class="cls-27" d="m92.42,31.16c.19,1.54,1.24,2.92,2.81,3.45,2.18.73,4.54-.45,5.27-2.63.73-2.18-.44-4.54-2.62-5.27-1.52-.51-3.14-.09-4.22.96"/>
                  <ellipse class="cls-25" cx="94.36" cy="29.93" rx="3.29" ry="3.28" transform="translate(26.44 101.95) rotate(-64.28)"/>
                </g>
                <g>
                  <path class="cls-27" d="m85.26,45.08c.46,1.49,1.73,2.66,3.37,2.9,2.27.33,4.39-1.24,4.72-3.52.34-2.28-1.24-4.39-3.51-4.73-1.59-.23-3.1.47-3.98,1.69"/>
                  <ellipse class="cls-25" cx="86.95" cy="43.53" rx="3.29" ry="3.28" transform="translate(21.69 115.61) rotate(-74.44)"/>
                </g>
                <g>
                  <path class="cls-6" d="m93.88,30.34c-.29.1-4.66,1.57-6.98-.88-.79-.84-1.19-1.96-1.2-3.24"/>
                  <polygon class="cls-29" points="86.82 22.13 87.84 28.49 85.79 26.56 83.09 27.39 86.82 22.13"/>
                </g>
                <line class="cls-2" x1="80.73" y1="39.09" x2="85.53" y2="42.58"/>
                <polygon class="cls-29" points="68.9 37.21 74.53 42.53 81.96 40.32 83.76 32.78 78.13 27.45 70.7 29.66 68.9 37.21"/>
                <circle class="cls-20" cx="86.93" cy="43.25" r="4.15"/>
                <g>
                  <path class="cls-3" d="m76.37,16.25c-.9,1.07-2.23,2.24-3.86,2.28-1.58.03-3.19-1.22-5.19-1.79-1.16-.33-1.99-.34-4.27.28"/>
                  <path class="cls-3" d="m87.62,14.01c1-.97,2.44-2.02,4.06-1.89,1.57.12,3.05,1.52,4.99,2.28,1.12.44,1.95.53,4.28.13"/>
                  <g>
                    <path class="cls-27" d="m84.94,14.83c-.61-1.43-2-2.46-3.66-2.53-2.3-.09-4.23,1.69-4.33,3.99-.09,2.3,1.69,4.24,3.99,4.33,1.61.07,3.04-.79,3.78-2.1"/>
                    <ellipse class="cls-25" cx="83.42" cy="16.55" rx="3.29" ry="3.28" transform="translate(53.28 96.08) rotate(-80.47)"/>
                  </g>
                  <circle class="cls-21" cx="84.64" cy="16.99" r="4.22"/>
                  <circle class="cls-32" cx="103.14" cy="14.81" r="5.01"/>
                  <circle class="cls-32" cx="64.04" cy="13.95" r="5.01"/>
                </g>
              </g>
            </g>
            <g>
              <path class="cls-6" d="m83.88,23.28c-2.98,2.91-6.82,3.67-8.36,1.81-.86-1.04-.87-2.73-.15-4.51"/>
              <polygon class="cls-29" points="77.75 17.08 76.6 23.42 75.3 20.92 72.48 20.8 77.75 17.08"/>
            </g>
          </g>
        </g>
        <g id="Layer_22" data-name="Layer 22">
          <g class="cls-35">
            <g class="cls-38">
              <g>
                <path class="cls-3" d="m30.03,86.85c1.08.92,2.44,2.37,3.15,4.46.64,1.9.4,3.35.4,4.66,0,2.2.64,5.34,3.62,9.29"/>
                <path class="cls-3" d="m23.67,95.87c4.71,1.53,7.89,1.07,9.98.28,1.64-.62,3.21-1.66,5.53-1.46,1.83.16,3.28,1.01,4.24,1.74"/>
                <g>
                  <path class="cls-27" d="m27.59,80.83c1.49-.46,3.17-.06,4.29,1.16,1.55,1.69,1.44,4.33-.26,5.88-1.7,1.56-4.33,1.44-5.88-.25-1.09-1.18-1.36-2.83-.84-4.24"/>
                  <ellipse class="cls-25" cx="27.25" cy="83.11" rx="3.29" ry="3.28" transform="translate(-53.77 50.17) rotate(-49.72)"/>
                </g>
                <g>
                  <path class="cls-27" d="m18.38,93.68c1.06-1.14,2.71-1.64,4.3-1.14,2.19.69,3.41,3.02,2.73,5.22-.69,2.2-3.02,3.42-5.22,2.73-1.53-.48-2.59-1.77-2.85-3.25"/>
                  <ellipse class="cls-25" cx="19.23" cy="95.81" rx="3.29" ry="3.28" transform="translate(-78.47 97.76) rotate(-79.79)"/>
                </g>
                <g>
                  <path class="cls-27" d="m38.39,111.39c-1.51.36-3.17-.15-4.21-1.44-1.44-1.79-1.15-4.41.64-5.85,1.79-1.44,4.41-1.16,5.85.64,1.01,1.25,1.17,2.91.56,4.29"/>
                  <ellipse class="cls-25" cx="38.87" cy="109.14" rx="3.29" ry="3.28" transform="translate(-66.59 61.18) rotate(-45.94)"/>
                </g>
                <g>
                  <path class="cls-27" d="m48.64,98.16c-.82,1.32-2.35,2.13-4,1.94-2.28-.26-3.93-2.32-3.67-4.6.25-2.29,2.31-3.93,4.6-3.68,1.6.18,2.88,1.24,3.42,2.64"/>
                  <ellipse class="cls-25" cx="47.4" cy="96.22" rx="3.28" ry="3.29" transform="translate(-1.37 .69) rotate(-.82)"/>
                </g>
              </g>
              <g>
                <path class="cls-3" d="m90.03,76.28c1.34.45,3.15,1.29,4.58,2.98,1.3,1.52,1.62,2.96,2.1,4.18.81,2.05,2.58,4.73,6.81,7.29"/>
                <path class="cls-3" d="m87.47,87.02c4.94-.32,7.72-1.93,9.37-3.44,1.3-1.18,2.37-2.73,4.59-3.41,1.76-.54,3.42-.28,4.58.05"/>
                <g>
                  <path class="cls-27" d="m85.53,71.61c1.21-.98,2.92-1.23,4.42-.51,2.07,1,2.94,3.48,1.95,5.56-1,2.07-3.48,2.95-5.55,1.95-1.45-.7-2.31-2.12-2.36-3.63"/>
                  <ellipse class="cls-25" cx="86.06" cy="73.84" rx="3.29" ry="3.28" transform="translate(-11.26 132.03) rotate(-71.5)"/>
                </g>
                <g>
                  <path class="cls-27" d="m81.75,86.95c.56-1.45,1.91-2.53,3.57-2.66,2.29-.18,4.29,1.54,4.47,3.84.18,2.29-1.54,4.3-3.83,4.47-1.6.12-3.06-.68-3.86-1.96"/>
                  <ellipse class="cls-25" cx="83.33" cy="88.61" rx="3.28" ry="3.29" transform="translate(-16.08 18.52) rotate(-11.57)"/>
                </g>
                <g>
                  <path class="cls-27" d="m106.9,95.97c-1.27.89-3,1.04-4.44.22-2-1.13-2.71-3.67-1.57-5.68,1.13-2,3.67-2.71,5.67-1.58,1.4.79,2.16,2.27,2.11,3.78"/>
                  <ellipse class="cls-25" cx="106.52" cy="93.71" rx="3.29" ry="3.28" transform="translate(-20.58 156.75) rotate(-67.72)"/>
                </g>
                <g>
                  <path class="cls-27" d="m111.51,79.88c-.27,1.53-1.39,2.85-2.99,3.29-2.22.61-4.51-.69-5.12-2.91s.69-4.51,2.9-5.12c1.55-.43,3.14.08,4.16,1.19"/>
                  <ellipse class="cls-25" cx="109.64" cy="78.55" rx="3.28" ry="3.29" transform="translate(-21.77 48.16) rotate(-22.6)"/>
                </g>
              </g>
              <g>
                <path class="cls-3" d="m83.08,123.54c1.41-.09,3.4,0,5.37,1.01,1.78.92,2.62,2.12,3.53,3.06,1.53,1.58,4.18,3.39,9.06,4.15"/>
                <path class="cls-3" d="m84.79,134.45c4.44-2.18,6.41-4.72,7.36-6.74.75-1.59,1.15-3.43,2.95-4.9,1.42-1.16,3.06-1.55,4.26-1.7"/>
                <g>
                  <path class="cls-27" d="m77.31,121.12c.75-1.36,2.24-2.25,3.89-2.15,2.29.13,4.05,2.11,3.91,4.4-.13,2.3-2.1,4.05-4.4,3.92-1.6-.09-2.94-1.09-3.56-2.46"/>
                  <ellipse class="cls-25" cx="78.65" cy="122.99" rx="3.28" ry="3.29" transform="translate(-8.05 5.54) rotate(-3.84)"/>
                </g>
                <g>
                  <path class="cls-27" d="m104.02,117.56c.33,1.52-.21,3.16-1.52,4.18-1.82,1.41-4.43,1.07-5.84-.75-1.41-1.82-1.08-4.43.74-5.84,1.27-.98,2.93-1.12,4.3-.48"/>
                  <ellipse class="cls-25" cx="101.78" cy="117.04" rx="3.28" ry="3.29" transform="translate(-52.93 106.06) rotate(-44.93)"/>
                </g>
                <polygon class="cls-29" points="124.64 137.97 117.01 139.34 112.01 133.41 114.65 126.12 122.28 124.75 127.28 130.68 124.64 137.97"/>
              </g>
              <g>
                <path class="cls-3" d="m115.56,107.71c-.23,1.38-.78,3.07-2.17,3.93-1.34.83-3.36.57-5.38,1.1-1.17.31-1.88.72-3.53,2.42"/>
                <path class="cls-3" d="m108.27,95.48c.32,1.36.97,3.01,2.41,3.78,1.39.74,3.39.36,5.43.76,1.18.23,1.93.6,3.68,2.19"/>
                <g>
                  <path class="cls-27" d="m117.96,102.23c-1.54.2-2.91,1.26-3.43,2.83-.71,2.18.48,4.54,2.66,5.25,2.19.72,4.54-.47,5.25-2.66.5-1.53.07-3.14-.99-4.21"/>
                  <ellipse class="cls-25" cx="119.2" cy="104.16" rx="3.28" ry="3.29" transform="translate(-25.92 167.38) rotate(-64.69)"/>
                </g>
                <circle class="cls-21" cx="119.95" cy="103.11" r="4.22"/>
                <circle class="cls-32" cx="105.28" cy="93.74" r="5.01"/>
                <circle class="cls-32" cx="101.79" cy="116.29" r="5.01"/>
              </g>
              <g>
                <path class="cls-3" d="m52.68,115.54c-1.34.39-3.1.64-4.48-.24-1.33-.85-1.98-2.78-3.33-4.36-.78-.92-1.47-1.38-3.71-2.13"/>
                <path class="cls-3" d="m62.14,120.74c.93-1.05,2.27-2.2,3.91-2.2,1.58,0,3.16,1.28,5.15,1.89,1.15.35,1.98.38,4.28-.19"/>
                <g>
                  <path class="cls-27" d="m60.6,119.1c.28-1.53-.3-3.16-1.65-4.13-1.86-1.35-4.46-.93-5.82.93-1.35,1.86-.94,4.47.92,5.81,1.3.94,2.97,1.02,4.31.35"/>
                  <ellipse class="cls-25" cx="58.38" cy="119.7" rx="3.29" ry="3.28" transform="translate(-68.88 80.45) rotate(-46.86)"/>
                </g>
                <circle class="cls-21" cx="59.15" cy="120.73" r="4.22"/>
                <circle class="cls-32" cx="77.98" cy="123.42" r="5.01"/>
                <circle class="cls-32" cx="38.71" cy="108.54" r="5.01"/>
              </g>
              <g>
                <path class="cls-3" d="m60.52,85.85c-.2,1.38-.7,3.08-2.07,3.98-1.32.86-3.35.66-5.35,1.23-1.16.33-1.87.77-3.47,2.5"/>
                <path class="cls-3" d="m69.88,81.35c1.24-.66,2.9-1.26,4.43-.68,1.48.56,2.51,2.31,4.15,3.59.95.74,1.72,1.05,4.07,1.33"/>
                <g>
                  <path class="cls-27" d="m65.95,80.24c-1.28-.89-3-1.03-4.44-.21-2,1.14-2.69,3.68-1.56,5.68,1.14,2,3.68,2.7,5.68,1.56,1.4-.8,2.16-2.28,2.1-3.78"/>
                  <ellipse class="cls-25" cx="65.58" cy="82.5" rx="3.28" ry="3.29" transform="translate(-26.55 31.32) rotate(-22.47)"/>
                </g>
                <circle class="cls-21" cx="66.42" cy="82.47" r="4.22"/>
                <circle class="cls-32" cx="83.11" cy="87.53" r="5.01"/>
                <circle class="cls-32" cx="47.59" cy="95.3" r="5.01"/>
              </g>
              <g>
                <path class="cls-3" d="m26.43,121.7c1.09.88,2.29,2.18,2.36,3.81.06,1.58-1.15,3.21-1.68,5.22-.31,1.17-.3,2,.37,4.27"/>
                <path class="cls-3" d="m25.3,110.96c-1.39-.16-3.1-.61-4.03-1.96-.9-1.3-.75-3.33-1.38-5.31-.37-1.15-.82-1.84-2.6-3.4"/>
                <g>
                  <path class="cls-27" d="m24.84,113.16c-1.42.64-2.42,2.05-2.45,3.71-.05,2.3,1.78,4.2,4.08,4.25,2.3.05,4.2-1.78,4.25-4.07.03-1.61-.85-3.02-2.17-3.74"/>
                  <ellipse class="cls-25" cx="26.59" cy="114.65" rx="3.28" ry="3.29" transform="translate(-90.7 124.3) rotate(-81.65)"/>
                </g>
                <circle class="cls-21" cx="27" cy="113.42" r="4.22"/>
                <circle class="cls-32" cx="18.47" cy="96.43" r="5.01"/>
              </g>
              <g>
                <path class="cls-3" d="m39.52,73.13c-.2,1.38-.7,3.08-2.07,3.98-1.32.86-3.35.66-5.35,1.23-1.16.33-1.87.77-3.47,2.5"/>
                <path class="cls-3" d="m47.23,65.93c.1-1.4.47-3.13,1.76-4.12,1.25-.96,3.29-.91,5.24-1.63,1.13-.42,1.8-.91,3.27-2.76"/>
                <g>
                  <path class="cls-27" d="m44.96,67.52c-1.28-.89-3-1.03-4.44-.21-2,1.14-2.69,3.68-1.56,5.68,1.14,2,3.68,2.7,5.68,1.56,1.4-.8,2.16-2.28,2.1-3.78"/>
                  <ellipse class="cls-25" cx="44.58" cy="69.79" rx="3.28" ry="3.29" transform="translate(-23.29 22.33) rotate(-22.47)"/>
                </g>
                <circle class="cls-21" cx="45.43" cy="69.76" r="4.22"/>
                <circle class="cls-32" cx="59.46" cy="57.96" r="5.01"/>
                <circle class="cls-32" cx="26.6" cy="82.58" r="5.01"/>
              </g>
            </g>
            <g>
              <g>
                <path class="cls-3" d="m58.86,74.89c-1.4.16-3.35.6-5.1,1.94-1.59,1.22-2.21,2.55-2.94,3.64-1.23,1.83-3.52,4.07-8.19,5.69"/>
                <path class="cls-3" d="m59.1,85.92c-4.76-1.36-7.14-3.52-8.44-5.34-1.02-1.43-1.74-3.17-3.77-4.31-1.61-.89-3.28-.99-4.49-.92"/>
                <g>
                  <path class="cls-27" d="m64.24,71.27c-.98-1.21-2.6-1.82-4.21-1.43-2.23.54-3.61,2.79-3.08,5.02.54,2.24,2.78,3.62,5.02,3.08,1.56-.38,2.71-1.59,3.07-3.05"/>
                  <ellipse class="cls-25" cx="63.25" cy="73.34" rx="3.28" ry="3.29" transform="translate(-7.67 7.39) rotate(-6.31)"/>
                </g>
                <g>
                  <path class="cls-27" d="m64.7,87.06c-.24-1.54-1.33-2.88-2.92-3.35-2.2-.66-4.52.6-5.18,2.81-.66,2.21.6,4.52,2.8,5.18,1.54.46,3.14-.02,4.18-1.1"/>
                  <ellipse class="cls-25" cx="62.81" cy="88.36" rx="3.29" ry="3.28" transform="translate(-43.37 110.23) rotate(-66.24)"/>
                </g>
                <g>
                  <path class="cls-27" d="m38.21,90.57c1.06,1.14,2.71,1.65,4.29,1.15,2.19-.68,3.42-3.02,2.74-5.21-.68-2.2-3.02-3.43-5.21-2.74-1.53.48-2.6,1.76-2.86,3.24"/>
                  <ellipse class="cls-25" cx="39.07" cy="88.44" rx="3.28" ry="3.29" transform="translate(-14.89 8.21) rotate(-10.09)"/>
                </g>
                <g>
                  <path class="cls-27" d="m37.11,73.87c-.06,1.55.76,3.08,2.23,3.85,2.04,1.06,4.55.27,5.62-1.76,1.07-2.04.28-4.55-1.76-5.62-1.42-.74-3.08-.58-4.32.28"/>
                  <ellipse class="cls-25" cx="39.22" cy="72.96" rx="3.29" ry="3.28" transform="translate(-43.08 63.54) rotate(-55.21)"/>
                </g>
              </g>
              <g>
                <g>
                  <path class="cls-27" d="m69.51,126.34c-.98-1.21-2.6-1.82-4.21-1.43-2.23.54-3.61,2.79-3.08,5.02.54,2.24,2.78,3.62,5.02,3.08,1.56-.38,2.71-1.59,3.07-3.05"/>
                  <ellipse class="cls-25" cx="68.52" cy="128.41" rx="3.28" ry="3.29" transform="translate(-13.69 8.3) rotate(-6.31)"/>
                </g>
                <g>
                  <path class="cls-27" d="m42.38,128.94c-.06,1.55.76,3.08,2.23,3.85,2.04,1.06,4.55.27,5.62-1.76,1.07-2.04.28-4.55-1.76-5.62-1.42-.74-3.08-.58-4.32.28"/>
                  <ellipse class="cls-25" cx="44.49" cy="128.04" rx="3.29" ry="3.28" transform="translate(-86.05 91.52) rotate(-55.21)"/>
                </g>
              </g>
              <g>
                <path class="cls-3" d="m122.14,74.62c-1.4.16-3.35.6-5.1,1.94-1.59,1.22-2.21,2.55-2.94,3.64-1.23,1.83-3.52,4.07-8.19,5.69"/>
                <path class="cls-3" d="m122.38,85.65c-4.76-1.36-7.14-3.52-8.44-5.34-1.02-1.43-1.74-3.17-3.77-4.31-1.61-.89-3.28-.99-4.49-.92"/>
                <g>
                  <path class="cls-27" d="m127.53,70.99c-.98-1.21-2.6-1.82-4.21-1.43-2.23.54-3.61,2.79-3.08,5.02.54,2.24,2.78,3.62,5.02,3.08,1.56-.38,2.71-1.59,3.07-3.05"/>
                  <ellipse class="cls-25" cx="126.54" cy="73.07" rx="3.28" ry="3.29" transform="translate(-7.26 14.34) rotate(-6.31)"/>
                </g>
                <g>
                  <path class="cls-27" d="m127.99,86.79c-.24-1.54-1.33-2.88-2.92-3.35-2.2-.66-4.52.6-5.18,2.81-.66,2.21.6,4.52,2.8,5.18,1.54.46,3.14-.02,4.18-1.1"/>
                  <ellipse class="cls-25" cx="126.09" cy="88.09" rx="3.29" ry="3.28" transform="translate(-5.33 167.99) rotate(-66.24)"/>
                </g>
                <g>
                  <path class="cls-27" d="m101.5,90.3c1.06,1.14,2.71,1.65,4.29,1.15,2.19-.68,3.42-3.02,2.74-5.21-.68-2.2-3.02-3.43-5.21-2.74-1.53.48-2.6,1.76-2.86,3.24"/>
                  <ellipse class="cls-25" cx="102.35" cy="88.17" rx="3.28" ry="3.29" transform="translate(-13.86 19.29) rotate(-10.09)"/>
                </g>
                <g>
                  <path class="cls-27" d="m100.4,73.6c-.06,1.55.76,3.08,2.23,3.85,2.04,1.06,4.55.27,5.62-1.76,1.07-2.04.28-4.55-1.76-5.62-1.42-.74-3.08-.58-4.32.28"/>
                  <ellipse class="cls-25" cx="102.5" cy="72.69" rx="3.29" ry="3.28" transform="translate(-15.68 115.4) rotate(-55.21)"/>
                </g>
              </g>
              <g>
                <path class="cls-3" d="m87.58,69.85c.96-1.01,2.35-2.11,3.99-2.05,1.58.06,3.11,1.4,5.08,2.08,1.14.4,1.97.45,4.28-.04"/>
                <path class="cls-3" d="m78.9,71.65c-.96,1.01-2.35,2.11-3.99,2.05-1.58-.06-3.11-1.4-5.08-2.08-1.14-.4-1.97-.45-4.28.04"/>
                <g>
                  <path class="cls-27" d="m79.31,70.65c-.26,1.53.35,3.15,1.7,4.11,1.88,1.32,4.48.87,5.8-1.01,1.33-1.88.88-4.48-1-5.8-1.31-.93-2.98-.98-4.32-.29"/>
                  <ellipse class="cls-25" cx="81.52" cy="70.03" rx="3.29" ry="3.28" transform="translate(-25.15 83.06) rotate(-47.63)"/>
                </g>
                <circle class="cls-21" cx="80.74" cy="69" r="4.22"/>
                <circle class="cls-32" cx="63.7" cy="72.5" r="5.01"/>
                <circle class="cls-32" cx="102.38" cy="72.22" r="5.01"/>
              </g>
              <g>
                <path class="cls-3" d="m39.6,112.48c-.87,1.1-1.76,2.63-1.47,4.23.28,1.55,1.82,2.89,2.77,4.74.55,1.07.72,1.88.56,4.24"/>
                <path class="cls-3" d="m40.17,103.63c.87-1.1,1.76-2.63,1.47-4.23-.28-1.55-1.82-2.89-2.77-4.74-.55-1.07-.72-1.88-.56-4.24"/>
                <g>
                  <path class="cls-27" d="m39.23,104.18c1.48-.47,3.17-.1,4.3,1.11,1.57,1.68,1.49,4.31-.19,5.89-1.68,1.58-4.31,1.49-5.88-.18-1.1-1.17-1.39-2.81-.89-4.23"/>
                  <ellipse class="cls-25" cx="38.93" cy="106.45" rx="3.29" ry="3.28" transform="translate(-67.9 68.57) rotate(-50.39)"/>
                </g>
                <circle class="cls-21" cx="37.8" cy="105.82" r="4.22"/>
                <circle class="cls-32" cx="38.89" cy="88.46" r="5.01"/>
                <circle class="cls-32" cx="44.01" cy="126.8" r="5.01"/>
              </g>
              <g>
                <path class="cls-3" d="m108.44,102.96c-1.29.58-3,1.6-4.26,3.41-1.14,1.64-1.32,3.1-1.68,4.36-.61,2.12-2.1,4.96-6.05,7.92"/>
                <path class="cls-3" d="m112.06,113.39c-4.95.16-7.87-1.16-9.67-2.5-1.41-1.05-2.63-2.49-4.91-2.94-1.8-.36-3.43.06-4.56.5"/>
                <g>
                  <path class="cls-27" d="m112.4,98.12c-1.3-.85-3.03-.94-4.45-.07-1.96,1.2-2.58,3.76-1.39,5.72,1.2,1.97,3.76,2.59,5.72,1.39,1.37-.84,2.09-2.34,1.99-3.84"/>
                  <ellipse class="cls-25" cx="112.09" cy="100.39" rx="3.28" ry="3.29" transform="translate(-31.27 54.68) rotate(-24.16)"/>
                </g>
                <g>
                  <path class="cls-27" d="m115.6,114.58c-.2-1.54-1.26-2.91-2.84-3.42-2.19-.71-4.53.49-5.25,2.68-.71,2.19.48,4.54,2.67,5.25,1.53.5,3.14.06,4.21-1"/>
                  <ellipse class="cls-25" cx="113.68" cy="115.83" rx="3.29" ry="3.28" transform="translate(-39.51 169.42) rotate(-64.82)"/>
                </g>
                <g>
                  <path class="cls-27" d="m87.15,107.51c.42,1.5,1.67,2.7,3.3,2.98,2.27.39,4.42-1.13,4.81-3.4.39-2.27-1.13-4.42-3.39-4.81-1.58-.27-3.11.39-4.02,1.59"/>
                  <ellipse class="cls-25" cx="88.88" cy="106" rx="3.29" ry="3.28" transform="translate(-38.41 160.15) rotate(-73.07)"/>
                </g>
                <g>
                  <path class="cls-27" d="m94.16,124.35c1.56-.03,3.03-.94,3.71-2.45.95-2.09.01-4.56-2.08-5.51-2.1-.95-4.56-.02-5.51,2.08-.66,1.46-.4,3.11.53,4.29"/>
                  <ellipse class="cls-25" cx="93.13" cy="122.3" rx="3.28" ry="3.29" transform="translate(-59.8 137.85) rotate(-58.52)"/>
                </g>
              </g>
              <g>
                <path class="cls-3" d="m90.82,136.02c1.28-.56,2.79-1.49,3.29-3.04.48-1.5-.25-3.4-.22-5.48.02-1.21.25-2,1.5-4.01"/>
                <circle class="cls-32" cx="92.55" cy="122.8" r="5.01"/>
              </g>
              <g>
                <path class="cls-3" d="m25.21,126.79c.72-1.2,1.4-2.84.9-4.39-.48-1.5-2.19-2.62-3.38-4.32-.69-.99-.97-1.77-1.12-4.13"/>
                <path class="cls-27" d="m31.42,132.1c-.6,1.44-1.98,2.48-3.64,2.56-2.3.11-4.25-1.66-4.36-3.96-.11-2.3,1.65-4.25,3.95-4.37,1.61-.08,3.04.76,3.8,2.06"/>
                <circle class="cls-21" cx="31.1" cy="129.94" r="4.22"/>
                <circle class="cls-32" cx="24.86" cy="108.65" r="5.01"/>
              </g>
              <g>
                <path class="cls-3" d="m135.79,126.75c1.11.85,2.66,1.71,4.26,1.4,1.55-.31,2.85-1.87,4.68-2.86,1.06-.57,1.87-.76,4.23-.64"/>
                <path class="cls-3" d="m128.51,123.15c-.59-1.27-1.55-2.76-3.11-3.22-1.51-.45-3.4.32-5.48.34-1.21,0-2.01-.21-4.04-1.41"/>
                <g>
                  <path class="cls-27" d="m131.75,124.34c1.33-.81,3.06-.84,4.45.07,1.92,1.26,2.46,3.84,1.2,5.77-1.26,1.93-3.84,2.46-5.76,1.21-1.34-.88-2.01-2.41-1.86-3.91"/>
                  <ellipse class="cls-25" cx="131.99" cy="126.63" rx="3.29" ry="3.28" transform="translate(-39.73 189.63) rotate(-63.96)"/>
                </g>
                <circle class="cls-21" cx="130.74" cy="126.27" r="4.22"/>
                <circle class="cls-32" cx="114.68" cy="115.72" r="5.01"/>
                <circle class="cls-32" cx="149.71" cy="121.64" r="5.01"/>
              </g>
              <g>
                <path class="cls-3" d="m78.93,91.39c-.96,1.01-2.35,2.11-3.99,2.05-1.58-.06-3.11-1.4-5.07-2.09-1.14-.4-1.97-.45-4.28.03"/>
                <path class="cls-3" d="m87.61,89.59c.96-1.01,2.35-2.11,3.99-2.05,1.58.06,3.11,1.4,5.07,2.09,1.14.4,1.97.45,4.28-.03"/>
                <g>
                  <path class="cls-27" d="m87.2,90.59c.26-1.53-.35-3.15-1.7-4.11-1.88-1.33-4.48-.88-5.8,1-1.33,1.88-.88,4.48,1,5.8,1.31.93,2.98.99,4.32.29"/>
                  <ellipse class="cls-25" cx="84.99" cy="91.22" rx="3.29" ry="3.28" transform="translate(-39.68 92.46) rotate(-47.6)"/>
                </g>
                <circle class="cls-21" cx="85.77" cy="92.24" r="4.22"/>
                <circle class="cls-32" cx="102.81" cy="88.75" r="5.01"/>
                <circle class="cls-32" cx="63.62" cy="89.1" r="5.01"/>
              </g>
            </g>
            <rect class="cls-39" x="27" y="63.34" width="80.86" height="81.8"/>
            <g id="Layer_23" data-name="Layer 23">
              <rect class="cls-30" x="63.35" y="83.02" width="34.34" height="36.23" rx="9.1" ry="9.1"/>
              <g class="cls-34">
                <rect class="cls-7" x="63.27" y="82.95" width="34.34" height="36.23" rx="9.1" ry="9.1"/>
                <g>
                  <g>
                    <path class="cls-3" d="m58.86,74.86c-1.4.16-3.35.6-5.1,1.94-1.59,1.22-2.21,2.55-2.94,3.64-1.23,1.83-3.52,4.07-8.19,5.69"/>
                    <path class="cls-3" d="m59.1,85.89c-4.76-1.36-7.14-3.52-8.44-5.34-1.02-1.43-1.74-3.17-3.77-4.31-1.61-.89-3.28-.99-4.49-.92"/>
                    <g>
                      <path class="cls-27" d="m64.25,71.23c-.98-1.21-2.6-1.82-4.21-1.43-2.23.54-3.61,2.79-3.08,5.02.54,2.24,2.78,3.62,5.02,3.08,1.56-.38,2.71-1.59,3.07-3.05"/>
                      <ellipse class="cls-25" cx="63.25" cy="73.31" rx="3.28" ry="3.29" transform="translate(-7.67 7.39) rotate(-6.31)"/>
                    </g>
                    <g>
                      <path class="cls-27" d="m64.71,87.03c-.24-1.54-1.33-2.88-2.92-3.35-2.2-.66-4.52.6-5.18,2.81-.66,2.21.6,4.52,2.8,5.18,1.54.46,3.14-.02,4.18-1.1"/>
                      <ellipse class="cls-25" cx="62.81" cy="88.32" rx="3.29" ry="3.28" transform="translate(-43.34 110.22) rotate(-66.24)"/>
                    </g>
                    <g>
                      <path class="cls-27" d="m38.22,90.54c1.06,1.14,2.71,1.65,4.29,1.15,2.19-.68,3.42-3.02,2.74-5.21-.68-2.2-3.02-3.43-5.21-2.74-1.53.48-2.6,1.76-2.86,3.24"/>
                      <ellipse class="cls-25" cx="39.07" cy="88.41" rx="3.28" ry="3.29" transform="translate(-14.88 8.21) rotate(-10.09)"/>
                    </g>
                    <g>
                      <path class="cls-27" d="m37.11,73.84c-.06,1.55.76,3.08,2.23,3.85,2.04,1.06,4.55.27,5.62-1.76,1.07-2.04.28-4.55-1.76-5.62-1.42-.74-3.08-.58-4.32.28"/>
                      <ellipse class="cls-25" cx="39.22" cy="72.93" rx="3.29" ry="3.28" transform="translate(-43.05 63.53) rotate(-55.21)"/>
                    </g>
                  </g>
                  <g>
                    <path class="cls-3" d="m122.15,74.59c-1.4.16-3.35.6-5.1,1.94-1.59,1.22-2.21,2.55-2.94,3.64-1.23,1.83-3.52,4.07-8.19,5.69"/>
                    <path class="cls-3" d="m122.39,85.62c-4.76-1.36-7.14-3.52-8.44-5.34-1.02-1.43-1.74-3.17-3.77-4.31-1.61-.89-3.28-.99-4.49-.92"/>
                    <g>
                      <path class="cls-27" d="m127.53,70.96c-.98-1.21-2.6-1.82-4.21-1.43-2.23.54-3.61,2.79-3.08,5.02.54,2.24,2.78,3.62,5.02,3.08,1.56-.38,2.71-1.59,3.07-3.05"/>
                      <ellipse class="cls-25" cx="126.54" cy="73.03" rx="3.28" ry="3.29" transform="translate(-7.26 14.34) rotate(-6.31)"/>
                    </g>
                    <g>
                      <path class="cls-27" d="m127.99,86.76c-.24-1.54-1.33-2.88-2.92-3.35-2.2-.66-4.52.6-5.18,2.81-.66,2.21.6,4.52,2.8,5.18,1.54.46,3.14-.02,4.18-1.1"/>
                      <ellipse class="cls-25" cx="126.1" cy="88.05" rx="3.29" ry="3.28" transform="translate(-5.3 167.98) rotate(-66.24)"/>
                    </g>
                    <g>
                      <path class="cls-27" d="m101.5,90.27c1.06,1.14,2.71,1.65,4.29,1.15,2.19-.68,3.42-3.02,2.74-5.21-.68-2.2-3.02-3.43-5.21-2.74-1.53.48-2.6,1.76-2.86,3.24"/>
                      <ellipse class="cls-25" cx="102.36" cy="88.14" rx="3.28" ry="3.29" transform="translate(-13.86 19.29) rotate(-10.09)"/>
                    </g>
                    <g>
                      <path class="cls-27" d="m100.4,73.57c-.06,1.55.76,3.08,2.23,3.85,2.04,1.06,4.55.27,5.62-1.76,1.07-2.04.28-4.55-1.76-5.62-1.42-.74-3.08-.58-4.32.28"/>
                      <ellipse class="cls-25" cx="102.51" cy="72.66" rx="3.29" ry="3.28" transform="translate(-15.65 115.39) rotate(-55.21)"/>
                    </g>
                  </g>
                  <g>
                    <path class="cls-3" d="m87.58,69.82c.96-1.01,2.35-2.11,3.99-2.05,1.58.06,3.11,1.4,5.08,2.08,1.14.4,1.97.45,4.28-.04"/>
                    <path class="cls-3" d="m78.9,71.62c-.96,1.01-2.35,2.11-3.99,2.05-1.58-.06-3.11-1.4-5.08-2.08-1.14-.4-1.97-.45-4.28.04"/>
                    <g>
                      <path class="cls-27" d="m79.32,70.62c-.26,1.53.35,3.15,1.7,4.11,1.88,1.32,4.48.87,5.8-1.01,1.33-1.88.88-4.48-1-5.8-1.31-.93-2.98-.98-4.32-.29"/>
                      <ellipse class="cls-25" cx="81.53" cy="69.99" rx="3.29" ry="3.28" transform="translate(-25.13 83.05) rotate(-47.63)"/>
                    </g>
                    <circle class="cls-21" cx="80.74" cy="68.97" r="4.22"/>
                    <circle class="cls-32" cx="63.71" cy="72.47" r="5.01"/>
                    <circle class="cls-32" cx="102.38" cy="72.19" r="5.01"/>
                  </g>
                  <g>
                    <path class="cls-3" d="m39.6,112.44c-.87,1.1-1.76,2.63-1.47,4.23.28,1.55,1.82,2.89,2.77,4.74.55,1.07.72,1.88.56,4.24"/>
                    <path class="cls-3" d="m40.17,103.59c.87-1.1,1.76-2.63,1.47-4.23-.28-1.55-1.82-2.89-2.77-4.74-.55-1.07-.72-1.88-.56-4.24"/>
                    <g>
                      <path class="cls-27" d="m39.24,104.15c1.48-.47,3.17-.1,4.3,1.11,1.57,1.68,1.49,4.31-.19,5.89-1.68,1.58-4.31,1.49-5.88-.18-1.1-1.17-1.39-2.81-.89-4.23"/>
                      <ellipse class="cls-25" cx="38.93" cy="106.42" rx="3.29" ry="3.28" transform="translate(-67.88 68.56) rotate(-50.39)"/>
                    </g>
                    <circle class="cls-21" cx="37.81" cy="105.79" r="4.22"/>
                    <circle class="cls-32" cx="38.89" cy="88.43" r="5.01"/>
                    <circle class="cls-32" cx="44.01" cy="126.77" r="5.01"/>
                  </g>
                  <g>
                    <path class="cls-3" d="m112.06,113.04c-4.95.16-7.87-1.16-9.67-2.5-1.41-1.05-2.63-2.49-4.91-2.94-1.8-.36-3.43.06-4.56.5"/>
                    <g>
                      <path class="cls-27" d="m87.15,107.48c.42,1.5,1.67,2.7,3.3,2.98,2.27.39,4.42-1.13,4.81-3.4.39-2.27-1.13-4.42-3.39-4.81-1.58-.27-3.11.39-4.02,1.59"/>
                      <ellipse class="cls-25" cx="88.88" cy="105.97" rx="3.29" ry="3.28" transform="translate(-38.38 160.13) rotate(-73.07)"/>
                    </g>
                    <g>
                      <path class="cls-27" d="m94.16,124.11c1.56-.03,3.03-.94,3.71-2.45.95-2.09.01-4.56-2.08-5.51-2.1-.95-4.56-.02-5.51,2.08-.66,1.46-.4,3.11.53,4.29"/>
                      <ellipse class="cls-25" cx="93.13" cy="122.06" rx="3.28" ry="3.29" transform="translate(-59.6 137.73) rotate(-58.52)"/>
                    </g>
                    <circle class="cls-32" cx="92.55" cy="122.44" r="5.01"/>
                  </g>
                  <g>
                    <path class="cls-3" d="m25.21,126.76c.72-1.2,1.4-2.84.9-4.39-.48-1.5-2.19-2.62-3.38-4.32-.69-.99-.97-1.77-1.12-4.13"/>
                    <path class="cls-27" d="m31.43,132.07c-.6,1.44-1.98,2.48-3.64,2.56-2.3.11-4.25-1.66-4.36-3.96-.11-2.3,1.65-4.25,3.95-4.37,1.61-.08,3.04.76,3.8,2.06"/>
                    <circle class="cls-21" cx="31.1" cy="129.91" r="4.22"/>
                    <circle class="cls-32" cx="24.87" cy="108.62" r="5.01"/>
                  </g>
                  <g>
                    <path class="cls-3" d="m78.93,91.35c-.96,1.01-2.35,2.11-3.99,2.05-1.58-.06-3.11-1.4-5.07-2.09-1.14-.4-1.97-.45-4.28.03"/>
                    <path class="cls-3" d="m87.62,89.56c.96-1.01,2.35-2.11,3.99-2.05,1.58.06,3.11,1.4,5.07,2.09,1.14.4,1.97.45,4.28-.03"/>
                    <g>
                      <path class="cls-27" d="m87.2,90.56c.26-1.53-.35-3.15-1.7-4.11-1.88-1.33-4.48-.88-5.8,1-1.33,1.88-.88,4.48,1,5.8,1.31.93,2.98.99,4.32.29"/>
                      <ellipse class="cls-25" cx="84.99" cy="91.18" rx="3.29" ry="3.28" transform="translate(-39.65 92.45) rotate(-47.6)"/>
                    </g>
                    <circle class="cls-21" cx="85.77" cy="92.21" r="4.22"/>
                    <circle class="cls-32" cx="102.81" cy="88.72" r="5.01"/>
                    <circle class="cls-32" cx="63.62" cy="89.07" r="5.01"/>
                  </g>
                </g>
              </g>
            </g>
            <line class="cls-2" x1="61.15" y1="109.9" x2="55.3" y2="110.93"/>
            <polygon class="cls-29" points="69.09 101.69 61.45 103.03 58.79 110.31 63.77 116.26 71.41 114.91 74.07 107.63 69.09 101.69"/>
            <g>
              <path class="cls-6" d="m89.43,106.74c-3.71-.56-5.26-1.56-5.1-4.12.02-.26.04-.55.07-.85"/>
              <polygon class="cls-29" points="85.37 97.65 86.49 104 84.41 102.1 81.72 102.97 85.37 97.65"/>
            </g>
            <g>
              <path class="cls-6" d="m82.81,98.84c-2.97,2.72-6.93,3.08-8.48,1.32-1.04-1.18-.93-3.22.2-5.16"/>
              <polygon class="cls-29" points="77.46 91.94 75.3 98.02 74.42 95.33 71.66 94.76 77.46 91.94"/>
            </g>
          </g>
        </g>
        <line class="cls-9" x1="40.08" y1="-.32" x2="40.08" y2="126.19"/>
        <line class="cls-9" x1="104.12" y1=".23" x2="104.12" y2="126.74"/>
        <g>
          <path class="cls-23" d="m43.21,51.96h57.8c1.72,0,3.11,1.39,3.11,3.11v7.79H40.1v-7.79c0-1.72,1.39-3.11,3.11-3.11Z"/>
          <text class="cls-12" transform="translate(51.53 60.1)"><tspan x="0" y="0">tethered</tspan></text>
          <circle class="cls-24" cx="96.55" cy="57.22" r="2.24"/>
        </g>
        <g>
          <path class="cls-23" d="m40.1,63.18h64.02v7.79c0,1.72-1.39,3.11-3.11,3.11h-57.8c-1.72,0-3.11-1.39-3.11-3.11v-7.79h0Z"/>
          <text class="cls-12" transform="translate(46.65 71.44)"><tspan x="0" y="0">untethered</tspan></text>
          <rect class="cls-26" x="94.48" y="67.13" width="3.09" height="3.09" transform="translate(164.71 -27.35) rotate(90)"/>
        </g>
      </g>
      <g id="Layer_26" data-name="Layer 26">
        <g>
          <rect class="cls-9" x="123.7" y="6.56" width="42.21" height="42.21"/>
          <text class="cls-13" transform="translate(120.13 57.75)"><tspan x="0" y="0">catalyst mol%</tspan></text>
          <text class="cls-16" transform="translate(113.05 42.49) rotate(-90)"><tspan class="cls-18" x="0" y="0">τ</tspan><tspan class="cls-19" x="3.43" y="0" xml:space="preserve">        (s)</tspan></text>
          <text class="cls-13" transform="translate(114.04 38.89) rotate(-90) scale(.58)"><tspan x="0" y="0">Maxwell</tspan></text>
          <rect class="cls-29" x="127" y="16.22" width="1.87" height="1.87"/>
          <rect class="cls-11" x="127.02" y="18.72" width="1.87" height="1.87" rx=".93" ry=".93"/>
          <rect class="cls-29" x="138.33" y="29.2" width="1.87" height="1.87"/>
          <rect class="cls-11" x="138.3" y="27.36" width="1.87" height="1.87" rx=".93" ry=".93"/>
          <rect class="cls-29" x="149.7" y="29.56" width="1.87" height="1.87"/>
          <rect class="cls-11" x="149.71" y="31.84" width="1.87" height="1.87" rx=".93" ry=".93"/>
          <line class="cls-10" x1="123.77" y1="16.33" x2="125.14" y2="16.33"/>
          <line class="cls-10" x1="123.77" y1="17.85" x2="125.14" y2="17.85"/>
          <line class="cls-10" x1="123.77" y1="19.55" x2="125.14" y2="19.55"/>
          <line class="cls-10" x1="123.77" y1="21.43" x2="125.14" y2="21.43"/>
          <line class="cls-10" x1="123.77" y1="23.56" x2="125.14" y2="23.56"/>
          <line class="cls-10" x1="123.77" y1="26.18" x2="125.14" y2="26.18"/>
          <line class="cls-10" x1="123.77" y1="29.29" x2="125.14" y2="29.29"/>
          <line class="cls-10" x1="123.77" y1="33.36" x2="125.14" y2="33.36"/>
          <line class="cls-10" x1="123.77" y1="39.04" x2="125.14" y2="39.04"/>
          <text class="cls-17" transform="translate(115.3 50.28)"><tspan x="0" y="0">10</tspan></text>
          <text class="cls-17" transform="translate(120.86 48.62) scale(.58)"><tspan x="0" y="0">3</tspan></text>
          <text class="cls-17" transform="translate(115.34 17.78)"><tspan x="0" y="0">10</tspan></text>
          <text class="cls-17" transform="translate(120.9 16.12) scale(.58)"><tspan x="0" y="0">4</tspan></text>
          <rect class="cls-29" x="161.14" y="35.48" width="1.87" height="1.87"/>
          <rect class="cls-11" x="161.22" y="32.56" width="1.87" height="1.87" rx=".93" ry=".93"/>
        </g>
        <text class="cls-15" transform="translate(127.52 74.59)"><tspan x="0" y="0">drop-in chemistry</tspan></text>
        <text class="cls-14" transform="translate(127.52 90.77)"><tspan x="0" y="0">similar relaxation times, </tspan><tspan x="0" y="9.6">larger activation energies</tspan></text>
        <text class="cls-15" transform="translate(127.52 115.41)"><tspan x="0" y="0">catalytic SAOS superposition</tspan></text>
      </g>
      <g id="Layer_25" data-name="Layer 25">
        <g>
          <line class="cls-3" x1="12.08" y1="9.52" x2="19.25" y2="9.52"/>
          <path class="cls-27" d="m26.45,7.21c-.79-1.37-2.32-2.23-4-2.1-2.33.19-4.06,2.23-3.87,4.56.19,2.33,2.23,4.06,4.55,3.87,1.63-.13,2.96-1.17,3.56-2.58"/>
          <ellipse class="cls-25" cx="25.13" cy="9.14" rx="3.34" ry="3.33" transform="translate(14.89 33.84) rotate(-87.47)"/>
        </g>
        <g>
          <line class="cls-3" x1="8.69" y1="54.98" x2="31.85" y2="54.98"/>
          <path class="cls-27" d="m23.06,52.66c-.79-1.37-2.32-2.23-4-2.1-2.33.19-4.06,2.23-3.87,4.56.19,2.33,2.23,4.06,4.55,3.87,1.63-.13,2.96-1.17,3.56-2.58"/>
          <ellipse class="cls-25" cx="21.74" cy="54.59" rx="3.34" ry="3.33" transform="translate(-33.75 73.9) rotate(-87.47)"/>
          <circle class="cls-32" cx="21.84" cy="54.7" r="5.09"/>
        </g>
        <text class="cls-12" transform="translate(11.83 22.38)"><tspan x="0" y="0">thiol</tspan></text>
        <text class="cls-12" transform="translate(3.11 68.06)"><tspan x="0" y="0">thioether</tspan></text>
        <text class="cls-12" transform="translate(3.33 44.89)"><tspan x="0" y="0">thioester</tspan></text>
        <g>
          <line class="cls-3" x1="8.69" y1="31.43" x2="31.85" y2="31.43"/>
          <path class="cls-27" d="m23.06,29.12c-.79-1.37-2.32-2.23-4-2.1-2.33.19-4.06,2.23-3.87,4.56.19,2.33,2.23,4.06,4.55,3.87,1.63-.13,2.96-1.17,3.56-2.58"/>
          <ellipse class="cls-25" cx="21.74" cy="31.04" rx="3.34" ry="3.33" transform="translate(-10.23 51.39) rotate(-87.47)"/>
          <circle class="cls-21" cx="22.23" cy="31.5" r="4.51"/>
        </g>
        <g>
          <line class="cls-2" x1="25.36" y1="81.85" x2="20.82" y2="81.82"/>
          <polygon class="cls-29" points="33 76.79 27.08 76.74 24.08 81.84 27 86.99 32.92 87.04 35.92 81.94 33 76.79"/>
          <line class="cls-3" x1="4.62" y1="82" x2="14.53" y2="82"/>
          <path class="cls-27" d="m18.99,79.69c-.79-1.37-2.32-2.23-4-2.1-2.33.19-4.06,2.23-3.87,4.56.19,2.33,2.23,4.06,4.55,3.87,1.63-.13,2.96-1.17,3.56-2.58"/>
          <ellipse class="cls-25" cx="17.67" cy="81.62" rx="3.34" ry="3.33" transform="translate(-64.65 95.66) rotate(-87.47)"/>
          <circle class="cls-20" cx="17.44" cy="81.91" r="3.69"/>
        </g>
        <g>
          <line class="cls-2" x1="17.26" y1="97.96" x2="12.72" y2="97.93"/>
          <polygon class="cls-29" points="24.9 92.9 18.98 92.85 15.98 97.95 18.9 103.1 24.82 103.15 27.82 98.05 24.9 92.9"/>
        </g>
        <text class="cls-12" transform="translate(1.82 111.05)"><tspan x="0" y="0">exchange</tspan><tspan x="1.33" y="9.6">catalysts</tspan></text>
      </g>
      <g>
        <rect class="cls-9" x="186.65" y="6.56" width="42.21" height="42.21"/>
        <text class="cls-13" transform="translate(183.08 57.75)"><tspan x="0" y="0">catalyst mol%</tspan></text>
        <text class="cls-13" transform="translate(176.92 46.26) rotate(-90.02)"><tspan x="0" y="0">Ε</tspan></text>
        <text class="cls-13" transform="translate(179.58 40.92) rotate(-90.02) scale(.58)"><tspan class="cls-37" x="0" y="0">Α</tspan><tspan x="4.89" y="0"> </tspan></text>
        <text class="cls-13" transform="translate(176.92 36.77) rotate(-90.02)"><tspan x="0" y="0">[kJ/mol]</tspan></text>
        <rect class="cls-29" x="192.16" y="28.81" width="1.87" height="1.87"/>
        <rect class="cls-11" x="192.18" y="18.14" width="1.87" height="1.87" rx=".93" ry=".93"/>
        <rect class="cls-29" x="201.74" y="36.28" width="1.87" height="1.87"/>
        <rect class="cls-11" x="201.86" y="18.73" width="1.87" height="1.87" rx=".93" ry=".93"/>
        <rect class="cls-29" x="209.64" y="33.49" width="1.87" height="1.87"/>
        <rect class="cls-11" x="209.66" y="18.99" width="1.87" height="1.87" rx=".93" ry=".93"/>
        <rect class="cls-29" x="220.16" y="39.25" width="1.87" height="1.87"/>
        <rect class="cls-11" x="220.18" y="18.48" width="1.87" height="1.87" rx=".93" ry=".93"/>
        <text class="cls-17" transform="translate(179.97 47.7)"><tspan x="0" y="0">15</tspan></text>
        <text class="cls-17" transform="translate(179.81 24.11)"><tspan x="0" y="0">25</tspan></text>
        <line class="cls-10" x1="186.48" y1="22.64" x2="187.85" y2="22.64"/>
        <line class="cls-10" x1="186.48" y1="46.11" x2="187.85" y2="46.11"/>
        <line class="cls-10" x1="186.48" y1="34.39" x2="187.85" y2="34.39"/>
        <line class="cls-10" x1="186.48" y1="10.85" x2="187.85" y2="10.85"/>
      </g>
      <g>
        <path class="cls-4" d="m122.77,71.98c0,3.57-2.89,6.46-6.46,6.46s-6.46-2.89-6.46-6.46c0-.39.05-.79.05-.79.05-.41.2-1.27.72-2.24.05-.09.44-.81,1.03-1.43,1.09-1.15,2.91-2.03,4.66-1.99,3.04.07,6.46,2.62,6.46,6.46Z"/>
        <g>
          <path class="cls-8" d="m123.59,64.49c-1.24.86-3.19,2.46-4.68,4.99-1.14,1.95-1.6,3.77-1.79,5.03-.19,1.42-.4,1.74-.57,1.75-.46,0-2.42-4.29-3.87-5.1"/>
          <path class="cls-4" d="m112.69,71.16c2.45,1.29,3.41,5.11,3.87,5.1.16,0,.37-.32.57-1.75.2-1.26.65-3.08,1.79-5.03,1.48-2.54,3.43-4.13,4.68-4.99"/>
        </g>
      </g>
      <g>
        <path class="cls-4" d="m122.77,112.8c0,3.57-2.89,6.46-6.46,6.46s-6.46-2.89-6.46-6.46c0-.39.05-.79.05-.79.05-.41.2-1.27.72-2.24.05-.09.44-.81,1.03-1.43,1.09-1.15,2.91-2.03,4.66-1.99,3.04.07,6.46,2.62,6.46,6.46Z"/>
        <g>
          <path class="cls-8" d="m123.59,105.31c-1.24.86-3.19,2.46-4.68,4.99-1.14,1.95-1.6,3.77-1.79,5.03-.19,1.42-.4,1.74-.57,1.75-.46,0-2.42-4.29-3.87-5.1"/>
          <path class="cls-4" d="m112.69,111.98c2.45,1.29,3.41,5.11,3.87,5.1.16,0,.37-.32.57-1.75.2-1.26.65-3.08,1.79-5.03,1.48-2.54,3.43-4.13,4.68-4.99"/>
        </g>
      </g>
      <g>
        <path class="cls-5" d="m123.18,92.44c0,3.57-2.89,6.46-6.46,6.46s-6.46-2.89-6.46-6.46c0-.39.05-.79.05-.79.05-.41.2-1.27.72-2.24.05-.09.44-.81,1.03-1.43,1.09-1.15,2.91-2.03,4.66-1.99,3.04.07,6.46,2.62,6.46,6.46Z"/>
        <rect class="cls-30" x="110.75" y="91.53" width="11.91" height="1.81" rx=".9" ry=".9"/>
        <rect class="cls-31" x="112.92" y="91.73" width="7.61" height="1.42" rx=".71" ry=".71"/>
      </g>
    </g>
  </g>
</svg>